<svg width="32" height="32" viewBox="0 0 32 32" fill="none" xmlns="http://www.w3.org/2000/svg">
<g clip-path="url(#clip0_4184_494)">
<path d="M15.9999 22C14.964 21.9984 13.9461 21.7286 13.0453 21.2169C12.1446 20.7052 11.3917 19.969 10.8599 19.08L9.1499 20.08C9.86184 21.2601 10.8666 22.2362 12.0667 22.9138C13.2668 23.5914 14.6217 23.9475 15.9999 23.9475C17.3781 23.9475 18.733 23.5914 19.9331 22.9138C21.1332 22.2362 22.138 21.2601 22.8499 20.08L21.1399 19.08C20.6081 19.969 19.8552 20.7052 18.9545 21.2169C18.0537 21.7286 17.0358 21.9984 15.9999 22Z" fill="#3D3A38"/>
<path d="M30 4H26V0H24V4H20V6H24V10H26V6H30V4Z" fill="#3D3A38"/>
<path d="M11.5 11C11.0055 11 10.5222 11.1466 10.1111 11.4213C9.69995 11.696 9.37952 12.0864 9.1903 12.5433C9.00108 13.0001 8.95157 13.5027 9.04804 13.9877C9.1445 14.4726 9.3826 14.9181 9.73223 15.2677C10.0819 15.6174 10.5273 15.8555 11.0123 15.9519C11.4972 16.0484 11.9999 15.9989 12.4567 15.8097C12.9135 15.6204 13.304 15.3 13.5787 14.8889C13.8534 14.4778 14 13.9944 14 13.5C14.0027 13.1709 13.9398 12.8446 13.8151 12.5401C13.6904 12.2356 13.5064 11.9589 13.2737 11.7263C13.041 11.4936 12.7644 11.3095 12.4599 11.1848C12.1553 11.0601 11.829 10.9973 11.5 11Z" fill="#3D3A38"/>
<path d="M20.5 11C20.0055 11 19.5222 11.1466 19.1111 11.4213C18.7 11.696 18.3795 12.0864 18.1903 12.5433C18.0011 13.0001 17.9516 13.5027 18.048 13.9877C18.1445 14.4726 18.3826 14.9181 18.7322 15.2677C19.0819 15.6174 19.5273 15.8555 20.0123 15.9519C20.4972 16.0484 20.9999 15.9989 21.4567 15.8097C21.9135 15.6204 22.304 15.3 22.5787 14.8889C22.8534 14.4778 23 13.9944 23 13.5C23.0027 13.1709 22.9398 12.8446 22.8151 12.5401C22.6904 12.2356 22.5064 11.9589 22.2737 11.7263C22.041 11.4936 21.7644 11.3095 21.4599 11.1848C21.1553 11.0601 20.829 10.9973 20.5 11Z" fill="#3D3A38"/>
<path d="M27.6099 13C27.8626 13.9802 27.9935 14.9878 27.9999 16C27.9999 18.3734 27.2961 20.6935 25.9775 22.6668C24.659 24.6402 22.7848 26.1783 20.5921 27.0866C18.3994 27.9948 15.9866 28.2324 13.6588 27.7694C11.3311 27.3064 9.19286 26.1635 7.51463 24.4853C5.8364 22.8071 4.69351 20.6689 4.23049 18.3411C3.76747 16.0133 4.00511 13.6005 4.91336 11.4078C5.82161 9.21509 7.35968 7.34094 9.33307 6.02237C11.3065 4.70379 13.6265 4 15.9999 4V2C13.1019 1.99901 10.275 2.89738 7.90919 4.57118C5.54341 6.24498 3.75536 8.61171 2.79173 11.3448C1.8281 14.078 1.7364 17.0428 2.52926 19.8302C3.32212 22.6177 4.96048 25.0904 7.21829 26.9072C9.4761 28.724 12.2421 29.7954 15.1346 29.9735C18.0272 30.1517 20.9037 29.4277 23.3674 27.9017C25.831 26.3756 27.7604 24.1226 28.8893 21.4535C30.0182 18.7844 30.2909 15.8307 29.6699 13H27.6099Z" fill="#3D3A38"/>
</g>
<defs>
<clipPath id="clip0_4184_494">
<rect width="32" height="32" fill="white"/>
</clipPath>
</defs>
</svg>
