<svg width="32" height="32" viewBox="0 0 32 32" fill="none" xmlns="http://www.w3.org/2000/svg">
<path d="M24.575 17.1H24.525L20.4 16L24.3 15.1L24.575 15.075C24.575 15.075 28.75 14.2 28.15 11C28.075 10.525 27.875 10.025 27.575 9.475C25.075 4.95 21.25 9.2 21.25 9.2L21.125 9.35L18.225 12.225L19.475 8.1C19.475 8.1 21.2 2.825 16.125 2.725C16.1 2.725 16.075 2.725 16.05 2.725C16.025 2.725 16.025 2.725 16.025 2.725C10.85 2.625 12.65 8.05 12.65 8.05L13.775 12.25L10.9 9.175L10.825 9.1C10.825 9.1 8.72499 6.775 6.57499 7.45C5.84999 7.675 5.12499 8.225 4.47499 9.3C1.82499 13.725 7.42499 14.9 7.42499 14.9H7.47499L11.6 16L7.67499 16.9L7.39999 16.925C7.39999 16.925 3.22499 17.8 3.82499 21C3.89999 21.45 4.09999 21.975 4.39999 22.525C6.89999 27.05 10.725 22.8 10.725 22.8L10.825 22.65L13.75 19.725L12.5 23.825C12.5 23.825 10.775 29.1 15.85 29.2C15.875 29.2 15.9 29.2 15.925 29.2H15.95C21.125 29.3 19.35 23.85 19.35 23.85L18.225 19.75L21.075 22.8L21.15 22.9C21.15 22.9 22.925 24.85 24.875 24.675C25.775 24.6 26.7 24.075 27.5 22.7C30.175 18.275 24.575 17.1 24.575 17.1Z" fill="#3D3A38"/>
</svg>
