<svg width="32" height="32" viewBox="0 0 32 32" fill="none" xmlns="http://www.w3.org/2000/svg">
<path d="M30.6 12.8625C30.325 12.7875 29.4 12.7375 29.4 12.7375C29.4 12.7375 25.4375 11.9125 23.65 10.7375C22.475 10.125 21.4 9.375 20.2 9.375C19.6 9.375 18.5625 9.4875 17.8 10.0375C17.3625 10.4125 17.8 10.0375 16.875 10.8625C16.875 10.8625 16.375 11.4125 16.025 11.425C16.0125 11.425 16.0125 11.425 16 11.425C16 11.425 15.9875 11.425 15.975 11.425C15.6375 11.4125 15.125 10.8625 15.125 10.8625C14.2 10.025 14.65 10.4125 14.2 10.0375C13.4375 9.4875 12.4 9.375 11.8 9.375C10.6 9.375 9.5125 10.125 8.35 10.7375C6.5625 11.925 2.6 12.7375 2.6 12.7375C2.6 12.7375 1.675 12.7875 1.4 12.8625C1.125 12.9375 0.8125 13.15 0.8125 13.425C0.8125 13.9625 1.375 14.075 2.1625 14.075H6.825C8.075 14.075 9.075 14.2125 9.825 14.4625C10.575 14.7125 11.25 14.9875 11.85 15.3125C12.45 15.625 13.0625 15.925 13.675 16.175C14.275 16.425 15.0375 16.55 15.9625 16.55C15.975 16.55 15.975 16.55 15.9875 16.55C15.9875 16.55 16 16.55 16.0125 16.55C16.95 16.55 17.7125 16.425 18.3 16.175C18.9 15.925 19.5125 15.625 20.125 15.3125C20.725 15 21.4 14.725 22.15 14.4625C22.9 14.2125 23.9125 14.075 25.15 14.075H29.8125C30.6 14.075 31.1625 13.9625 31.1625 13.425C31.175 13.15 30.875 12.95 30.6 12.8625Z" fill="#3D3A38"/>
<path d="M29.0375 14.95H26.2C24.6 14.95 23.375 15.075 22.55 15.3625C21.7375 15.65 21.0625 15.9625 20.5 16.2875C19.9375 16.625 19.3375 16.9375 18.7125 17.2125C18.1 17.5 17.2 17.6375 16.0125 17.65C16 17.65 16 17.65 15.9875 17.65C15.9875 17.65 15.975 17.65 15.9625 17.65C14.775 17.65 13.875 17.5 13.2625 17.2125C12.6375 16.925 12.0375 16.6125 11.475 16.2875C10.9125 15.95 10.25 15.6375 9.42505 15.3625C8.61255 15.075 7.38755 14.95 5.77505 14.95H2.96255C2.40005 14.95 2.11255 15.075 2.11255 15.3625C2.11255 15.525 2.21255 15.625 2.41255 15.65C2.61255 15.6875 3.38755 15.975 4.58755 16.6375C6.38755 17.9625 6.86255 18.2625 8.20005 19.2875C9.40005 19.95 10.2375 21.075 11.8125 21.85C13.2375 22.3875 14.2125 22.6125 15.9875 22.6125C16 22.6125 16 22.6125 16.0125 22.6125C16.0125 22.6125 16.025 22.6125 16.0375 22.6125C17.8125 22.6125 18.775 22.3875 20.2125 21.85C21.775 21.075 22.6125 19.95 23.825 19.2875C25.15 18.2625 25.625 17.9625 27.4375 16.6375C28.6375 15.975 29.425 15.675 29.6125 15.65C29.8125 15.6125 29.9125 15.525 29.9125 15.3625C29.8875 15.0875 29.5875 14.95 29.0375 14.95Z" fill="#3D3A38"/>
</svg>
