<svg xmlns="http://www.w3.org/2000/svg" xml:space="preserve" viewBox="0 0 300 300"><path fill="#F6EAEB" d="M1 169v-13c2-1 3 0 3 2l1 2-2 2 1-1 2-3c3-4 1-9 2-14 3-2 6-2 9-2l10 1 2 1v12l-1 1c-4 2-8 4-12 3-3-1-5 0-6 3-3 3-4 6-9 6"/><path fill="#EED2D9" d="M9 144v10c0 2 0 4-3 5H5c-2-1-2-3-4-3v-9c2-4 1-8 0-12v-9l1-2 2-1 2-2h2c3 3 6 3 10 4v3a6 6 0 0 1 0 1l-2 1v1a11 11 0 0 0-1 1 5 5 0 0 1-1 1l-2 1-3 5H8s1 0 0 0v3c1 0 2 1 1 2"/><path fill="#EADBDF" d="M195 1h17c1 2 3 1 4 1l9 1v5l-1 1-1 1h-3l-1 1h-2l-8 1h-15l-7-1-1-1V8l1-2a13 13 0 0 1 2-2l6-3"/><path fill="#F0DFE2" d="M167 1h2l1 1v8l-2 1h-15c-2 0-2-5-5-1l-1 1h-1a6 6 0 0 1-2 1l-10-1c-2-2-1-5-2-7V2l1-1h3c2 2 4 1 6 0h16c1 1 3 2 5 0h4"/><path fill="#E8D8DD" d="M1 274v-18l1-2v-1l2-1 1-1 2-1h2l4 6c1 2-2 4-1 7v2l-1 4v4c-2 2 2 5-1 7H8l1 1-1 2-3 2-4-2v-2c2-2 1-4 0-7"/><path fill="#EADBDF" d="M91 301h-2c-2-2-4-2-7-1-2 0-4 0-6-3 0-3 4-1 5-4 2-3 5-2 8-3a10 10 0 0 1 2 0h15c2 2 5 1 8 2 1 4-3 4-5 7l-2 2H91M1 222v-2c2-1 0-3 1-5h1l-2-1v-20l4-3 3-2c3 1 3 4 3 6l1 12c-1 2-1 5-3 6l-1 1h2v7c-2 2-4 3-7 3l-2-2"/><path fill="#F0DFE2" d="M282 301h-2c-2-2-3-3-6-2-1-2 0-4 1-7 3-2 5-1 8-1 6 0 7-1 7-6l1-6 1-1c2-2 4-4 7-3 2 5 1 11 1 17l-1 1c-5 0-6 4-6 8h-2c-3-2-6-1-9 0"/><path fill="#EADBDF" d="M1 91v-2l1-1 2-2 2-1 1-1h2c2 3 4 7 4 10a5 5 0 0 1 0 2l-1 1v2c-1 2-2 4-1 6v4l-1 2-4 3c-3-1-4-2-5-4V91m42 210H27c-1-1-1-3-3-2-1-3 2-4 3-7 2-2 3-3 6-2h4c5 0 10-1 14 4l1 1-1 2-2 1-1 1-5 2M260 1h13c2 2 5 0 6 4l-1 2v3l-3 1-3 1a7 7 0 0 1-2 0h-10c-1-1-1-2-2-1-3 1-4 0-6-2l1-4 7-4"/><path fill="#E8D8DD" d="M301 44v2l-2 1-1 1-2 2h-3l-1-1 1-2-1 1c-3-3-1-6-2-9l1-3v-1a8 8 0 0 0-1-2 7 7 0 0 1 0-1v-2l1-2v-5l4-2h2c3 2 3 6 3 9l1 14M98 1h1l6 1 3 1h1l1 2-1 1 1-1 2 2-1 2-5 3h-2l-4-1-4 2h-1c-2-2-3-1-5-2-3 0-5 0-8-2l-1-2 3-3 6-2c3 0 5 1 8-1m104 300h-9l-2-3c0-3 2-4 3-6l1-1 1-1h15c1 3 4 0 7 2l1 4v1l-1 1-5 2-3 1h-8M1 36v-8l2-2 3-2h1a8 8 0 0 1 4 6v15l-1 1H9l1 1v3H8l1 1 1 2-3 2H5c0-3-3-4-2-7 1-1 1-2 2-1H3c-3-1 0-4-1-6l-1-5M43 1h2l3 2v2l-1 1 1-1 1-1c2-3 4 0 6 0 1 2 0 3-1 3l-1 2c-3 2-6 2-9 2l-1 1h-3l-1-1-2 1h-1l-1 1-8-2-2-3c0-3 2-5 4-6l14-1m232 291c2 2-1 4-1 7l-3 2h-2v-1l-1 1h-2c-2-2-4-1-6-1-3 0-7 0-10-2v-2l1-3 6-3h8l8 1 2 1"/><path fill="#EED2D9" d="M132 3c2 2 1 4 2 7l-2 4-2 2-2 2h-2c-1-4-3-8-8-7l-1-1 1-3V6l1-1 1-1c2-2 4-2 7-3h6v1l-1 1"/><path fill="#F6EAEB" d="M6 192c-1 2-2 2-5 2v-16c1-2 4-1 5-2 3-1 6-3 7-6 3-2 5-2 7-1 2 4-1 5-3 7-4 2-6 4-7 8l-1 3-1 1c-1 1-3 1-2 4"/><path fill="#EED2D9" d="M1 8c0-7 0-7 8-7 1 2 3 1 5 2l1 1v2l-2 2-1 2h-1l-1 1c1 2 0 2-1 3l-3 3H3L1 8"/><path fill="#F2EDEC" d="m6 55 3-2c3 0 2 2 2 4l1 6c0 2 0 3-2 3-3-3-6-1-9 1V40h1l2 7c-1 3 2 5 2 8l-1 1 1-1"/><path fill="#EED2D9" d="M14 170c-1 5-5 8-13 8v-9c4-1 5-4 8-6 3 1 2 5 5 7"/><path fill="#F0DFE2" d="M301 169v8c-3 3 0 7-2 11-1 3-3 4-5 6-3 0-4-1-4-3l1-11v-2a6 6 0 0 1 0-1l1-1h1l2-1c4 0 2-3 4-5l2-1M108 299c0-4 5-3 6-7 2-2 5-1 9-1h1c3 2 2 5 2 7-2 3-5 2-7 3h-9l-2-2"/><path fill="#F2EDEC" d="M249 297c5 1 9 3 13 2 1 0 3-1 4 2h-31l6-8 1-1a8 8 0 0 1 2-1l5 1 1 2-1 1-1 1v1c1 0 0 0 0 0h1M260 1c-1 3-4 2-6 4h-1l-1 1h-5c-3 0-4 2-5 5-1 2-2 3-5 2l-1-2 2-6 1-1h-1c-2 0-2-1-1-3h23"/><path fill="#EED2D9" d="M237 1c0 1 0 2 2 3-2 1 0 4-2 6-1 2-4 1-6 2-3 0-5-1-7-3l1-5 1-1 5-2h6"/><path fill="#F0DFE2" d="M28 292c0 3-3 4-4 7l-3 2h-2l-1-2 1-1-1 1-2 1-2 1h-2l-1-2v-5l1-3c4-1 9 1 13-1l3 2"/><path fill="#EED2D9" d="M292 1h2c7 0 7 0 7 8l-3 3-2 1-2 1h-1l-1-1v-2l-2-2c-1-2 0-4 1-7l1-1"/><path fill="#F8F1F0" d="M90 2a101 101 0 0 1-5 3c-1-1-2 0-3 1l-1 1-1 2-1 1h-6l-1-2 2-2h1-1l-1 1h-1c-2-2-3-3-2-6h20v1"/><path fill="#EED2D9" d="M11 294v1s-2 2 1 2v1l-2 3H9c-8 0-8 0-8-9l2-1c3 0 6-1 8 3"/><path fill="#F0DFE2" d="M162 301h-5v-2c0-3-3-5 0-7h2c4 0 6-2 10-1v8l-3 2h-4"/><path fill="#EED2D9" d="M301 232v6l-2 1-4 2c-3-1-5-3-5-6l1-3 1-3h1l1-1 1 1c0 1 0 0 0 0l1-1h2c2 0 2 2 3 4"/><path fill="#EADBDF" d="M5 252H4c-2-1-3-2-2-5l1-2c-2-2-1-4-2-7v-1l2-1c2 1 5 2 8 1 1 2 0 4-1 5l-3 1h2c2 2 2 4 0 7l-2 1-2 1"/><path fill="#F8F1F0" d="M298 48c1-2 1-2 3-2v19c-3 0-5-2-8 0l-5 1-1-2 3-3 3-1 1-2c3-2 3-5 3-8v-1l1-1"/><path fill="#F2EDEC" d="m1 222 2 1h1l1 1 4-1c2 3 4 5 8 5 1 0 3 0 3 2l-1 2-3 2-1-1v-1h-1l-3 1c-3-1-5-4-8-2H1v-9"/><path fill="#EED2D9" d="m292 64 2-1c3-2 5-1 7 2v6c-1 2-3 2-6 3h-1l-3-3c0-3-1-4 1-7"/><path fill="#E9E2E4" d="m53 7 2-2c3-4 7-3 11-4h1c1 3-3 5 0 8l-1 2h-4c-3-1-7 1-10-1V8l1-1"/><path fill="#EED2D9" d="M1 67c1-3 4-3 7-4 2 0 1 1 1 3l2 4v2l-6 3-4-3v-5"/><path fill="#F0DFE2" d="M137 301h-2c-1 0 0-3-2-2-2-2-2-4-1-6 4-2 8-2 12-2h2c1 3-3 5-1 8l-1 1c-3 0-5-1-7 1"/><path fill="#EED2D9" d="M133 293v6l-3 2h-2l-1-1h-1l-1-1v-7c0-2 2-3 4-4h1c2 1 3 2 3 5m35 6 1-7v-1l1-1h2c4 1 5 4 6 7l-2 4h-8v-2"/><path fill="#F0DFE2" d="M4 74c3 1 4-2 6-3 3 4 2 8-1 13H7l-1 1-1 1H3l-2-2v-2c2-1 0-4 2-5l1-3"/><path fill="#F8F1F0" d="m16 6-1-2c-2-1-5 1-6-3h20v1c0 3-3 4-4 6l-1 3h-3c-1-3 2-4 3-6h-3l-1-1c-1 0 0 0 0 0h-1 1c0 2-1 3-2 3l-2-1"/><path fill="#F2F5F4" d="M301 232c-3 0-2-3-4-4v-4l-2-5a6 6 0 0 1 0-1c2-2 1-5 4-7l2 1v20"/><path fill="#F8F1F0" d="m295 73 6-2v19l-2 1c-2-1-3-2-3-5l1-3v-5l-1-1v-1l1-1c-2 1-2 0-2-2M127 1l-7 4h-1c0-1 0 0 0 0h-5c0 2-1 2-3 2 0-1 0-2-2-1V4c-1 0-2 0-3-2V1h21m170 10 4-2a444 444 0 0 1-2 21c-1-3 0-6-2-9V11"/><path fill="#EED2D9" d="M169 10c0-2-1-5 1-8V1h6l1 2c0 2 3 5 0 7s-5 2-8 0"/><path fill="#FBF6F4" d="M298 238h3v18l-2 1c-3-2 0-6-4-8-1-2 0-3 1-4l2-7"/><path fill="#EED2D9" d="m293 301-1-3c-1-5 1-6 7-5l1 1c0 3 1 6-3 7h-4"/><path fill="#F8F1F0" d="M66 1 55 5c-2-1-4-3-7 0 0-2-3-2-3-4h21"/><path fill="#EED2D9" d="M68 10c-6-3-3-6-1-9h3l2 6v2l-1 1h-4"/><path fill="#F8F1F0" d="M76 297c3 3 7 1 11 2 1 0 2 0 2 2H71v-2c2-2 3-3 5-2"/><path fill="#F2F5F4" d="M231 1c0 3-3 2-5 3h-1l-11-1c-2 0-2 0-2-2h19"/><path fill="#F8F1F0" d="M4 17h2l-1 5v1l-1 2-1 1c0 1 0 2-2 2V8c1 3 3 5 3 9"/><path fill="#E8D8DD" d="M243 293c-3 2-4 6-8 8h-5l-1-2c1-2 2-2 3-2 3 0 3-1 2-4 0-2 1-2 2-3 3 1 5 1 7 3"/><path fill="#F8F1F0" d="M176 3V1h19l-6 4h-7c-2 0-4 0-6-2"/><path fill="#EADBDF" d="M224 301h-6v-3l1-1 5-5c2-1 3 0 4 1l1 2-1 2-4 4"/><path fill="#F0DFE2" d="m5 113 4-2c2 1 2 2 1 4l-1 3a8 8 0 0 1-1 1l-3 2c-2 0-3-1-4-3v-2l1-1 1-1 2-1"/><path fill="#FBF6F4" d="M299 294v-1l-1-18 1-2 2 2v19h-2m-1-106 1-6c-1-2-1-4 2-5v18l-2 1c-2-3-1-5-1-8M176 301l1-3 12-1 2 1c1 0 2 1 2 3h-17m125-193v18h-3l-1-10v-2l1-2 1-4h2"/><path fill="#E8EBE9" d="M301 108h-1l-2-1c-1-6-1-11 1-17h2v18"/><path fill="#F0DFE2" d="M71 299v2h-8c-1-2-4 1-5-3l2-4h2c3 1 5 5 9 5"/><path fill="#F8F1F0" d="M1 238c2 1 1 5 3 7l-1 2c-1 2 0 3 1 5l-1 1v1c0 1 0 2-2 2v-18"/><path fill="#F2EDEC" d="m301 275-2-2-1-4v-13h3v19m-2-79 2-1v17h-2c-3-5-2-10 0-16"/><path fill="#F8F1F0" d="M280 6c-1-2-3-3-5-3-2 1-2 0-2-2h10v4l-3 1m21 163-1 1c-3 0-2-3-3-5a8 8 0 0 1-1-1l1-3a25 25 0 0 0 2-3l2-1v12"/><path fill="#F6EAEB" d="m301 157-2 1c-2-5-2-9-1-14h3v13M143 300l2-1c4-3 8-2 13 0l-1 2h-14v-1"/><path fill="#F2EDEC" d="M299 30h2v14c-2 0-2-1-2-3V30"/><path fill="#E8EBE9" d="M29 2V1h14c-1 3-4 2-6 2s-5 1-8-1"/><path fill="#FBF6F4" d="M59 298c0 2 1 2 3 1 1-1 1 1 1 2H50l-1-2c2-3 4 0 6-1h4m242-154h-3v-1l-1-2 1-7a6 6 0 0 1 0-1l3-1v12"/><path fill="#F6EAEB" d="M1 135c3 4 4 8 0 12v-12"/><path fill="#F2F5F4" d="M4 76c-2 2 1 5-3 6V72l3 2v2"/><path fill="#F2EDEC" d="M271 301c0-1 1-2 3-2 2-1 5-2 6 2h-9m11 0c3-3 7-3 9 0h-9"/><path fill="#F8F1F0" d="M292 1v1c-1 2-2 4-5 4h-1c-1-2-2-3-1-5h7m-74 297v3h-6l1-2c1-1 2-3 5-1"/><path fill="#F0DFE2" d="M299 294h2v4c1 4-1 3-3 3 0-2 2-4 1-7"/><path fill="#F6EAEB" d="m285 1 1 5c-1 1-2 2-4 1V5l1-4h2"/><path fill="#F8F1F0" d="M224 301c0-2 1-3 3-4h3v4h-6M5 113l-1 1-2 2H1v-6c2 0 2 2 4 3M1 274c2 3 3 6 0 7v-7"/><path fill="#F0DFE2" d="m301 132-2 1c-2-2-2-4 0-7h2v6"/><path fill="#F8F1F0" d="M21 301c0-1 1-2 3-2 1 0 3-1 3 2h-6"/><path fill="#F2EDEC" d="M90 2V1h8c-2 3-5 2-8 1"/><path fill="#F8F1F0" d="M142 1c-2 3-4 4-6 0h6"/><path fill="#F2EDEC" d="M1 214h3c-3 1 1 5-3 6v-6"/><path fill="#F8F1F0" d="M163 1c0 1 0 3-1 2-2 0-4 2-4-2h5M1 118l4 2 1 1v1l-1 1H3l-2-1v-4"/><path fill="#F0DFE2" d="M1 231h2c2 2 1 3 0 6H1v-6"/><path fill="#F8F1F0" d="M143 300v1h-6c1-5 3-2 6-1"/><path fill="#FBF6F4" d="M119 301c1-3 4-1 6-2v2h-6"/><path fill="#F2EDEC" d="M106 1v1c-2 1-5 1-7-1h7"/><path fill="#F8F1F0" d="M19 298v3h-5c0-1 0-2 2-2l2-1h1"/><path fill="#F2EDEC" d="M202 1c-1 3-3 2-5 0h5m-6 300c1-3 3-2 5 0h-5"/><path fill="#F8F1F0" d="m130 301 3-2c2-1 2 0 2 2h-5"/><path fill="#F2EDEC" d="M202 301c2-3 4-1 6 0h-6"/><path fill="#FBF6F4" d="m43 301 5-3v3h-5"/><path fill="#F8F1F0" d="M4 292H1v-4h1c2 1 3 2 2 4"/><path fill="#E9E2E4" d="M2 40H1v-4c2 0 2 2 1 4"/><path fill="#F2F5F4" d="m1 84 2 1v1l-1 3H1v-5"/><path fill="#F6EAEB" d="M4 123h1l-2 2-2-1v-2h2l1 1"/><path fill="#F8F1F0" d="m1 283 3 1-1 1H1v-2"/><path fill="#FBF6F4" d="M108 299c1 0 2 0 2 2h-3l1-2"/><path fill="#E8D8DD" d="M1 285h2v3H1v-3"/><path fill="#E9E2E4" d="M48 301v-3h2v3h-2"/><path fill="#F8F1F0" d="M10 301c0-1 0-2 2-3v3h-2"/><path fill="#F0DFE2" d="M174 1c0 1 0 2-2 2V1h2"/><path fill="#F2EDEC" d="m213 299-1 2h-2c0-1 1-2 3-2"/><path fill="#F8F1F0" d="m167 1-1 2-1-2h2m53 300 1-2 1 2h-2m-52-2v2h-2c0-1 0-2 2-2"/><path fill="#F6EAEB" d="m1 149 1 1-1 1v-2"/><path fill="#F8F1F0" d="m162 301 1-1 1 1h-2"/><path fill="#FBF6F4" d="m115 301 1-1 1 1h-2"/><path fill="#F8F1F0" d="m1 124 2 1-2 1v-2"/><path fill="#F0DFE2" d="M126 300c1 0 2-1 2 1h-2v-1"/><path fill="#F2EDEC" d="M268 301v-1l1 1h-1"/><path fill="#F2F5F4" d="M1 91v1-1"/><path fill="#EED2D9" d="M126 300v1h-1v-1h1z"/><path fill="#F8F1F0" d="M145 1h-1 1m25 0v1l-1-1h1M91 301h1-1"/><path fill="#F6EAEB" d="M1 174v1-1m0-21v1-1m0-20v1-1"/><path fill="#F2EDEC" d="M1 210v1-1"/><path fill="#E9E2E4" d="M28 157v-12l1-1 1-1c3 0 6-1 9 1 2 1 4-1 7-1l1 1v14l-2 2h-2l-8-1c-2 0-4 0-7-2"/><path fill="#FBF6F4" d="M8 141v-2c2-1 1-5 4-6l2-1 1-1h5c3 1 6 0 8 3l1 10H9l-1-2v-1m6 29c-4 0-4-4-5-7 1-5 3-6 8-4 3 1 6-1 10-2 2 3 1 7 2 11-2 3-5 3-8 2h-7"/><path fill="#EDF0EE" d="M28 168c-2-3-1-7-1-11h1l11 1c2 0 3-1 4 2-1 3-1 3-4 3 2 2 5 0 7 2v4c-6 1-12 2-18-1"/><path fill="#EED2D9" d="M4 161v-2h2c0 1 0 2-2 2m-1 1v1-1"/><path fill="#EDF0EE" d="M28 144h1l-1 1v-1"/><path fill="#EED2D9" d="m4 161-1 1 1-1"/><path fill="#FDFBF0" d="M9 116v-5l1-2c2-2 4-2 6-2a69 69 0 0 1 5 0c7 0 9 3 8 10 0 2-1 4 1 7 0 3-3 3-5 4l-7-2c-3-1-8 1-10-5a2 2 0 0 0 0-1l-1-1 1-1 1-2"/><path fill="#F6EAEB" d="M18 126c2 1 4-2 6 1v2l-1 1-4 2c-1-1-2 2-4 0v-2l2-1 1-2v-1M8 141v1l-2 1-1-1 3-1m0-22v2a41 41 0 0 1-2 1v-1c0-1 0-2 2-2"/><path fill="#E8D8DD" d="m17 129-2 1 2-1m-2 1v2h-1l1-2"/><path fill="#F6EAEB" d="M6 159H4h2"/><path fill="#E8D8DD" d="m18 127-1 2 1-2m-4 5-2 1 2-1"/><path fill="#E8EBE9" d="M194 11h15c1 3-1 4-3 5 2 1 5 1 2 5l-1 1a101 101 0 0 0-2 2l-1 1 1-1a188 188 0 0 0 3-2c3 2 6 3 4 7l-6 1-1-2 1-2-1 3c-2 2-4 2-6 2-3-1-4 0-4 4l-1 2-1 3a10 10 0 0 1 0 1c-3 4-5 10-11 4-1 2-3 2-5 1l-1-3 3-2 5-4-5 4-2 1c-2-1-2-2-2-4v-3l1-6c3-3 7-1 10-1l1 1c1-1 2-2 3-1v2l1-1v1-1l1-2 2-16"/><path fill="#F4FAF6" d="M207 22c3-3 1-5-2-5l4-6c2-1 5 1 8-1h5l2-1 7 2c2 5 0 10 1 15l-1 2c-3 2-5 1-7 1l-2 1h-3l-7-1c0-3-3-4-5-7"/><path fill="#FDFBF0" d="M187 29h-11c-2-2-1-4-2-6v-7c1-6 2-7 8-7l4 1c2 0 5-1 8 1 0 6 1 11-2 17h-2l-3 1"/><path fill="#F0DFE2" d="M184 10c-8 0-8-1-9 12l-1 1h-2v2c0 1 0 2-2 2-5-3-2-7-2-11-1-1 0-3 1-6 7 1 7 0 7-7 3 2 6 0 9 0 1 0 4-1 4 2l-1 1-1 1v1l-1 1-2 1"/><path fill="#F2F5F4" d="M223 10c0 2-2 2-3 0l2-1 1 1"/><path fill="#FDFBF0" d="M201 11c-1 0-2 3-3 0h3"/><path fill="#F8F1F0" d="m184 10 2-1v1h-2"/><path fill="#EED2D9" d="m223 10-1-1h2l-1 1"/><path fill="#F2F5F4" d="M219 10h-2 2"/><path fill="#F8F1F0" d="m187 7 1-1-1 1m1-1 1-1-1 1m-1 2V7c-1 0 0 0 0 0v1"/><path fill="#F6EAEB" d="M146 10h1c1-2 3-3 5 0h6c2 5 1 11 1 17-5 4-9 2-14 1l-2-1c-1-5-1-11 2-16l1-1"/><path fill="#FBF6F4" d="M145 11c-1 5-2 10-1 16v2l-1 1c-4-1-6 1-9 2-3-2-4-5-3-8V14l3-4c3-1 7 0 11 1m13 16V10h10c2 4 0 7 1 11l1 5c0 1 0 2-2 3h-7c-1 0-2 0-3-2"/><path fill="#EED2D9" d="M152 10c-2 0-3-2-5 0 0-2 1-3 3-4 2 0 2 2 2 4m-4-7c1 0 0 0 0 0"/><path fill="#F8F1F0" d="m132 3 1-1-1 1"/><path fill="#EED2D9" d="M145 9c-1 0 0 0 0 0"/><path fill="#FBF6F4" d="m146 10-1 1 1-1"/><path fill="#F4FAF6" d="M9 250c1-2 1-4-1-7v-1c3 0 2-3 3-5l2-1a19 19 0 0 0 2 0h4l12 3c-4 5-2 10-2 16l-2 2-6 1-4 2a235 235 0 0 1-3 3h-3c-1-2-1-5 2-6-5-1-4-4-4-7"/><path fill="#FDFBF0" d="M26 291c-4 2-9 1-14 1-3 1-3-1-4-3v-9c3-1 2-3 2-4-1-1-2-2 0-3l1-1 4 1 1-1h2c12 0 13 5 10 16l-2 3"/><path fill="#EADBDF" d="M8 283c1 3 0 7 4 9l-1 2c-2-2-4-2-7-2l-2-4 1-3 1-1 4-1"/><path fill="#E8EBE9" d="M12 273h-2v-5l1-1h2c2 2 2 4-1 6"/><path fill="#E9E2E4" d="M13 267h-2v-4l3-1 1 2-2 3"/><path fill="#F4FAF6" d="M11 266v1l-1 1c-1-1-1-2 1-2"/><path fill="#F8F1F0" d="M6 280h2zm-1-5v-1 1m0-23 2-1-2 1m1 28v1-1"/><path fill="#EADBDF" d="M3 254v-1 1m0-1 1-1-1 1"/><path fill="#F4FAF6" d="M90 291c-2 2-6 0-8 3-3 1-6-1-9-1l-3-4v-2l1-3-1-2a5 5 0 0 1-1-1c1-3-1-6 3-8h8l3-1 2-4c3-1 5-1 4 3l2 6v2l1 4-2 8"/><path fill="#FDFBF0" d="M124 292h-10c-3 0-5 2-8-1v-16l4-4h3c3 3 7 2 11 1 2 0 2 2 3 4v2l-1 3c-2 3 0 7-2 11"/><path fill="#E8EBE9" d="m111 272-4 3-1 1v1l-2 2-3 4-2 2a8 8 0 0 1-1 0 6 6 0 0 1-1 1h-2l1 2-1 1-3 2h-2c-1-3-2-5 1-8l2-3 1-1 1-1 1-2 1-1 2-1c6-1 6-6 10-9l2-2v-1l2-2 1-1a9 9 0 0 1 1-1l3-3 7 1c1 1 0 2-1 3l-2 2-1 2-3 2-1 1-1 2-5 4"/><path fill="#F2F5F4" d="m100 283 4-5 2-1h1c0 4 1 9-1 14H92l3-3 1-1v-1l2-1 2-2"/><path fill="#F0DFE2" d="m73 292 9 2c-1 4-4 1-6 3l-4 2c-2-1-2-3-2-5 1-1 1-2 3-2"/><path fill="#F8F1F0" d="M88 294v1-1"/><path fill="#E8EBE9" d="m11 208-1-13c4-4 8-2 13 0v1l-2 4a30 30 0 0 1-2 2 4 4 0 0 0-1 1h1v-1h1s1 0 0 0v-1l3-2 2-2h1c0-1 0 0 0 0-1 0 0 0 0 0h-2v-1l1-2c1 0 2-1 1-2 0-2 0-5 2-7 2-1 3 0 4 1l1 1v-3c1 0 1 0 0 0-1-1-3 0-4 1-3-1-3-4 0-7l1-1 3-1 9 1v2l1-1c5 3 4 3 1 6l-7 8v1a37 37 0 0 1-3 3c-5 0-4 4-5 7l-2 1 2 1v6c-5 4-12 4-18 1v-4"/><path fill="#FDFBF0" d="M23 196c-4-3-8-1-13-1-1-1 0-3-2-5v-3l1-2c0-4 1-8 7-9 5-1 9-2 14 2-3 2-3 4-1 7l-2 8-1 2-2 1h-1"/><path fill="#F4FAF6" d="M12 211c0 3 3 1 5 2 3 0 7 0 11-2l1 2c0 2-2 4 0 6l-1 2c1 3-1 5 1 8 0 2-1 2-3 3h-1l-4-1c-1-3-5-3-6-2-4 1-5-2-6-6v-2c1-2-1-4 1-7 0-1 0-2 2-3"/><path fill="#E8D8DD" d="M8 187v3l-2 2c-1 0-3 0-2-1 0-2 1-3 4-4m1 34v2c-2 0-2 3-5 2l-1-1v-1c2-1 4 0 6-2"/><path fill="#F2EDEC" d="m12 211-2 3H8l3-6 1 3m-4 3z"/><path fill="#FDFBF0" d="M275 292h-2l-1-10v-3l2-5 5-2a9 9 0 0 1 1 0h10c4 0 3 3 3 6l-1 1c-2 2-1 5 0 7 0 5-2 7-8 6h-9"/><path fill="#E8D8DD" d="m293 278-3-6v-1l-1-4 1-1v-6l1-3v-1c1-2 3-4 3-7 6 0 4 4 4 7 3 5 1 11 1 17l-1 2-5 3m-14 16h-1 1m13-15 1-1-1 1"/><path fill="#F4FAF6" d="m9 84 1-13h1l8-1 2-1h1l5 1 2 2c1 5-2 10 0 16 0 2 0 3-3 3-1 2-2 3-5 3l-2-1 1 2v1c0 2-2 3-4 2l-4-2c0-4-3-7-3-12"/><path fill="#F8F1F0" d="m17 108-7 1v-4h1v-2l3-2h4c1 3 1 4-1 7"/><path fill="#E8EBE9" d="m17 101-3 1c1-2-2-2-2-4h-1l1-2c2-1 3-1 5 1 1 1 2 0 3-1 2 3 2 4-3 5"/><path fill="#F4FAF6" d="M12 98c1 1 3 2 2 4l-2 2-1 1h-1c-1-2-1-5 2-7"/><path fill="#F0DFE2" d="m2 89 1-3h2c0 2-1 3-3 3"/><path fill="#F4FAF6" d="m12 96-1 2-1-1 2-1"/><path fill="#F0DFE2" d="m6 85-1 1v-1h1m1-1-1 1 1-1"/><path fill="#F4FAF6" d="M52 294c-5-3-11-2-16-3l-1-1 1-2 1-2c3-3 6-4 7-8l1-4 2-2h7a9 9 0 0 1 2 0l4 1 4 3 1 4 1 1-1 2v1l-1 6v1l-4 1c-2 2-4 2-6 1l-2 1"/><path fill="#E9E2E4" d="M53 292h7l1 2-5 5c-2 0-4 1-6-1v-1l1-1 1-2 1-2"/><path fill="#F2F5F4" d="M36 289v2h-2c-2 2-4-2-6 1l-2-1 1-3c2-2 5 0 7 0l2 1"/><path fill="#F8F1F0" d="m52 294-1 2v-2h1m-2 3v1h-2l2-1"/><path fill="#F4FAF6" d="M34 291h2-2"/><path fill="#FDFBF0" d="M293 12v5a10 10 0 0 1 0 2l-2 4 1 6-1 1h-4c-3 0-5-2-8 1h-2l-2-2c-3-2-5-3-3-7 1-1 0-3-1-4-1-3 1-5 3-8h4a48 48 0 0 0 7-2h2a15 15 0 0 0 2 0l2 1 2 2v1"/><path fill="#F4FAF6" d="M237 13c2 0 3-1 4-3s2-1 4-2l5 1c2 2 2-1 3 0s2 2 5 1c1 1-1 5 3 5-3 5-4 10-8 14a8 8 0 0 1-2 0c-3 0-5-2-7-1l-4 1-2 1-3-2c2-3 2-6 1-9l1-6"/><path fill="#E8EBE9" d="M252 28c2 0 3-2 3-4 1-4 3-6 6-9l1-2 4-2h1v1c0 1 0 0 0 0h2c3 2 2 4 1 6l-1 1-2 2-2 1-2 3-1 1-1 2-2 1-4 2h-2l-1-1v-2"/><path fill="#F8F1F0" d="M286 9c-2 1-5 3-8 1l-1-2c0-1 0-2 2-2l3 1 4-1v3"/><path fill="#F2F5F4" d="M268 19c0-2 4-4 1-7l2-1a16 16 0 0 1 3-1c1 3-3 4-2 8 0 2-2 2-4 1"/><path fill="#E8EBE9" d="M261 15c-2-1-3 3-4 1-2-3 1-4 1-6 1-1 1 1 2 1l2 1v2l-1 1z"/><path fill="#F2EDEC" d="m253 9-2 1c-2-2 0-3 2-5h1l-1 4"/><path fill="#F4FAF6" d="M262 14v-2c1 0 2-2 4-1l-4 3m7-2h-2v-1h3l-1 1m-7 0-2-1c1-1 2-1 2 1"/><path fill="#E8EBE9" d="m269 12 1-1h1l-2 1"/><path fill="#F4FAF6" d="m292 62-4 2c-2 3-5 1-8 2-2 0-3 2-4 0v-1h-1l-2-1-1-17 2-2 6-1h2-1v-2l3-1 1-1h1l2-2h1c3 3 1 6 4 9v3l-1 1v2l1 2 1 2-1 1v2l-1 2"/><path fill="#EADBDF" d="M292 19v-2l1-2 1-1 1-1 2-2 1 8-1 2h-2l-3-2"/><path fill="#F8F1F0" d="M292 19c1 0 2 0 3 2l-4 2 1-4"/><path fill="#F2F5F4" d="M290 30h1v1l-1 1v1c-2 1-3-1-4-2 0-1 0-2 2-2h1l1 1"/><path fill="#F4FAF6" d="m291 33 1 1-1 1-1 2h-2c-1-2 0-3 2-4h1"/><path fill="#F4FAF6" d="M292 35c0 1 0 2-2 3v-2l1-1h1"/><path fill="#F8F1F0" d="m293 50 3-1c0 2 0 2-2 3l-1-1v-1"/><path fill="#E8EBE9" d="M291 33h-1l1-2v2"/><path fill="#F8F1F0" d="m296 49 1-1-1 1m1-1 1-1v1h-1m-4 0v-1 1"/><path fill="#E8EBE9" d="m291 30 1-1-1 1"/><path fill="#E9E2E4" d="M292 35h-1l1-1v1"/><path fill="#F4FAF6" d="M73 9c1 2 2 0 4 0h3l1-1 1 1c3 1 7 2 10 1 2 0 4-1 3 3l4-3c2 2-2 4 0 6l-1 2-2 1-5 1-1 1h1l1 1c1-1 2-2 4-1 2 4-1 5-4 7l-3 1-11 1c-2-1-4 0-6 1-2 0-2-1-3-3l1-1c0-1 0 0 0 0-2 2-3 1-5 0v-1l-1-1 1-2c2-1 4-2 4-6v-6l2-2h2"/><path fill="#FDFBF0" d="m117 9 2 1c7 1 7 1 7 8l1 8c0 2-2 3-4 3l-11 1c-4 1-6-1-6-5v-8l-1-5v-1c1-2 3-1 5-2h7"/><path fill="#EADBDF" d="M117 9h-7l1-2 3-3h6v1l-1 2-2 2"/><path fill="#E8EBE9" d="M98 17c-3-3 0-4 1-7l5 1v2a7 7 0 0 1 0 1 8 8 0 0 1-2 2 188 188 0 0 0-2 1h-2"/><path fill="#E2DCDE" d="M81 7c1-2 1-4 4-2l-3 2h-1"/><path fill="#F4FAF6" d="m103 14 1-3h2c0 2-1 3-3 3"/><path fill="#F8F1F0" d="M81 7h1v2h-2c-1-1 0-1 1-2zm27 0 1-1-1 1m0 0"/><path fill="#F4FAF6" d="M229 294c-3 0-3-2-5-2-1 1-3 2-6 1l-3-1c-2 2-3 0-5-2-1-2 0-2 1-3v-1h-1v-7c-1-2 0-3 1-4l3-2h14c4 0 7 1 4 5v8l-1 2v3l-2 3"/><path fill="#E8EBE9" d="M210 279c3 2 2 4 0 7l-2 3-2 2c-2 2-4 1-7 0l-2-1-1 1-2-1c-2-2-2-4-1-6 1-3 0-6-1-9v-2l2-1c3-1 6 1 9 1l1 1v-1c3 0 4 0 5 2l1 4"/><path fill="#F0DFE2" d="M190 298c-4 1-8 3-13 0-1-3-1-7-6-7l-1-1v-1l1-1a7 7 0 0 0 1-1h-1l1-1v-1l2-1 2 1c1 5 5 6 10 6h7l2 1c0 3-3 4-4 6h-1"/><path fill="#F8F1F0" d="M218 293c2-2 3-1 6-1 0 3-2 4-5 5-1-1-2-2-1-4"/><path fill="#F4FAF6" d="M197 290c1-1 2-1 2 1h-2v-1m-2 2h-2c-1-1 0-1 1-2h2v1l-1 1m11-1c0-1 0-2 2-3v1l-2 2m4-1-1 1-1-1h2"/><path fill="#E9E2E4" d="M196 291v-1h1v1h-1"/><path fill="#F8F1F0" d="m219 297-1 1 1-1"/><path fill="#FDFBF0" d="M21 10h2l2-1 2 2c3-1 6-1 9 1v3l-2 1a13 13 0 0 0-1 2 27 27 0 0 1-3 3l-1 1-2 6-3 1-3 1a5 5 0 0 1-1-1c-4-2-6 0-10 1l-3-6v-5l1-2v-3l2-3v-1h1l1-1 2-1h2l1 1 1-1 3 2"/><path fill="#F4FAF6" d="M11 64c-2-3-1-7-2-11v-3l1-3 2-2h3l9-1c2 0 3-1 4 1l1 2c1 5-2 10 0 16 0 2-1 2-3 3-5 0-10 0-15-2"/><path fill="#E8EBE9" d="M10 30c3-3 6-5 10-1l-1 2-1 2v2l-3 3h-5v-5a60 60 0 0 0 0-2v-1"/><path fill="#F2F5F4" d="m13 46-3 1a7 7 0 0 1-1-1l1-1v-3c0-2 2-3 4-3 3 2 3 3 0 6l-1 1"/><path fill="#E9E2E4" d="m15 39-5 3v-4h5v1"/><path fill="#F8F1F0" d="M5 24c1 1 0 2-2 2v-1l1-1h1"/><path fill="#FDFBF0" d="M10 31v2-2"/><path fill="#E9E2E4" d="m10 43 1 1-1 1v-2"/><path fill="#F2EDEC" d="m4 47 1-1v1a6 6 0 0 1-1 0m5 3v1H8l1-1"/><path fill="#F8F1F0" d="M7 24H6h1"/><path fill="#E8EBE9" d="m26 28 2-7 1-1 3-1 1-3h1l2-1 2-2 4-2h1l3 1v3l-1 2-8 9-2-1-1 1a3 3 0 0 1 0 1h-1a21 21 0 0 0-3 2l-2 1-2-2"/><path fill="#F8F1F0" d="m45 12-2-1c2-2 6 0 9-3v2c0 5-4 2-7 2"/><path fill="#E9E2E4" d="m38 14-1 1h-2l1-3 1-1 1-1 1 1c1 1 0 2-1 3"/><path fill="#F4FAF6" d="m38 14 1-3h3l-4 3"/><path fill="#F8F1F0" d="m27 11-2-1V8c1 0 2 1 2 3m26-4-1 1 1-1m-6-1-1 1 1-1m0 0 1-1-1 1"/><path fill="#FDFBF0" d="m38 10-1 1 1-1m-1 1-1 1 1-1"/><path fill="#F4FAF6" d="M243 293c-2 0-4 1-6-2l-1-2v-4c1-2 0-4-1-6l2-6h12a8 8 0 0 0 2 0l1-1h3l4 3c-2 5-3 10-1 15l-6 4h-1l-2-1-5-1-1 1"/><path fill="#EDF0EE" d="M273 281c2 3 1 7 0 11l-9-1c-1-2 0-3 1-5l3-3 1-1 1-1h3m-11 9-2 1c-1-2 0-2 1-2l1 1"/><path fill="#F2EDEC" d="M250 295v2h-2l1-2h1m1-1h1l-2 1 1-1"/><path fill="#EDF0EE" d="M260 291h-2 2m4 0h-2 2"/><path fill="#EADBDF" d="M123 28c2 0 4 0 2-3-1-2 0-4 1-7h2l1-2 2-2c2 2 2 5 1 6-1 4 1 8 2 12v2l1 2 1 2-1 1-1 2v4c-2 2 0 3-1 5l-2 4-1 1h-2l-3-1-2-11 1-9-1-6"/><path fill="#F8F1F0" d="M117 9c0-1 0-2 2-2l-2 2m2-2 1-2-1 2"/><path fill="#FBF6F4" d="m129 16-1 2 1-2"/><path fill="#EADBDF" d="M30 178c-4-2-9-1-14-2l5-6 7-2c6 2 12 0 18 1 2-1 4 0 5 2 0 3-2 4-3 5-2 2-4 2-6 2-3-1-6 1-10-1h-1l-1 1"/><path fill="#E8D8DD" d="m9 185-1 2 1-2"/><path fill="#F8F1F0" d="M8 14v1c1 1 0 2-2 2 0-1 0-2 2-3m4-4h-1c0-1 0-2 2-2l-1 2m1-2c0-1 0-2 2-2 0 1 0 2-2 2zm-3 2v1H9a5 5 0 0 1 1-1"/><path fill="#E9E2E4" d="M11 64a218 218 0 0 1 19 2c1 2-1 3-3 5l-5-1h-1l-1 1h-9c0-2-2-2-2-5 1 0 2 0 2-2"/><path fill="#E8D8DD" d="M6 55c-1 1-1 2-3 2 0-1 1-2 3-2"/><path fill="#FDFBF0" d="M292 179c-1 5-1 9 1 14l-1 2-7 1h-3c-9 0-10-1-10-11l1-2v-4l1-3h1l4-1h3l1-1h2l2 1 5 2v2"/><path fill="#E8D8DD" d="m291 194 2-1c2-1 4-2 5-5 2 2 1 5 1 8v16c-2 1 0 5-3 6v1l-1 1-1 1-1 1-2-1 1-6 1-1h-1c-1-2-3-4-2-7l1-2a23 23 0 0 0-1-2v-7l1-2"/><path fill="#EED2D9" d="m297 164 3 6-1 3c0 4-2 4-5 3h-2l-2-2-1-2 1-2a7 7 0 0 1 1-1l3-3 1-1 2-1"/><path fill="#F6EAEB" d="m290 172 2 4v1c-2 0-4 1-5-2l-1-3v-1l1-1h2l1 2m3 4h1-1m-1 3v-1l1 1h-1"/><path fill="#F8F1F0" d="M124 292c1-4-3-8 2-12v-2c2-3 4-5 8-6 3 0 5 2 9 1h2c2 1 1 3 2 4l3-2c3-2 5-2 8-1l1 5c-5 5-11 7-14 13l-12 1-3-4 1-1-1 1c-2 0-3 2-5 3h-1"/><path fill="#E8D8DD" d="m247 297-2 3c-1-2 0-3 2-3m1 0h2l-1 1-1-1m1-2-1 2h-1c-1 0 0 0 0 0 0-1 0-2 2-2m2-1-1 1h-1v-2l2 1m-8-1 1-1-1 1"/><path fill="#E9E2E4" d="M237 13c-1 5 2 9-1 14h-5c-2-5-1-10 0-16 1-2 4 0 6-1v3"/><path fill="#EADBDF" d="M253 5c-1 1-2 2-2 5l-6-1c-1-2 0-3 2-4h6"/><path fill="#E2DCDE" d="m247 5-2 4c-1 2-2 0-4 1 1-3 3-5 6-7v2"/><path fill="#EADBDF" d="M254 5h-1V4l1 1m-29-1h1-1M12 297h-2l1-2c1 0 2 0 1 2"/><path fill="#E8D8DD" d="m18 298-2 1 2-1m1 0h-1 1m2-4c1 0 0 0 0 0"/><path fill="#F6EAEB" d="M286 9V6l6-4c1 2-2 4-1 7h-2l-1 1-2-1m7 3v-1l1-1c1 1 0 1-1 2"/><path fill="#F8F1F0" d="M295 13c1 1 0 1-1 1l1-1m-1 1-1 1v-1h1"/><path fill="#E8D8DD" d="M73 9h-2V8l1-1h1v2"/><path fill="#E2DCDE" d="m81 7-1 2h-1c0-1 0-2 2-2"/><path fill="#E8D8DD" d="M74 6h1a4 4 0 0 1-1 0m3-2V3v1"/><path fill="#E2DCDE" d="M79 9h-2 2"/><path fill="#E8D8DD" d="m74 6-1 1 1-1"/><path fill="#FBF6F4" d="M158 280v-7l11 1c2 3 2 7 2 11v1l-2 4v2c-3-1-6 2-10 1-2-2-2-5-3-8l2-5"/><path fill="#EED2D9" d="M158 299h-13c-3-2-3-5 1-7 2-3 5-1 9-1l2 1c-2 2 2 4 1 7"/><path fill="#F8F1F0" d="M157 292h-2c-1-1-2-2-3-1-2 0-3 0-3-2-1-2 0-3 2-4h6l2 8-2-1"/><path fill="#F4FAF6" d="M292 207c-3 2 1 4 1 7l-1 7 2 7-1 1-1 3h-1a9 9 0 0 0-1 1h-2c-5-2-10 0-15-1v-1c-1-6 2-12-1-17v-2c3-1 4-6 8-2l1-1c-1-1 0-2 1-3l3-2c2-2 4-4 6 0v1c-2 1 0 1 1 2"/><path fill="#EADBDF" d="M298 238c3 4-1 7-3 11l-3 1-1-1c0-1 2-1 1-2l-1-2c1-2 0-4 3-5l4-2m-5-10-1-7h2l4 2c1 2 1 3-1 5l-1 1h-2l-1-1"/><path fill="#FBF6F4" d="M294 240c-3 1-1 3-2 5-3-1-2-4-3-6s0-3 2-4c1 1 0 4 3 5"/><path fill="#F6EAEB" d="m291 235-2 3-2-1c-1-3 1-4 3-5h2l-1 3m2-7 1 1h-1v-1"/><path fill="#F2F5F4" d="M295 229h1l-1 1v-1m0 1"/><path fill="#EED2D9" d="M3 237v-6c3-5 5-1 8 1v5H3"/><path fill="#F8F1F0" d="M8 242v1l-1 1c-1-1 0-1 1-2m-4 3c1 1 1 2-1 2l1-2z"/><path fill="#E9E2E4" d="M279 65c3-2 6 0 9-1v2c0 3-3 3-4 5-3 2-6 3-9 0 0-3 3-4 4-6"/><path fill="#EADBDF" d="M297 48h1c-1 4 2 8-3 11h-1l-1-2-2-4 2-2c1 0 2 0 3-2l1-1m-13 23c-1-3 3-3 4-5l4-2v7h-3v-2l-2 1c-1 1-2 3-3 1"/><path fill="#E2DCDE" d="M295 58v1l-2 1c0-1 0-2 2-2m-3 4v-2h1l-1 2"/><path fill="#EADBDF" d="M298 48v-1 1"/><path fill="#F6EAEB" d="M11 237c-2-1-2-3 0-5 1-2 2 0 4 0l1 2 2-2 2-1h4l1 1c0 4-3 4-6 4l-4 1c-1-1-1 0-2 1l-2-1"/><path fill="#E2DCDE" d="M18 232c0 1 0 2-2 2l2-2"/><path fill="#EADBDF" d="m3 224 1 1-1-1"/><path fill="#E8D8DD" d="M3 228v-1 1"/><path fill="#EADBDF" d="M298 82c1 1 1 3-1 4-2 3-2 6-2 10-1 2 0 4-3 5l-2-1v-9a13 13 0 0 1 0-2l1-9c0-2-1-5 3-7h1c0 2 1 1 3 1l-2 3h2v5"/><path fill="#F8F1F0" d="M294 73c-3 2-2 5-2 8-1 1-2 0-3-1l-2-8 1-2 4 1a18 18 0 0 1 2 2"/><path fill="#F4FAF6" d="M45 12c2-1 5 1 7-2h10l3 6 1 5v2l-1 1v2c1 2 0 3-2 4l-18-1-1-2v-3l1-1s0 1 0 0l-4 4c-2 2-3 2-5 1a5 5 0 0 1-1-1l-1-1v-1h1c4-1 5-6 9-8l1-2v-3"/><path fill="#F8F1F0" d="m64 17-2-7 4 1 2 2c-1 3-2 4-4 4m2-6 1-1v1h-1z"/><path fill="#F6EAEB" d="M157 285c-3 1-7 0-8 4 2 1 5-1 6 3h-10c0-4 2-7 6-8 2-1 2-5 7-4l-1 5"/><path fill="#F0DFE2" d="M126 300h-1v-1l1 1"/><path fill="#E8D8DD" d="m169 290 1-3 2-1v2a24 24 0 0 1-2 2h-1"/><path fill="#FBF6F4" d="m170 290 1 1-1-1"/><path fill="#EED2D9" d="M4 76H3c-1-1 0-1 1-2v2"/><path fill="#EADBDF" d="m7 84-1 1H5c0-1 0-2 2-1m-2 1v1H3v-1h2m16-75-4-1V8l3-4h7l-6 6"/><path fill="#E8D8DD" d="m13 8 2-2c1 0 2-1 2 1l-2 2a17 17 0 0 1-3 1l1-2m12 0v2h-2l2-2m-5-4h-1 1m278 219c-1 0-3 1-4-2l1-1 1-1c2 1 0 3 2 4"/><path fill="#EADBDF" d="m296 219-1 1 1-2v1"/><path fill="#E8D8DD" d="M292 101c2-4 1-9 3-14 0-1 0-2 2-1-1 2 1 2 2 4v17c-6 4-8 3-8-4l1-2m5-19 1-1v1h-1M114 4h-1 1"/><path fill="#EADBDF" d="M120 4s0-1 0 0"/><path fill="#E8D8DD" d="m297 21 1-2c1 1 0 1-1 2M67 11v-1l4-1-1 1-2 1h-1"/><path fill="#F8F1F0" d="m72 7-1 1 1-1"/><path fill="#E8D8DD" d="m6 17 2-2 1 2-1 2c-2 2 3 4-1 5H4c-3-3 0-5 2-7"/><path fill="#EED2D9" d="M4 17H3a5 5 0 0 1 1 0"/><path fill="#E8D8DD" d="M3 25v1-1m1-1-1 1 1-1"/><path fill="#EED2D9" d="M230 298v-1l-1-1v-2l2-1 2-1 2 1c1 1 3 2 2 4-2 3-4 1-7 1"/><path fill="#EADBDF" d="M235 293h-2l-1-1c0-3 1-4 4-4 0 1 2 1 1 3-1 0-2 0-2 2"/><path fill="#F8F1F0" d="M230 294v1l-1 1-1-2h2m-3 3 1-1-1 1"/><path fill="#E8D8DD" d="m8 119-2 2-1-1c0-1 1-2 3-2v1m-6-3 2-2c0 1 0 2-2 2m7 0-1 2 1-2m181 182h1v1a4 4 0 0 1-1-1"/><path fill="#F6EAEB" d="M292 102v6l7-1 1 1-1 4-1 2c-2 2-3 4-6 4-2-1-2-3-2-5s-1-3-3-5c-1-2 0-4 1-6h4"/><path fill="#F0DFE2" d="M292 117c2 0 3-3 6-3l1 11c-2 2-4 2-6 2l-2-1c-1-3-2-6 1-9"/><path fill="#EED2D9" d="m292 126 7-1v8c-2 2-5 2-7 0-2-1-2-4 0-7"/><path fill="#F0DFE2" d="m298 114 1-2-1 2"/><path fill="#EED2D9" d="m71 293 1 6c-4 1-8 1-10-5v-3h3l3-1c2 0 3 1 3 3"/><path fill="#E8D8DD" d="M56 299c1-2 1-4 4-5 1 2-1 2-1 4l-3 1m6-6v1h-1l1-1"/><path fill="#EADBDF" d="m4 245-1 2c-1-1-1-2 1-2M282 7c-1 1-2 1-3-1l3-1v2"/><path fill="#F0DFE2" d="m298 161-1 2-1 1h-4v-5c2-2 4-2 7-1v2l-1 1"/><path fill="#F6EAEB" d="M296 163h1v1l-1 1v-2"/><path fill="#E8D8DD" d="m298 161 1-1-1 1"/><path fill="#EED2D9" d="m299 158-6 1-1-1c-2-2 0-4-1-7v-3c1-3 3-5 7-4h1v14"/><path fill="#F0DFE2" d="M298 144c-3 0-6 1-6 5l-1 2c3 2 1 4 1 7l-2-1-3-5c-1-3 2-4 3-7v-4c1-5 0-6-5-7l-3-1 1-4 1-2 4-2 4 1c0 7 0 7 7 7l-1 8v3"/><path fill="#EED2D9" d="M298 143v-2 2"/><path fill="#E8D8DD" d="m227 297 1-1 2-1v2l-2 2h-2l1-2M4 123l-1-1 1 1"/><path fill="#F2EDEC" d="m46 159 1-15 5-1c4 1 8-1 12-2 3 4 1 7 1 11v9l-1 2c-5-3-10-4-16-2l-2-2"/><path fill="#F2F8F7" d="M64 142c-5 3-11 3-17 2h-1l-2-3-1-2 2-6 1-1a8 8 0 0 1 2 0l3-1c5-1 10 0 14 4l1 2v2l-2 3"/><path fill="#EDF0EE" d="m46 133-2 6v2c1 0 2 1 2 3-5 3-11-1-17 0-2-3-2-6-2-10 6-4 12-2 19-1"/><path fill="#F2F8F7" d="M46 159c2 2 4 1 6 0 5-1 9-1 12 4l1 2-5 4c-3 2-5 1-9 2l-5-2-1-4-1-5 2-1"/><path fill="#DBE8EA" d="M44 160c1 1 2 3 1 5h-3c-1 0-3 1-3-1s1-2 2-2l2-2h1"/><path fill="#E8D8DD" d="m46 133-19 1c-2-2-5 0-8-2l4-2 1-3 6-3h7c1 2 2 0 3 0l1-1 15 3c0 3-2 4-5 6l-3 1h-2"/><path fill="#DBE8EA" d="m35 165-1-1 1 1"/><path fill="#EDF0EE" d="M31 124h-1c-3 0-3-2-3-4 2-12 2-12-10-12v-7c1-2 5-1 3-5v-1l1-1 5-1c4 2 4 5 3 7 0 3 1 4 4 5 3 2 7 1 11 2l1 1c-2 6-7 8-10 13l-1 2-3 1"/><path fill="#EED2D9" d="M8 121v-1 1"/><path fill="#DBE8EA" d="M212 29c2 0 5-3 7 1 1 2 0 4-2 5h-2c-1 0 0 1 0 0v1c0 3-2 5-1 9l-1 2c-2 2-4 3-6 1-3-1-5 1-6 3-1 5-4 5-7 3-2-3-1-7-2-11v-1l1-1v-4l1-1c0-6 0-6 7-6 1 0 2 0 3-2h2c1 2 3 1 6 1"/><path fill="#F4FAF6" d="m193 41 1 13c2 2 1 5 2 8-1 4-3 4-6 4l-6 1c-4-1-9 0-10-6a5 5 0 0 1 0-1v-2a9 9 0 0 1 0-1v-8a8 8 0 0 1 1-2v-1l2-1c5 0 11 3 15-4h1"/><path fill="#E8D8DD" d="m177 45-1 1-2 2-1 1-1 2-2 1-2-1v-2l1-1h-1l-1-2v-9l-1-4v-1l2-4 2-2c1 0 2 0 2-2l1-1 2-1c2 2 1 4 1 7l1 6-1 2 1 4-1 2 1 2"/><path fill="#F4FAF6" d="M179 41c1-3 4-4 6-7 0 4-2 6-6 7m11-13h2v2l-3 1 1-3m-1 3 1 2h-1v-2m15-6c-1 1-1 2-3 2 0-1 1-2 3-2m-28 18 1-2h2c0 1-1 2-3 2m17-6v3h-1l1-3m13-9h-2l2-2v2m-8-5c0 1 0 2-1 1l1-1"/><path fill="#FDFBF0" d="m176 37 1-2-1 2m11-8"/><path fill="#DBE8EA" d="M192 40h1v1h-1v-1"/><path fill="#F4FAF6" d="M204 19c-1 0 0 0 0 0m1 5-1 1 1-1m1-1 1-1-1 1m0 0-1 1 1-1zm-12 13-1 1 1-1"/><path fill="#E1F1F3" d="M215 35c3 0 3-3 4-5l2-1 1-1h8c3 5 1 10 1 15a9 9 0 0 1-1 2l-1 1c-5 1-10 1-15-1-4-4-1-6 1-10"/><path fill="#E2DCDE" d="M230 44V28l1-1h5c0 2 1 2 3 2v9a32 32 0 0 1-1 2v2c-2 3-4 5-7 5l-2-1v-1l1-1"/><path fill="#E8EBE9" d="M210 13h1-1m2 10h-1 1m-1-4v1-1"/><path fill="#DBE8EA" d="m222 28-1 1 1-1"/><path fill="#E8D8DD" d="M173 23v-2 2h-1m0 1-1-1h1v1"/><path fill="#E9E2E4" d="M135 37c-2 0-3-1-2-4l1-1c2-2 4-4 8-3h2v-2h14l3 1-2 14c1 3-1 5-5 5l-5 2c-8-3-8-3-8-13l1-1v-1 1l-7 2"/><path fill="#F2F5F4" d="M144 29c-1 1-1 2-2 0h2"/><path fill="#EDF0EE" d="M153 46c5 1 5-2 5-6s-1-8 3-12h7c0 1 1 3-1 4l-1 2c-2 0-3 0-3 2-1 3 1 7-2 11-2 3-2 6-2 9 0 2 0 4-2 5s-3 0-3-1c1-5-1-9-1-14"/><path fill="#DBE8EA" d="m48 273-2 1c-5 2-11 2-16 1-4-1-6-3-4-7v-4l1-2v-2h-2l1-3 2-2 2-1 4-2v-1l3-2 4-3 1 1v-1c0-1 1-3 3-3 2 4 0 9 2 13l1 3-1 1h1v13"/><path fill="#E2DCDE" d="M19 236c2-1 4-1 5-4l1-1c1 0 2 0 3-2h17c2 0 4 0 6 2l1 2-1 2v2c-2 2-4 1-5 2h-2c-4 0-8 2-13 0l-12-3"/><path fill="#E1F1F3" d="m31 239 14-1 1 1c1 2 0 3-1 4l-2 4h-1l-4 2-3 3-5 2-2 1-1-12c0-3 2-3 4-4"/><path fill="#E8EBE9" d="M26 257v6a10 10 0 0 1-1 1l-1 1a18 18 0 0 0-1 1l-1 2-1 1-1 1h-1c-3-1-4-3-5-5v-1l1-1v-1l1-2c1-2 2-2 4-2 2-1 3-3 6-1"/><path fill="#E9E2E4" d="m20 258-3 2c-1-2 1-3 3-2"/><path fill="#E2DCDE" d="M13 238c0-1 0-2 2-1l-2 1"/><path fill="#E9E2E4" d="M16 261v-1 1m-2 1 1-1v1h-1"/><path fill="#EDF0EE" d="m19 270 1-1 1-1 1-2 1-1 2-2h2c0 2 2 4 0 6v3c3 2 6 3 10 2h9l-1 4c-1 3-6 4-7 9l-1 1-2 1-8-1 1-7c1-3 0-7-5-7l-6-1c-1-1 0-2 2-3"/><path fill="#F2F5F4" d="m19 270-2 3a9 9 0 0 0-1 1c-1 0-3 2-4-1 2-2 1-4 1-6l1-2c3 0 3 3 5 5"/><path fill="#EDF0EE" d="m16 274 1-1-1 1"/><path fill="#E8D8DD" d="M6 285v1-1"/><path fill="#E8EBE9" d="m14 265-1 2 1-2"/><path fill="#F4FAF6" d="M14 262h1l-1 2v-2"/><path fill="#DBE8EA" d="m94 280-3 3-1-4v-1c0-3-3-5-2-9 1-1-1 0-3-1-4-1-3-3-2-6l5-5 2-3 1-2 2-1h2c2 3 4 4 8 3 1-1 2 0 4 1h6l1 1v2l-1 2-1 1-3 2 1 1v1c-1 1-3 1-3 3 0 4-3 6-8 7l-2 1-2 2-1 2"/><path fill="#E1F1F3" d="M89 256c0 3-2 5-4 6-2 2-2 4 0 6 0 2 0 3-2 5h-2c-3 2-5 2-9 0v-1l-1-3v-6c2-2 4-3 5-6l1-1h12"/><path fill="#E2DCDE" d="M72 272v1c-3 2 0 5-2 8-1 2-3 0-5 0 0-1-2-2-1-4l-1-2v-4l-1-14 2-3h8v9c-2 2-1 4 0 6v3"/><path fill="#F6EAEB" d="M65 281h5v4h-1c-2 1-3 0-4-2v-2"/><path fill="#F8F1F0" d="m71 293-3-2-1-1 1-2h3l2 4-2 1m0-10c2 1 3 1 0 3h-2v-1l2-2"/><path fill="#E8D8DD" d="M69 286h2v2l-3 1c-1-1-1-2 1-3"/><path fill="#E9E2E4" d="m71 283-2 2 1-3 1 1"/><path fill="#DBE8EA" d="M81 273h2-2m9 6v-1 1z"/><path fill="#E8D8DD" d="M134 273c-3 0-4 4-8 5l-2-6-1-2c0-1 2-1 1-2v-6l2-6c-1-3 1-4 4-5 4 1 4 3 4 6v16"/><path fill="#EDF0EE" d="M125 263a103 103 0 0 0-1 5v4c-3 3-9 4-11 0-1-2 2-2 2-5l1-1 1-1 3-3 1-1 2-1h1l1 3"/><path fill="#F4FAF6" d="M115 267c0 1 6 2 0 3l-2 2h-2c0-2 2-3 4-5"/><path fill="#E8D8DD" d="M126 278v2-2"/><path fill="#E9E2E4" d="M107 277h-1l1-2v2"/><path fill="#F4FAF6" d="M114 256h-7c-2-5-1-11-1-17l2-3 8 1c7-2 9-1 12 6v2l-1 2v3l-2 6h-11"/><path fill="#F2EDEC" d="m125 256 1-7h1v-1l-1-2 1-1 2-3a277 277 0 0 1 3-2l2 1c2 2 1 5 0 9l-2 2c-4 1-6 2-5 6l-2 5-1-2-1-1v-1l2-3"/><path fill="#F4FAF6" d="M120 262c0 2 0 4-3 3l3-3"/><path fill="#E9E2E4" d="M114 256h4c0 1-1 2-3 2l-1-1v-1m-19 32-3 3c0-2 1-3 3-3m5-5-2 2c0-1 0-2 2-2m14-22-2 1v-2l1-1 1 1v1"/><path fill="#F4FAF6" d="M110 265v-1l1-1h1c0 1 0 2-2 2m-13 11c0-1 1-2 2-1l-2 1m-2 2 2-2c0 1 0 2-2 2m28-19v2h-2l2-2"/><path fill="#E9E2E4" d="m106 277-2 1 2-1"/><path fill="#F4FAF6" d="m94 280 1-2-1 2"/><path fill="#E9E2E4" d="M115 258v2h-1v-2h1z"/><path fill="#F4FAF6" d="M95 286c-1-1 0-1 1-1v1h-1"/><path fill="#E9E2E4" d="M96 286v-1h2l-2 1m-1 0h1l-1 2v-2"/><path fill="#F4FAF6" d="M114 260h1l-1 1v-1m-24 27c0-1 0 0 0 0m26-21-1 1 1-1"/><path fill="#DBE8EA" d="M112 263h-1l1-1v1"/><path fill="#F4FAF6" d="M100 281c-1 0 0 0 0 0M42 178l5-2 8-1h2l1-1v-1l2-1 2 2 3 3 1 4-1 5 1 7-2 2-18 1c-2 0-2-3-4-1-1 2-5 2-6-2 0-2 2-4 3-5 2-1 1-6 6-6l-3-3v-1"/><path fill="#DAE6E9" d="M36 193c2 2 5 2 7 1 3-1 2 1 3 2 2 2 1 5 1 7l2 8-1 1c-6 4-13 2-20 2v-11l1-2c-2-5 1-6 5-6l2-2"/><path fill="#F2F5F4" d="m35 183-2 4-4-2c1-2 2-5 6-2"/><path fill="#F4FAF6" d="M19 203c0 1 0 3-2 3v-3l1-1 1 1"/><path fill="#F2F8F7" d="M20 201c0-2 1-3 3-4v2c0 1-1 2-3 2"/><path fill="#F4FAF6" d="m26 195 1-2 1 1-2 1m-3 4v-2h3c0 1-1 2-3 2m13-6-2 2c0-1 0-2 2-2m-8 10v1l-2 1c0-1 0-2 2-2"/><path fill="#F2F8F7" d="m19 203-1-1 2-1v2h-1"/><path fill="#F4FAF6" d="m26 205-1 1v-1h1m-4 3 1-1v1h-1m0 0v1-1m16-25v1-1m4-4v1-1m-9 9v-1l1 1h-1m0 0v1-1"/><path fill="#FDFBF0" d="M31 177h1-1"/><path fill="#F2F8F7" d="m18 202-1 1 1-1"/><path fill="#F4FAF6" d="M20 203v-1l1 1h-1"/><path fill="#F2F8F7" d="m13 207 1-1-1 1m11-10h-1v-1h1v1"/><path fill="#F4FAF6" d="M26 197zm-11 13c-1 0 0 0 0 0"/><path fill="#E1F1F3" d="M28 214c6-1 12 0 19-2 1 6-1 12-1 18-6 0-12 1-18-1-2-2-1-5-1-8l1-1v-6"/><path fill="#DAE6E9" d="M28 220c1 1 0 1-1 1l1-1"/><path fill="#F2EDEC" d="M21 231h-1 1m4 0-1 1v-1h1"/><path fill="#E8EBE9" d="M290 271v1c-3 4-6 2-10 1l1-1 1-1s1 0 0 0l-2 2-5 1h-2v-2l2-2c1 0 0 0 0 0h-1c-4-2-3-5-1-9l1-1h1-1c-2-1-3-2-2-4h5v1l1-1c4-2 8 0 12-1l2 1v1l-1 2-1 6v1c-2 1 0 3 0 5"/><path fill="#F2F5F4" d="m273 273 2 1-2 5-1 2-1 1-2 1-3 3-2 1c-2-1-3-3-1-6l1-1 7-7h2"/><path fill="#E8EBE9" d="m272 281 1-2v2h-1"/><path fill="#FBF6F4" d="M292 256h-2c-1-2-1-4 2-6l3-1c1 3-1 5-3 7"/><path fill="#F8F1F0" d="M290 271c-1-1-5-3 0-5 0 2 3 3 0 5"/><path fill="#FBF6F4" d="m291 259 1-2-1 2"/><path fill="#F8F1F0" d="M290 266v-1h1a4 4 0 0 1-1 1"/><path fill="#DBE8EA" d="m44 108-13-2c-4 0-4-3-3-5 1-3-1-5-2-7v-4c1-1 2 1 3-1 5-1 8-2 11-6l4-2c4 2 3 6 4 9v18h-4"/><path fill="#E1F1F3" d="m45 81-6 5c-3 4-6 4-10 3-4-4-1-10-1-14v-3c3-3 7-1 10-2h7l1 1c2 3 1 5 0 8l-1 2"/><path fill="#E2DCDE" d="M46 71c-6 2-11 1-18 1l-1-1c-1-2 5-4-1-6l3-2c6 0 12-2 18 0h1c5 1 5 2 3 6l-5 2"/><path fill="#E8EBE9" d="M26 90v4l-5 1 5-5m-6 5c-2 0-3-2-3-3l2-2 2 4a8 8 0 0 1-1 1"/><path fill="#EADBDF" d="M15 91c0 1 0 0 0 0"/><path fill="#E2DCDE" d="M21 70h1-1m-1 1 1-1-1 1"/><path fill="#E8EBE9" d="m11 105 1-1-1 1"/><path fill="#E1F1F3" d="M63 256c2 5 1 10 1 16l-3 2-5-1h-8c-5-4 0-8-1-13v-3c2-4 5-2 8-1l1 2c2-2 3-3 6-3l1 1"/><path fill="#E9E2E4" d="m69 286-1 3-3 1h-1c-1-2-2-4 1-7l4 2v1"/><path fill="#E8EBE9" d="M38 287c-2-6 4-6 7-9 0 5-4 6-7 9"/><path fill="#F2F8F7" d="M61 274c0-1 1-2 3-2v5c-1 0-3-1-3-3"/><path fill="#FBF6F4" d="m62 293-1 1h-1v-2c0-1 1-2 3-2v2l-1 1"/><path fill="#F8F1F0" d="M63 292v-2h2v1l-2 1"/><path fill="#E2DCDE" d="M65 281v2l-1-1 1-1"/><path fill="#EADBDF" d="M52 294h-1c0-1 0-2 2-2l-1 2"/><path fill="#E8EBE9" d="m35 289 2-1-1 1h-1"/><path fill="#EAFCFD" d="m55 273 1-1v1h-1"/><path fill="#EDF0EE" d="m268 19 4-1c2 0 3 2 2 3-4 4 1 6 3 9l-1 1-1 1h-2c-3-2-5-3-8-2l-4-2v-2l3-2 2-3 2-2"/><path fill="#E8EBE9" d="m288 29-2 2-1 2-1 1-1 1-1 1-1 1a61 61 0 0 1-1 1l-1 2a6 6 0 0 1-1 1l-2 1-1 1h-2c-3-3-1-5 0-8 3-1 4-3 6-5 2-3 6-2 9-1"/><path fill="#F2F5F4" d="M279 30c-1 2-1 5-5 5l-1-3 2-1 1-1h3"/><path fill="#F8F1F0" d="m293 15-1 2c-1-1-1-2 1-2"/><path fill="#EED2D9" d="m288 10 1-1-1 1"/><path fill="#E8EBE9" d="m290 30-1-1 1 1"/><path fill="#E1F1F3" d="M237 42a24 24 0 0 0 0-2l1-1c1-3-1-6 1-9l1-2h3l2 3h1c1-2 2-1 3-2a6 6 0 0 1 2 0l1 1h3c2 5 2 9-1 14a9 9 0 0 1-1 1l-2 2-13 2c-4-2-2-4-1-7"/><path fill="#DBE8EA" d="M250 30c-1 2-3 0-4 2-2 0-3-1-3-4 2-4 4 0 7 0v2"/><path fill="#DAE6E9" d="M250 30v-2h2v1l-1 1h-1"/><path fill="#DBE8EA" d="m240 28-1 2v-1l1-1"/><path fill="#DAE6E9" d="M253 45c3-4 2-9 2-15l4-2 1-1h1c1 1 3 2 5 1 3-1 5 0 7 4 0 1 2 1 1 3s-2 4 0 7v3l-1 1-1 1c-5 0-11 2-17 0l-2-2"/><path fill="#F2F5F4" d="m265 24-4 2 4-5v3"/><path fill="#E9E2E4" d="M265 24v-3l1-1h1c0 1 0 3-2 4"/><path fill="#F4FAF6" d="m260 19 2-2c0 1 0 2-2 2"/><path fill="#F2F5F4" d="M267 20h-1l2-1-1 1"/><path fill="#F4FAF6" d="M260 19z"/><path fill="#F2F5F4" d="M261 27h-1l1-1v1"/><path fill="#F4FAF6" d="m251 30 1-1v1h-1"/><path fill="#F2F5F4" d="m260 27-1 1 1-1"/><path fill="#F4FAF6" d="M258 21c0 1 0 0 0 0m8-8 1-1-1 1m-5 2 1-1-1 1"/><path fill="#E1F1F3" d="M255 46c6 2 12 0 18 0 1 6 2 11 0 18l-2 1-13-1c-1 0-3 1-4-1 0-5 2-11 1-17"/><path fill="#E2DCDE" d="M271 64h2l3 1c1 3 2 0 3 0 0 2-2 3-3 5-1 1-2 3-4 3-6-1-11 1-17-1-1-7-1-7 7-8h9"/><path fill="#E8EBE9" d="M274 45c-1 0-2 0-1-2h1l2-1 2-2 1-2 1-1 2-2 2-2 2-2 4 2-2 4v2l-1 1h-2l-1 1a3 3 0 0 1-1 1c-1 0-2 0-2 2v1h-7"/><path fill="#F8F1F0" d="M293 60h-1v-2l1-1 2 1-2 2m0-9c0 1 0 2-2 2 0-1-2-2 1-3l1 1z"/><path fill="#E9E2E4" d="M288 39v-2l2-1v2l-2 1m-2 1h1l-2 1 1-1m-5 5v-1h1l-1 1m3-3h-1 1"/><path fill="#E8D8DD" d="m293 51-1-1h1v1"/><path fill="#EADBDF" d="m293 57-1 1 1-1"/><path fill="#E8D8DD" d="M289 45c0 1 0 0 0 0"/><path fill="#E9E2E4" d="m285 41-1 1v-1h1m6-6-1 1 1-1"/><path fill="#E1F1F3" d="M71 31c1-2 2-4 5-3h13c3 3 1 6 1 9 1 5 1 8 6 9 1 2 1 3 3 2 3-1 6-4 9-2 2 6 1 11 0 17-5 3-11 1-16 1l-3-1v-4l4-1-3 1c-3-2-3-5-3-8 0-2-1-4-5-4-4 1-8 1-12-3V32l1-1"/><path fill="#DAE6E9" d="M96 48c-11-3-6-12-7-19v-1l2-1c2 1 5 3 8 1l2-1c5 2 7 5 7 11v2l1 5-1 1c-3 0-5 3-9 3 0-2-1-2-3-1"/><path fill="#E2DCDE" d="M71 34v11c-3-1-5 4-8 1l-1-17c1-1 3-1 3-3 2 0 3 2 5 1l1 4v3"/><path fill="#E8EBE9" d="M99 28c-3 3-6 3-8-1 2-2 5-2 5-6l4-4 2-2 1-1 3-3 1 5-4 5-1 2c-1 0 0 0 0 0l1 1-4 4"/><path fill="#E9E2E4" d="M64 17c1-1 3-2 3-4l1-1c1 0 0 0 0 0h2v5l-1 2-1 2a5 5 0 0 1-1 0l-2 1-1-5"/><path fill="#E8EBE9" d="M90 21c1-3 3-4 6-2v2l-5 2c0-1 1-2-1-2"/><path fill="#E2DCDE" d="m68 19 2-2c2 4-2 5-5 7v-1l2-2 1-2"/><path fill="#E8EBE9" d="m91 23-1 2v-1l1-1"/><path fill="#F8F1F0" d="M70 12h-2v-1l2-1v2"/><path fill="#E2DCDE" d="M65 26v-2 2"/><path fill="#E8EBE9" d="m96 19 1-1-1 1m1-1 1-1-1 1"/><path fill="#E2DCDE" d="M70 27s0-1 0 0"/><path fill="#E8D8DD" d="M81 9h1-1m14 4"/><path fill="#E8EBE9" d="M107 39c-2-2 0-3 0-5-1-2-2-5-6-6 0-3 3-4 6-5 0 6 0 6 6 5h10c1 1 2 2 2 5-1 1-2 3-4 3s0 1 0 1l1 5-1 1-1 1-2 1c-3 2-6 3-10 0v-5l-1-1"/><path fill="#F2F5F4" d="m107 23-6 5h-2l3-5v-1l5-6v7"/><path fill="#F4FAF6" d="m97 18 1-1h2l-4 4v-2l1-1m5-3-2 2c0-1 0-2 2-2m1-1-1 1 1-1"/><path fill="#DBE8EA" d="M203 274c-3 1-5-2-9-2l-1 1c-1 1-3 2-5 1-2-4 2-6 4-8v-1l-1-1 1-7 1-1 1-2 10-9c2-2 3-4 6-4 4 2 3 5 3 7 0 4 2 7 6 8 1 4 0 7-3 9l-2 1v8l-3 1-2 1c-1-2-2-2-5-2h-1"/><path fill="#E1F1F3" d="M214 264c4-1 5-3 5-7l1-1 3-1 5 1 2 1c2 4 1 9 1 13a161 161 0 0 0-1 4h-16c-2-3-2-5-1-9l1-1"/><path fill="#E2DCDE" d="M230 274v-1l-1-1 1-15v-1l2-2h1l2-1 1-1c3 1 2 3 3 5v11l-1 5a58 58 0 0 0-2 6l-1 1v1l1 1c-1 2-2 4-5 4 1-3-3-7 1-11l-2-1"/><path fill="#F6EAEB" d="m231 286 4-5v-1l1-1c2 2 2 4 1 7l-1 2c-2 0-3 1-3 4h-3v-5l1-1"/><path fill="#E8D8DD" d="M210 290h-2v-2l2-2c3 1-1 2 0 4"/><path fill="#EADBDF" d="M230 292h1v1l-1 1h-2c0-1 0-2 2-2"/><path fill="#E9E2E4" d="m209 276 2-1-1 4-1-3"/><path fill="#E2DCDE" d="m231 286-1 1 1-1"/><path fill="#FDFBF0" d="M187 273h6c3 5 1 11 1 17l-1 2h-10c-5 1-8-1-8-7v-5c-1-2-1-4 1-5 3-2 6-1 10-2h1"/><path fill="#E9E2E4" d="M203 283c1 0 2 0 1 1s-1 3-3 1l1-1 1-1"/><path fill="#F4FAF6" d="M207 282v1-1"/><path fill="#F2F8F7" d="M203 274h1v1l-1-1"/><path fill="#F4FAF6" d="m202 284-1 1 1-1m1-1-1 1 1-1"/><path fill="#FDFBF0" d="m193 273 1-1-1 1"/><path fill="#E8D8DD" d="m176 283-1 2h-2v-1l2-2 1 1"/><path fill="#F6EAEB" d="m172 286-2 1v-1c-1-1 0-1 1-1l1 1m-1 3 1-1-1 1m1-1v-1 1c1 0 0 0 0 0m1-4v1h-1l1-1"/><path fill="#F2F5F4" d="m26 28 2 1c1 1 0 2-1 3-2 2-3 1-5-1l1-3h3"/><path fill="#E9E2E4" d="m33 19-4 1 3-3 1 2"/><path fill="#F4FAF6" d="m33 19-1-2 1-1h1l-1 3"/><path fill="#E9E2E4" d="m23 28-1 3h-2l1-2 2-1"/><path fill="#F4FAF6" d="m21 29-1 2h-2l2-2h1"/><path fill="#F8F1F0" d="m8 19 1-2c1 1 1 2-1 2m7-10 2-2v2h-2"/><path fill="#E9E2E4" d="M34 16h-1l2-1v1h-1m-5 4-1 1 1-1"/><path fill="#EADBDF" d="M16 9h1-1"/><path fill="#DAE6E9" d="m26 32 2-3 2-1 2-1 1-1h1l1 1h6l1-1h3v3c3 5 2 10 3 16l-1 2c-6 2-12 2-18 0l-2-1c2-3 0-6-1-10v-4"/><path fill="#E1F1F3" d="m29 47 17-1c2 4 1 7 1 11l1 7c-6-2-12 1-19-1-3-3-2-7-1-10l1-6"/><path fill="#E8EBE9" d="M26 32v1l1 2c1 4 4 7 0 11-3-2-5 1-8 0-2 0-3 1-5-1 0-2 2-4 0-6l1-1c1-1 2 0 2-2l1-1 1-2 1-1 2-1c1 0 2 2 4 1M13 46l1-1-1 1"/><path fill="#F2F5F4" d="M18 35c-1 1 2 2 1 4-2 1-2-1-4-1v-1l2-2h1"/><path fill="#F4FAF6" d="m17 33 1-2v2h-1"/><path fill="#E9E2E4" d="M17 33h1v2a21 21 0 0 0-1 0v-2"/><path fill="#F2F5F4" d="m15 38-1 1 1-1"/><path fill="#F4FAF6" d="M35 16v-1h2l-2 1"/><path fill="#E9E2E4" d="m45 15-1 2 1-2"/><path fill="#F2F8F7" d="m32 27-2 1 2-1m1-1-1 1 1-1m2-1h-1 1"/><path fill="#DAE6E9" d="M273 273h-1c-2 2-4 3-6 2s-4 2-7 0c-1-1-4 1-5-3-1-2-2-4 0-7 1-2-1-5-1-8l3-3c5 0 10 2 14-1 1-1 2 0 3 1v2c-1 1-1 2 1 3v2c-1 3-4 6 1 9l-1 2-1 1"/><path fill="#E1F1F3" d="M254 257c1 3 4 7 0 11v4l-2 1-1 1c-4 1-8 1-13-1l-1-5 1-2v-9c5-4 10-2 16 0"/><path fill="#E8EBE9" d="m259 275 13-2c-1 4-5 5-8 8 0 2-2 4 0 6l-1 1-1 1c-1 0-2 0-2 2h-2c-4-3-4-11 1-16"/><path fill="#DAE6E9" d="m252 273 2-1-2 1"/><path fill="#EADBDF" d="m236 288 1-2-1 2"/><path fill="#DAE6E9" d="m251 274 1-1-1 1"/><path fill="#E8EBE9" d="m264 287 2-1-2 5h-2v-2l1-1 1-1zm5-4 2-1-2 1m2-1 1-1-1 1"/><path fill="#F2F5F4" d="M135 37c1-3 4-3 7-2l1 3c-1 5 1 8 6 10-3 3-3 6-2 10 0 2 0 4-2 6s-4 2-7 2c-4 0-6-2-9-3v-1l-1 1-5 2-1-1c-1-4 0-7 3-10h5l1-2 1-1c1-2-1-4 1-6v-4l2-2v-2"/><path fill="#F4FAF6" d="M125 54a499 499 0 0 0-3 10l-1 1-2 1h-1l-1-1-1 1h-7c-2 0-3-1-2-3l1-17v-1c3 1 6 2 10-1l3-1h3l1 11"/><path fill="#F2F5F4" d="M124 43h-3c1-2-2-4-1-7l5-3c0 3 1 6-1 10"/><path fill="#E9E2E4" d="M133 40c0 2 3 3 0 5-1-1-2-3 0-5"/><path fill="#E2DCDE" d="m132 52-2 2c0-1 0-2 2-3v1"/><path fill="#E9E2E4" d="M135 39c1 1 0 1-1 1v-1h1"/><path fill="#E2DCDE" d="M130 54h-1 1"/><path fill="#F2F5F4" d="M134 39v1h-1l1-1"/><path fill="#FBF6F4" d="m134 32-1 1 1-1"/><path fill="#F0DFE2" d="M57 176c-3 2-6 0-10 0 0-2 3-2 3-5v-1c3-2 6-1 10-1l1 2-2 2a9 9 0 0 0-1 1l-1 2"/><path fill="#E8D8DD" d="M276 176h-1l-3 2-1 1h-1l-1-1h-1l-1 1h-4a7 7 0 0 1-1 0c-5 0-8-2-13-3l-1-2 1-2 2-2 5-2c6-2 11 0 17-1 4 3 8 0 11 2v3l-1 1c-3-1-5 1-7 3"/><path fill="#EDF0EE" d="M274 185c-2 8 0 10 7 9l4 1c3 3 3 5-1 7-1 1-3 0-3 3-2 3-4 5-7 2l-1-2c0-6-3-9-9-11v-1l1-2 6-6h3"/><path fill="#E8EBE9" d="M281 205c0-1-4-5 2-4 1 0 5-2 2-6 2-2 4 1 6-1v2l-1 1 1 1v5c-2 1-4-1-6 1h-1l-1 1h-2m-7-27v5l-2 2-7 2-3-1c-1-2 1-3 3-4h1l1 1v-1l2-2 3-2h2"/><path fill="#F6EAEB" d="M276 176c1-3 2-6 7-4v1l-1 2-2 1h-4"/><path fill="#E8D8DD" d="M283 174v-2l1-1h2l1 4h-2l-2-1"/><path fill="#F2EDEC" d="M274 178h-3c0-2 2-2 4-2l-1 2"/><path fill="#F2F5F4" d="M272 185c0-1 0-2 2-2v2h-2"/><path fill="#E8D8DD" d="m280 176 2-1-2 1m5-1h-2 2m-3 0 1-1v1h-1"/><path fill="#E8EBE9" d="M292 207c-2 0-3-1-1-3h1v3"/><path fill="#F4FAF6" d="M291 198h-2l2-2v2m1 6h-1v-1l1 1"/><path fill="#EADBDF" d="m295 220-1 1 1-1"/><path fill="#E8D8DD" d="M296 163v2l-1 1-2 1c-2-1-1-2-1-4h4"/><path fill="#F6EAEB" d="M292 166h3c-1 1-2 3-4 3-1-2-1-2 1-3"/><path fill="#E8D8DD" d="m290 172-1-2 2-1v2l-1 1"/><path fill="#F6EAEB" d="m290 172 1-1-1 1"/><path fill="#FBF6F4" d="m291 169-2 1h-2l-1 1h-2c0-3-3-1-4-2-2 0-5 1-7-1v-9c2-2 4-1 6-2h3l1-1a17 17 0 0 0 5 1h2l2 1 1 1-1 4v3l-1 3"/><path fill="#E8D8DD" d="m286 171 1-1-1 1"/><path fill="#E9E2E4" d="M158 273v1l-8 1-4-1h-3c-2-4-1-8-1-13l3-6c4-1 7-1 11 1 2 6 4 11 2 17"/><path fill="#EDF0EE" d="M143 261v13c-3 2-6-1-9-1l-1-4c3-3 5-7 10-8"/><path fill="#F6EAEB" d="m146 274 4 1c0 2-1 4-4 4v-5m1 9-1 1v-1h1m-3 2v1-1"/><path fill="#EED2D9" d="M131 288v-1 1m0 0-1 1 1-1"/><path fill="#F6EAEB" d="M143 278c1 0 0 0 0 0m4 5"/><path fill="#EADBDF" d="m173 284-1 1-2 1c-2-4 0-8-1-12l-2-3c1-5-1-10 1-15l1-2c3-2 4-4 7-4 2 2 1 5 3 7 1 2 0 4-1 5v6l1 2 1 1-4 4v5l-1 3-2 1"/><path fill="#E8EBE9" d="M169 256v18h-2c-4 4-6 2-9-1l-3-16c1-2-1-4-1-6l1-1 1-1h1c1 7 7 6 12 7"/><path fill="#DBE8EA" d="m265 193 2 2c5 0 8 2 6 8l1 3c1 2 0 4-1 6v1c-1 2-2 3-5 2h-11l-4-1c-1-4 0-7 1-10v-7l1-2 2-2h8"/><path fill="#E1F1F3" d="M256 214c4-2 8-1 12 0l5-1c3 5 1 11 0 17-5 3-11 2-16 1l-2-2c0-5-3-10 1-15"/><path fill="#E2DCDE" d="M256 230a8418 8418 0 0 0 17 0v1c0 3 1 4 4 4 2 0 3 2 1 4h-5c-5 0-11 2-16 1l-6-2v-3l2-2c0-3 1-3 3-3"/><path fill="#EADBDF" d="M278 238c1-4-3 0-4-2 0-1-3 1-3-1-1-2 2-2 2-4 5 1 11-1 17 1 0 2-3 2-3 5-2 3-5 2-9 1"/><path fill="#E8EBE9" d="M273 212c-1-2 1-4 1-6 2 2 5 2 7-1l2 1c0 2-2 2-1 4s-1 2-3 2-1-2-1-3c-2 0-2 3-5 3m12-8c0 1 0 2-2 2l1-2h1m1 7v-1 1m0 0-1 1v-1a6 6 0 0 1 1 0"/><path fill="#EADBDF" d="M291 232h-1 1"/><path fill="#F4FAF6" d="m278 238 9-1 2 1c3 2 2 4 3 7v5c-2 1-1 4-2 6-4 2-8-1-13 1-1-2-2 0-4-1v-18h5"/><path fill="#FBF6F4" d="M292 248v-1 1"/><path fill="#F4FAF6" d="m272 72 4-2c2 3 5 2 8 1 1 1 1-1 3-1h1v1a68 68 0 0 0 4 10l-1 8c-2 3-6 1-9 4l-1 1-5 2c-2-4-5-8-5-12v-2l1-2v-8"/><path fill="#F8F1F0" d="M288 70h-1c1-1 1-2 2 0h-1"/><path fill="#E8EBE9" d="M281 93c2-5 6-3 10-4v3h-1l1 1v6h-4v1l3 2-3 5-2 1c-3-1-5-2-7 1h-3l-2-1c-4-2-1-4 0-6l1-2 1-2v-2l6-3"/><path fill="#F2F5F4" d="M286 100c1-2 2-3 5-1v1l-1 2-4-2"/><path fill="#F4FAF6" d="m290 93 1-2v2h-1"/><path fill="#E8EBE9" d="m290 102 1-2 1 1v1h-2"/><path fill="#F8F1F0" d="m295 79-1 1v-1h1m0 0 1-2-1 2"/><path fill="#EADBDF" d="M288 70h1l-1 1v-1"/><path fill="#E1F1F3" d="m47 46-2-17h17c2 0 2 2 2 4v15h-3c-5 0-9 0-14-2"/><path fill="#E8EBE9" d="m45 26-2 1h-3l5-4v3"/><path fill="#F8F1F0" d="m67 21-2 2v-1l2-1"/><path fill="#E9E2E4" d="M68 11v1a6 6 0 0 0-1 1l-1-2h2"/><path fill="#E8D8DD" d="M231 293v-1h2v1h-2"/><path fill="#FDFBF0" d="M274 108h4l4-1h5c6 1 3 6 5 10-2 3-1 5 0 9h-4l-1 1h-10c-2 0-3 0-4-2-1-3 0-6-2-10l1-5 2-2"/><path fill="#E8D8DD" d="M293 112v-1 1M65 291v-1l3-1v2c0 3-1 2-3 0"/><path fill="#F6EAEB" d="M291 151c-1-1-1-2 1-2l-1 2"/><path fill="#FBF6F4" d="m283 132 1 1c8 1 8 1 7 10v2c-3 2-6-1-10 0l-6 1-3-2c-1-1-2-3-1-5l2-1h-1v-5l6-2a9 9 0 0 1 3 0l2 1"/><path fill="#E8D8DD" d="M283 132h-4l-7 1c-4 3-8 1-12 3l-8-2c-2-5 2-6 4-9l1-1c6 0 11-1 17 1l3 1v1l-1 1-1 1 1-1 2-1 4-1h2v3l-1 3"/><path fill="#F6EAEB" d="M274 145c5-2 11-2 17 0 0 3-3 4-4 7l-1 1a18 18 0 0 1-2 2 6 6 0 0 1 0 1l-2 1-2 1h-6c-2-4-2-8 0-13"/><path fill="#F6EAEB" d="M288 158a18 18 0 0 1-5-1c-1-1 0-1 1-2l1-1 1-1 1-1c3 0 3 2 3 5l-1 1h-1"/><path fill="#F8F1F0" d="M284 129v-3h2c1 1 0 1-1 2l-1 1"/><path fill="#E8D8DD" d="m285 128 1-2h2c-1 1-1 2-3 2"/><path fill="#EED2D9" d="M293 143v1-1"/><path fill="#EADBDF" d="m64 142 1-3 1-1 1-3 1-1 3 1 1 7c1 6 2 11 0 18l-3 2h-1a8 8 0 0 1-1 1l-2-1v-1c-3-1-2-5-2-6 2-4 0-8 1-13"/><path fill="#E2DCDE" d="M65 161v1l1 3-1 1-1-3 1-2"/><path fill="#E9E2E4" d="M68 135h-1l-3 1c-3-4-8-4-13-4l5-6c2-2 4-2 6-2h3c2 1 1 3 1 4-1 2 0 4 3 5l-1 2"/><path fill="#E8D8DD" d="m64 136 3-1-1 3h-1l-1-2"/><path fill="#E8EBE9" d="M44 141v-2 2"/><path fill="#EDF0EE" d="M47 133h1-1"/><path fill="#F2EDEC" d="M65 138h1l-1 1v-1"/><path fill="#E8EBE9" d="M41 141c1 0 0 0 0 0"/><path fill="#F2F5F4" d="m61 171-1-2c0-2 1-3 4-3l1 2-4 3"/><path fill="#EADBDF" d="m50 170 1 1h-1v-1"/><path fill="#F4FAF6" d="m63 125-7 1c-5 1-10 0-15-2v-4c4-3 4-6 3-11v-1h4c4-3 9-1 13-2 3-1 3 1 5 2v7l-1 2c0 3 0 5-2 8"/><path fill="#E8EBE9" d="M44 109c2 4 4 7 0 10-1 2-3 3-3 5h-1l-2 1c-2 0-5 1-7-1l2-1 1-2c2-5 7-7 10-12"/><path fill="#F4FAF6" d="m38 125 2-1c0 1-1 2-2 1"/><path fill="#FBF6F4" d="M23 130h1-1"/><path fill="#F4FAF6" d="M34 121c1 1 1 2-1 2l1-2M20 95l1-1v1h-1"/><path fill="#F8F1F0" d="M26 107c0-1 0 0 0 0"/><path fill="#FDFBF0" d="M23 107c-1 0 0 0 0 0"/><path fill="#EAFCFD" d="m229 46 1 1c3 2 1 5 1 7v4a15 15 0 0 1 0 2v2l-4 3h-1l-2 1c-4 0-8 0-12-2-2-4-2-8-2-12v-1l2-5 2-1 15 1"/><path fill="#E1F1F3" d="M210 51c2 0 2 1 2 3v9c-5 3-10 2-16 0-3-2-2-5-2-9 3 0 5 1 6-4 0-3 5-5 8-3 2 2 2-1 4-1l-2 5"/><path fill="#F4FAF6" d="M193 41v-1 1m22-6"/><path fill="#E2DCDE" d="M196 63h16c4 2 8 1 13 2 2 4-2 5-4 7-3 2-6-1-9 0-5 2-11 1-16 1l-11-1-5-1c-1-3 1-4 3-5 4-3 9 0 13-3"/><path fill="#F0DFE2" d="m183 66-3 5v1c-3 1-3 3-3 5l-1 2a19 19 0 0 1-3 3c-1 1-2 2-3 1-2 0-1-2-1-3 0-6-1-7-6-9a5 5 0 0 1-1 0v-4l3-2 2-2 2-1 2-2c1-1 2-2 4-1 0 5 4 6 8 7"/><path fill="#F6EAEB" d="m175 59-4 2-3-1v-6l1-1h1c2-1 3 0 5 1v5"/><path fill="#EADBDF" d="M175 54c-2 1-3 0-5-1v-1l1-1 2-3h2v6"/><path fill="#F6EAEB" d="M175 48h-2c0-1 1-2 3-2v1l-1 1"/><path fill="#E2DCDE" d="m175 57-1-1a5 5 0 0 1 1 0v1"/><path fill="#F0DFE2" d="M175 59v-1 1"/><path fill="#EADBDF" d="m175 48 1-1-1 1"/><path fill="#F2F8F7" d="M170 52v1l-1 1v8l-2 2-1 1h-1l-2 1-1 1-2-2-1-1a19 19 0 0 1-2-2c2-3 0-6 1-9 0-2 0-5 2-7l4-1c1-1 2 0 4 1v4l2 2"/><path fill="#EDF0EE" d="m168 46-4-1-1-1 1-1s1-1 0 0h-1c-1-3 1-5 3-7 3 3 3 6 2 10"/><path fill="#EDF0EE" d="M167 33v3l-2 1c-1-1-1-2 1-3l1-1"/><path fill="#F6EAEB" d="M173 48c0 1 0 2-2 3 0-1 0-2 2-3"/><path fill="#EDF0EE" d="M168 50v-2c2 0 2 1 0 2"/><path fill="#DBE8EA" d="m167 33-1 1 1-2v1"/><path fill="#F0DFE2" d="M172 24v-1h1l-1 1"/><path fill="#EAFCFD" d="m230 44-1 1 1-1m-2-2c0 1 0 0 0 0"/><path fill="#E9E2E4" d="M230 55v-8l7-5c3 2-2 4 0 6l1 1-3 3a32 32 0 0 1-1 2l-1 1a8 8 0 0 1-2 0h-1m8-16-1 1 1-1"/><path fill="#F2EDEC" d="M144 64c3-3 1-6 1-9 0-4 0-6 4-7l4-2c3 4 1 10 4 15v1c-3 4-7 3-12 3l-1-1"/><path fill="#F2F5F4" d="M142 35v-1 1"/><path fill="#FBF6F4" d="M138 31c0-1 0 0 0 0"/><path fill="#DBE8EA" d="M166 34c-1 2-1 2 1 2 0 3-4 4-3 7v2l-4 1c3-3 1-7 2-11l1-3c1 0 1 2 3 2"/><path fill="#EAFCFD" d="m62 256-6 2c-2-3-5-2-9-1-4-2-1-6-2-9v-5l1-4v-1c1-2 3 1 4-2l2-1 1 1h1l2 1h3l2-1a7 7 0 0 1 1-1c3 1 5 2 5 5l-1 2v1l-1 1 1 6v2l-1 1-1 1-2 2m-32-2c1-1 2-2 5-2-2 1-2 5-5 2"/><path fill="#F2F5F4" d="M27 263h-2l1-3h2v1l-1 2"/><path fill="#EAFCFD" d="M35 252c0-2 0-3 3-3l-3 3"/><path fill="#E1F1F3" d="m47 260-1 1v-1h1"/><path fill="#E8EBE9" d="M28 261v-1 1"/><path fill="#EAFCFD" d="M43 256c-1 0 0 0 0 0m-1-9h1-1"/><path fill="#E8EBE9" d="M28 260h-1 1"/><path fill="#EAFCFD" d="M46 230c-2-6-1-12 1-18h1a43 43 0 0 1 15-1l1 2c2 4 0 7 1 12 0 2-1 4-3 5l-2 2h-1l-2 1a12 12 0 0 1-1 0h-2a5 5 0 0 1-1 0l-1-1-1-1-5-1"/><path fill="#EDF0EE" d="M52 232h1l-1 2-1-2h1"/><path fill="#F4FAF6" d="M25 235c0-1 0 0 0 0"/><path fill="#EDF0EE" d="M51 235v-1 1m-5 3v1l-1-1h1m4-2v-1 1"/><path fill="#F2F5F4" d="M25 263c0 1 0 2-2 2l2-2"/><path fill="#F4FAF6" d="M15 262v-1l1-1h1c0 1 0 2-2 2"/><path fill="#F2F5F4" d="m22 266-1 2 1-2m-1 2-1 1 1-1m2-3-1 1 1-1"/><path fill="#E8EBE9" d="M39 278v1-1m2-2h1-1m-8 9-1 1v-1a6 6 0 0 1 1 0m0 0 1-2-1 2m1-2z"/><path fill="#EAFCFD" d="M71 256v-2c1-2 0-3-1-5a7 7 0 0 1 0-2v-3l1-2c1-2 3-4 6-5 5-1 9-1 14 1l1 2-1 3v11l-2 2c-3 1-7-1-11 1h-2c0 3 0 5-4 6l-1-4v-3"/><path fill="#E1F1F3" d="M91 254c-2-3-3-7 0-11h3l1-1c-2 1-2 0-4-1v-2c1-2 3-3 4-2 4 1 8 0 12 2v17h-8c-4 1-3-4-6-5l-1 2-1 1"/><path fill="#F2F5F4" d="m112 262-1 1-1 1h-3l5-4v2m2-4v2h-2c0-1 0-2 2-2"/><path fill="#F4FAF6" d="M90 279v-1l1 1a5 5 0 0 1-1 0"/><path fill="#E1F1F3" d="M89 265h-1 1"/><path fill="#EAFCFD" d="m92 253 1-2-1 2"/><path fill="#F2F5F4" d="M115 258h-1v-1l1 1"/><path fill="#DBE8EA" d="M72 272v-3l3 1c0 1-1 2-3 2m4-15h2-2m5 10c0-1 0 0 0 0"/><path fill="#EDF0EE" d="M71 248c1 2 3 4 0 6-2 0-4 2-6 0v-1l1-1v-1l2-2 3-1m-9 8c0-1 0-2 2-3l1 1c0 1 0 2-2 2h-1m9 0 2 1-2 2v-3"/><path fill="#F4FAF6" d="M64 277v-1 1"/><path fill="#F2F8F7" d="M133 250v-9c-1-2 1-3 2-4h9l2 7-1 2-1 8c0 2 0 3-2 3h-8c-3 0 0-4-3-5l2-2"/><path fill="#E8EBE9" d="m134 257 9-2h2c0 2 1 4-2 6l-10 8c1-4-1-8 1-12"/><path fill="#FDFBF0" d="M124 269v-1 1"/><path fill="#E8EBE9" d="M123 261v-1l1 1h-1"/><path fill="#E2DCDE" d="M107 239c-4 0-8 2-11-1-2-1-3 0-5 1-4 0-9-3-14-1 0-3 3-3 5-4l2-2 3-2 2-1h17l1 2c-1 3 0 4 2 6l-2 2"/><path fill="#E9E2E4" d="M109 237c-1-2-4 0-5-1 0-2 2-3 3-4 1-2 2-3 5-2h2c3-1 6 0 9 1 1 4-3 4-6 7-2 0-5 1-8-1"/><path fill="#E8D8DD" d="m117 238 6-7 1-1c2-1 3-3 5-1v2c-2 3-1 5 2 5 2 2 2 3 1 5l-1 1-1 1a39 39 0 0 1-3 2c-2-2-1-6-5-7h-5m10 7v1l-1 1c-1-1-1-2 1-2"/><path fill="#F6EAEB" d="m126 247 1-1v2h-1v-1"/><path fill="#E8D8DD" d="M126 248h1c1 1 0 1-1 1v-1"/><path fill="#F6EAEB" d="M132 241v-11l2-1 6 1c3 5-2 5-4 8l-3 3h-1"/><path fill="#E8D8DD" d="m133 250-2 2c0-1 0-2 2-2"/><path fill="#F6EAEB" d="m130 243 1-1-1 1"/><path fill="#E1F1F3" d="M62 212H48c-3-5-2-10-2-16 6-2 11-2 18-1v11c1 2 0 4-2 6"/><path fill="#E2DCDE" d="M62 212c0-2 3-5 0-7l-1-1c3-2 2-6 3-9l1-2 2-2 1 1h2l1 1 3 2-1 18v1l-1 4v1c-2 3-5 5-8 6v-12l-1-1h-1"/><path fill="#E9E2E4" d="m69 192-4 1c-2-1 0-4-1-6 2-2 3-6 7-6 2 2 1 4 0 7l-2 4"/><path fill="#F0DFE2" d="M71 181c-3 1-3 5-7 6 0-2 0-4 2-6l3-6 3 1c1 2 1 3-1 5"/><path fill="#E8D8DD" d="M61 171c0-1 1-2 3-2h1c1 2 0 5-1 7l-3-1c0-1 0-2-2-2l2-2m8 5-3 5c-2 0-2-2-2-4 1-1 3-2 5-1m-12 0 1-2-1 2m1-2 1-1-1 1m3 1s0 1 0 0"/><path fill="#F4FAF6" d="M282 271c0 1 0 2-2 2 0-1 0-2 2-2m-8-10v-2h1c1 1 0 1-1 2m0 11 1-2c1 1 0 1-1 2m14-8v1-1m-5 6v-1 1m0 0-1 1 1-1m3-9c-1 0 0 0 0 0"/><path fill="#EAFCFD" d="m45 80 1-8c3-2 6-1 9-2h3c7 1 6 6 7 11l-1 7c-5 4-10 2-16 2-2 0-2-2-2-3l-2-6 1-1"/><path fill="#E1F1F3" d="M48 90c5-1 10 0 15-2 2-1 3 0 2 1-1 6 0 12-3 17-2 3-5 1-8 1l-6 1c-3-6-3-12 0-18"/><path fill="#EDF0EE" d="M56 71c-3 2-6 1-10 1v-1l6-6c-1-1-2 2-3-1 0-2 2-2 3-2h12l1 3c-1 6 1 7 6 5h3l1 2c0 2-1 3-3 5-2 3-4 4-8 5-2-1-1-3-1-5 0-3-1-5-5-6h-2"/><path fill="#DBE8EA" d="M45 80c1 1 0 1-1 1l1-1"/><path fill="#EAFCFD" d="M64 62c-5 2-10 0-15 2h-1c-2-2-3-3-2-6V46h1l15 1h1l1 1c2 2 1 4 1 6v7l-1 1"/><path fill="#DBE8EA" d="M56 261c-1 0 0 0 0 0"/><path fill="#FDFBF0" d="m276 30-1 1 1-1"/><path fill="#F2F5F4" d="M286 31c0 1 0 2-2 2l2-2m-8 9-2 2c0-1 0-2 2-2m6-7c0 1 0 2-2 2l2-2m-2 2c0 1 0 2-2 2l2-2m-6 7-2 1v-1h2m3-4-1 2 1-2m1-1-1 1 1-1"/><path fill="#EAFCFD" d="M237 50v-2l14-2 2-1 2 1c3 6 1 11-1 17 0 1-1 2-3 2h-7c-3 0-6 1-7-3-1-2-2-5-1-8l1-4"/><path fill="#DAE6E9" d="m253 45-2 1 2-1m-7-13 1 1h-1v-1"/><path fill="#F2F5F4" d="M274 43h-1 1"/><path fill="#E8EBE9" d="m251 64 3-1h13l4 1c0 2-1 2-2 1h-7c-5 0-7 2-7 7h-9l-1-2 1-1 1-2 1-1 1-1h1l1-1"/><path fill="#E1F1F3" d="M272 72c2 2 2 5 0 8v2l-7 7c-3 3-6 2-10 0-1-5-2-11 0-17h17"/><path fill="#F4FAF6" d="M274 68v1-1m11-27h-1c0-1 0-2 2-1l-1 1m-1 0v1h-1l1-1"/><path fill="#EAFCFD" d="M71 45v-1c4 2 9 3 13 1 1 0 5 2 4 5l2 9-1 3v2l-1 1h-3a16 16 0 0 1-4 0 14 14 0 0 1-1 0l-8-2-1-1-1-3a9 9 0 0 1 0-2v-2a13 13 0 0 1-1-2c0-3 0-5 2-8"/><path fill="#E2DCDE" d="M87 64h2l2-1h16c3 3 6 1 10 2v6c-1 2-3 1-4 1-2 0-4 0-6 2-2 0-5-2-8-1-6 1-12 0-19-1l-1-3v-2l1-1 2-2h5"/><path fill="#EAFCFD" d="m90 59 1-1c1-1 1-3 3-2v3c-1 2-2 0-4 0m6-11c1 0 2-4 3 1l-3 2v-3"/><path fill="#E9E2E4" d="m71 34-2-1c-1-1 1-1 2-1v2"/><path fill="#F2F8F7" d="m91 63-2 1v-2l2 1"/><path fill="#F4FAF6" d="m107 39 1 1-1-1"/><path fill="#E9E2E4" d="M71 54v3l-3 4-2 2-2-1c-3-4 0-9 0-14v-1c2-1 3-5 7-2l-1 8 1 1"/><path fill="#F2F5F4" d="m100 24 1-1-1 1m1-1 1-1v1h-1"/><path fill="#F8F1F0" d="M68 19c1 1 0 1-1 2l1-2m-1-6 1-1-1 1"/><path fill="#F2F5F4" d="M121 43c-1 1-1 3-3 1a10 10 0 0 0 1-1h2"/><path fill="#F4FAF6" d="M114 33c0 1 0 2-2 2l2-2m3 5h-1 1m2 5-1 1 1-1m-5-10 1-1-1 1zm2-2-1 1 1-1m-6 6 1-1-1 1m1-1 1-1-1 1"/><path fill="#E8EBE9" d="M102 23v-1h1l-1 1"/><path fill="#F4FAF6" d="M179 258c-4-1-3-4-3-8-3-3-2-6-1-10l3-2 2-1h2l1-1 2-1 2 1c2 2 7-1 8 4v15l-2 1-1 2c0 2-1 4-4 3 0-4-2-4-6-3h-3"/><path fill="#EAFCFD" d="M221 257h-2c-7 0-8-5-8-11 0-1 2-3-1-4v-2l2-2 5-1 4-1c5 1 9 2 10 8a35 35 0 0 1 0 7l-1 4-2 2-5-1-2 1"/><path fill="#E1F1F3" d="m211 241-1 1c-5 2-7 6-10 9l-5 4c-2-5-1-10-1-16l2-1 1-1h12l2 2v2"/><path fill="#F2F5F4" d="M188 261c2 0 3-2 4-4h1c1 3 1 5-1 8h1c0 3-4 4-5 8l-1 1-11 1c0-2 2-2 3-4l1-1 1-2 2-2v-1l1-2 4-2"/><path fill="#EAFCFD" d="m214 264-1 1v-1h1m-4-13c-1 0 0 0 0 0"/><path fill="#E9E2E4" d="M193 257h-1l1-1v1"/><path fill="#DBE8EA" d="m225 261-1 1h-1l2-1"/><path fill="#EAFCFD" d="m225 261 1-1h1l-2 1"/><path fill="#DBE8EA" d="m221 257 2-1-2 1m7 0 1-1h1v1h-2"/><path fill="#F4FAF6" d="m229 272 1 1-1-1"/><path fill="#EAFCFD" d="M251 237c1 2 3 0 5 1 2 3 1 5 1 8v9l-3 2c-5 0-10-2-16 0-2-1 1-3-2-4v-8a9 9 0 0 1 0-2v-1l1-2 1-2c3-2 5-3 9-2h3l1 1"/><path fill="#E9E2E4" d="M237 243v7l-1 2v1h-1l-2 1h-1c-1 0-2-1-2-3v-3l1-1 1-1 2-2 2-1h1"/><path fill="#F2F5F4" d="m230 251 2 3-2 2h-1l1-5"/><path fill="#EAFCFD" d="m233 254 2-1-1 2-1-1m5 12h2l-3 2 1-2"/><path fill="#F4FAF6" d="M235 280v1l-1-1h1m1-1-1 1 1-1"/><path fill="#EADBDF" d="M232 292h-1 1"/><path fill="#F2F5F4" d="m175 283 1-3v3h-1"/><path fill="#DBE8EA" d="M187 274c-1-1 0-1 1-1l-1 1"/><path fill="#F2F5F4" d="M22 31c0 1 0 2-2 2v-2h2"/><path fill="#E9E2E4" d="M20 31v2h-2v-2h2"/><path fill="#F4FAF6" d="m27 35-1-2c1 0 2 0 1 2m14-8h2-2m-6 0"/><path fill="#F2F5F4" d="M18 33h2c0 1 0 2-2 2v-2"/><path fill="#F4FAF6" d="M23 44h1-1m1-7-1 1v-1h1m-6 6c-1 0 0 0 0 0m6-6"/><path fill="#E1F1F3" d="M257 255c-3-4-1-9-1-14v-3c5 2 11 0 17 0l1 5h-1l1 1-1 11-3-1c-4 4-8 1-13 1"/><path fill="#F4FAF6" d="M264 281v-2 2"/><path fill="#F2F5F4" d="m263 288-1 1 1-1m1-1-1 1 1-1"/><path fill="#F4FAF6" d="M258 285c0 1 0 0 0 0m4-2c-1 0 0 0 0 0m-5-4c0-1 0 0 0 0"/><path fill="#E8D8DD" d="m123 64 6-2 9 3c1 3-1 4-3 6l-2 1-2-1-1-1-1-3-1 1 2 3c1 3-1 4-3 5-1-3-5-3-7-5l2-4v-2l1-1"/><path fill="#F0DFE2" d="m134 71 4-6 6-1h1c0 4-3 5-6 8-2 1-3 1-5-1"/><path fill="#E9E2E4" d="M138 37h-1 1"/><path fill="#E2DCDE" d="M127 57h-1 1"/><path fill="#E8D8DD" d="m132 59-1 1v-1h1"/><path fill="#E9E2E4" d="M139 43c0 1 0 0 0 0"/><path fill="#F4FAF6" d="M123 64v1l-1-1h1"/><path fill="#EADBDF" d="M132 52v-1l1 1h-1"/><path fill="#E8D8DD" d="M129 62s0-1 0 0"/><path fill="#E9E2E4" d="M141 42c-1 0 0 0 0 0"/><path fill="#F6EAEB" d="m122 64 1 1v1c1 0 2-1 1 1l-3 3c-1 1-3 2-5 1v-4l1-1c2 0 3 0 4-2h1"/><path fill="#E2DCDE" d="M121 64c0 2-1 3-3 3l1-2a19 19 0 0 1 2-1"/><path fill="#F8F1F0" d="m119 65-1 2h-2l1-2h2"/><path fill="#E2DCDE" d="M118 65h-1 1"/><path fill="#F4FAF6" d="m256 195-1 1h-3c-5-1-9 0-13 1l-3-1v-5l-1-3 1-1h-1l-1 2-1 1-1 3a4 4 0 0 1-1 1l-2 2h-12c-4 2-7 1-8-4-2 3-3 5-7 2l-1-2c1-4 4-4 6-7l1-1c2-2 1-5 3-7l2-2c4-2 8 0 12 0 3 0 7 0 7 5v2l-1 1h1l1-1 1-1a77 77 0 0 0 2-3l2-3h8l1-1 2 1 13 3-2 2v1c-1 0-1 0 0 0l3-3c1-2 3-1 5 0v3l-1 1c-3 1-4 2-5 4h-4l-1-1v1l1 3v4l-2 2"/><path fill="#F2F5F4" d="m256 169-5 2-2-1-7 1-12-1c-2 0-3 3-5-1l4-6 8-6 9-2c1 0 3-1 4 1l2 1 3-2 1 2 2 5v1l-2 6"/><path fill="#EDF0EE" d="M256 169c0-2-2-5 2-6-3-1-3-3-2-6 6-1 12-2 18 2l-1 9c-5 2-11 0-17 1"/><path fill="#F2EDEC" d="m267 181 1-3h2c1 1 0 2-1 3h-2"/><path fill="#F4FAF6" d="m269 181 1-3h2l-3 3"/><path fill="#E8EBE9" d="m263 178-3 3c0-1 0-2 2-3h1"/><path fill="#F2F5F4" d="m248 175-1-1 1-1 1 2h-1"/><path fill="#F4FAF6" d="M269 178h-1v-1h1v1"/><path fill="#F2EDEC" d="M269 177h-1 1"/><path fill="#F2F5F4" d="m251 171-1 1v-1h1z"/><path fill="#F6EAEB" d="m284 171-1 1 1-1"/><path fill="#F2F5F4" d="m250 172-1 1 1-1m14 16c2-2 4-6 8-3l-6 6c-2-1-2-2-2-3m2 3-1 1 1-1m-1 2h-1l1-1z"/><path fill="#F4FAF6" d="m284 204-1 2c-1 0-2 1-2-1l3-1m5-6v1-1m-4 6h-1 1m-23-18 2 1h-2v-1z"/><path fill="#F2EDEC" d="M266 183v-1h1v1h-1"/><path fill="#F4FAF6" d="M266 183h1-1"/><path fill="#F6EAEB" d="M283 175v-1l2 1h-2"/><path fill="#E9E2E4" d="M274 159c-6-2-12 0-18-2l-1-1c-2-4 0-7 0-11l1-1 1-1h16l1 2v14"/><path fill="#F0DFE2" d="m284 155-1 2h-1c0-1 0-2 2-2m-4 3 2-1-2 1m8 0h1-1"/><path fill="#F2EDEC" d="M145 255h-2c1-3-1-7 2-10-1-2-2-4-1-7 3-3 7-1 12-1h1c2 5 3 9-1 13h-1c0 2 3 4 0 7-3-2-6-1-10-2"/><path fill="#F2F8F7" d="M156 250c2-3 0-8 2-12v-1h10l1 1 1 16-1 2h-3c-5 1-9 0-10-6"/><path fill="#E8EBE9" d="m182 268-2 2h-1c-1 0-2 0-2-2v-5l2-5c2-2 5-2 7-2 5-1 2 2 2 5l-3 3-1 2-2 2"/><path fill="#E9E2E4" d="M170 254c-2-1-2-3-2-4 2-4-1-7 1-11l4-1c2 0 3 0 3 2v10l-6 4"/><path fill="#F4FAF6" d="M177 266v2-2m0-3v2-2"/><path fill="#E9E2E4" d="M179 270h1l-1 1v-1"/><path fill="#F2F8F7" d="m163 259 2-1v1h-2m0 0"/><path fill="#EAFCFD" d="m256 214-1 8v7c-3 3-6 3-10 3l-1 1h-2l-2-1c-1-2-5-2-4-6v-5a6 6 0 0 1 0-1l1-6 1-2 11-1c2-1 3 0 4 2l3 1"/><path fill="#E1F1F3" d="M253 213c-5-2-9 1-15 0-3-5-2-11 0-17 5-2 9-3 15-1l1 1h1c1 6 0 11-2 17"/><path fill="#E8EBE9" d="M262 187h2l2 4-1 1-1 1-1 1c-2 2-3 0-5-1v-2l1-1v-1l1-1 2-1m-6 8c0-1 0-2 2-2 0 1 0 2-2 2"/><path fill="#F2F5F4" d="m263 194 1-1-1 1"/><path fill="#F2EDEC" d="M244 231c3-1 7 0 11-2l1 1c-1 1-3 1-3 3l-1 1v1l-1 2h-2l-1 1c-3 0-6-2-10 0 0-2-2-6 3-6l1 1 1-1 1-1"/><path fill="#DBE8EA" d="M265 216c-1 0 0 0 0 0"/><path fill="#F2EDEC" d="M253 233h2c0 1-1 2-3 2v-1l1-1z"/><path fill="#DBE8EA" d="M274 244h-1a4 4 0 0 1 1-1v1M255 89c5 1 10 1 13-4 1-1 2-3 4-3 0 5 4 8 4 14l-1 1v1l1 1-2 2c1 2-2 3-1 6l-1 2h-2a9 9 0 0 1-2 0h-2l-2 1-1 1c-4-2-9 0-13-4-1-2-1-4 1-5 3-3 3-7 3-11l1-2m17-7v-2c1 0 3 1 0 2"/><path fill="#F2F5F4" d="M268 108a4 4 0 0 1 1 0h2l2-1 1 1-1 2-1 2-1 1c-2 2-4 4-7 1v-1c0-3 2-4 4-5m15 0h-5c1-2 3-5 6-1l-1 1"/><path fill="#F4FAF6" d="M274 101c0-1 0-2 2-2 0 1 0 2-2 2m7-8h2-2m1 7 1-1-1 1m8-7-1 1v-1h1z"/><path fill="#F2F5F4" d="M285 105c0-1 0 0 0 0"/><path fill="#F4FAF6" d="m275 98-1-1h1v1m0-1 1-1-1 1"/><path fill="#E9E2E4" d="M63 47h-1 1"/><path fill="#E8EBE9" d="m268 108-4 5c2 2 4 1 7 0l1 1c2 3 2 7 2 11h-17c-2-1-2-3-1-5h4c0-2 0-2-2-3 0-4 3-5 6-7l2-2h2"/><path fill="#F8F1F0" d="M277 127v-1h5c-1 4-3 2-5 1"/><path fill="#E8EBE9" d="M271 112c0-1 0-2 2-2-1 1 1 3-1 4l-1-2m12-4 1-1-1 1m-10 35c-5 3-11 2-17 1-3-5-3-7 3-9 4-3 8-2 13-2 2 1 2 3 0 5v1c-2 2-1 3 1 4"/><path fill="#F8F1F0" d="m279 132 2-2v2h-2"/><path fill="#E9E2E4" d="M272 139v-1l1 1h-1"/><path fill="#F4FAF6" d="M257 120v5h-1c-5 3-10 2-15 3l-4-2a6 6 0 0 1-1-1 7 7 0 0 1-1-1v-2l1-1-1 1-1-1v-1l1-2v-1l1-2v-5l1-2 1-2h1l1-1c3 1 4 2 7 1a350 350 0 0 0 2 0l1 1c4 2 9-1 14 3l-6 7-1 1v2"/><path fill="#F2F8F7" d="M259 135c-3 2-5 4-3 9-5 3-11 2-17 1-4-1-4-4-4-7l1-4 1-1c5-2 9-2 14 0 3 1 6-1 8 2"/><path fill="#E9E2E4" d="M251 133h-14c-1-3 0-5 3-6l16-2c0 4-3 5-5 8"/><path fill="#F8F1F0" d="m275 129 1-1-1 1m2-2-1 1 1-1m-2 2"/><path fill="#F0DFE2" d="M287 147c1 0 0 0 0 0m0 5-1 1 1-1m-1 1-1 1 1-1m-1 1-1 1 1-1"/><path fill="#F2F8F7" d="M71 142c-2-2 1-4-1-6 0-2 2-3 4-4l7-1c4 1 9 0 13 3v2a5 5 0 0 1 0 1c-1 2-3 2-2 4v1c-1 3-3 3-5 4H75c-2 0-3-2-4-4"/><path fill="#F2EDEC" d="M71 142c4 4 11 1 16 4h1c1 2 0 3-1 4v2c3 1 3 4 2 6h-5l-1-2-1 2-1 1c-4-1-7 1-9 2l-1-1v-18m10-10c-3 2-8 0-11 4l-2-1 1-2 1-1 2-2 1-1 1-1a10 10 0 0 0 2-1l1-2h8c1 4-2 5-4 7"/><path fill="#E2DCDE" d="M71 160v3l-1 1h-3v-2l1-1 3-1"/><path fill="#F2EDEC" d="M67 162v2l-1 1-1-3h2m1-1-1 1 1-1"/><path fill="#F0DFE2" d="m66 165 1-1 3-1c3 1 2 3 2 5-2 2-4 2-7 1h-1v-3l2-1"/><path fill="#F2EDEC" d="m63 125 1-9 1-1c2-1 0-3 1-5l1-2 4-1v5l1 2v5l-1 2a7 7 0 0 1-2 2l-1 1-2 1h-3"/><path fill="#EED2D9" d="m71 132-2 1c-6 0-7-2-3-8h5l1 1v5l-1 1"/><path fill="#E2DCDE" d="m71 107-4 2h-1c-2 0-3-1-4-3l1-18 1-6 7-6c2 2 1 5 1 8v6c1 6 2 11 1 16l-2 1m-5 3c0 2 3 4-1 5 0-2-2-3 1-5m-1 5-1 1 1-1m2-6-1 1v-1h1"/><path fill="#EDF0EE" d="M220 72c1-3 4-3 5-7l1-1 4-2h2c-1 3-2 6 0 10v2l-2 2c-3-3-7-1-10-4"/><path fill="#E9E2E4" d="m232 63-2-1v-1l1-2 5-6h1l1 8c-1 2-2 5-6 2"/><path fill="#E2DCDE" d="M236 53c-1 2-2 4-5 6h-1v-4h1l2-1a69 69 0 0 0 1-1h2"/><path fill="#EDF0EE" d="M230 59h1l-1 2v-2"/><path fill="#E2DCDE" d="m226 64-1 1 1-1"/><path fill="#F4FAF6" d="m175 79 1-2 3-5 1-1 15 1v18c-1 3-2 5-5 3l-2-1v1l2 4-1 2c-2 2-4 1-7 0l-1-1v1l-3 1c-2-1-3-3-3-5l2-2h1a8 8 0 0 1 1-1h5l-3-1c-4-3-4-6-5-9l-1-3"/><path fill="#EAFCFD" d="M220 72c3 1 7-2 10 3 3 3 0 6 1 10a10 10 0 0 1 0 2l-1 2-1 1c-5 1-11 2-17 1-1-3-4-1-5-4-1-2 1-3 2-5-4-2-4-3 0-5 2-1 1-4 3-6 3-1 5 0 8 1"/><path fill="#E1F1F3" d="M212 71v5c0 4-4 1-5 3l1 1c1 0 3-1 3 1 1 1-1 2-2 3l-2 3h-3c-3-2-2 0-2 2-1 3-4 2-6 3l-2-1c0-6-1-12 1-19 5 0 11 1 17-1"/><path fill="#F4FAF6" d="M185 67h1-1"/><path fill="#F2F5F4" d="m175 79 1 2v4a7 7 0 0 1-1 1l-6 5h-10l-4-2-1-5 1-1-1 1c0 1-1 3-2 2-2 0-1-2-1-3-1-5 2-8 6-12l3-2h2v1c4 1 7 1 8 6v7l5-4"/><path fill="#EED2D9" d="M175 68c0 2-1 3-3 3s-3-1-3-3c-1-1 0-2 2-3 2 0 3-1 4 3"/><path fill="#FBF6F4" d="M179 72c-1 2 0 4-3 5 0-2-1-5 3-5"/><path fill="#F6EAEB" d="m167 64 1-2h2c0 1-1 2-3 2m-3 0 2 1-3 3v-2l1-2m-2 5h-1l2-1-1 1m9-8-1 1 1-1"/><path fill="#E2DCDE" d="m171 61-1 1h-2l1-2c1 0 2-2 2 1"/><path fill="#EADBDF" d="m169 54 1-1-1 1m-6 14-2 1-3 2c-4 3-9 2-14 2-2-1-4 0-5-2l6-7c4 0 8 0 12-2l1 1 2 1 3 2v2"/><path fill="#F2EDEC" d="M160 64c-1 2-2 1-3-1h2l1 1"/><path fill="#EDF0EE" d="M159 63h-2v-2c1 0 2 0 2 2"/><path fill="#EADBDF" d="m164 64-1 2 1-2"/><path fill="#DBE8EA" d="m165 42-1 1 1-1m0 0"/><path fill="#F2F5F4" d="M236 53h-2c0-2 1-3 3-3v3h-1m-3 1-2 1 2-1m1-1-1 1 1-1"/><path fill="#E8D8DD" d="M67 241c0-3-3-3-5-5l-1-1 1-1v-3l5-4 1-1 1 1 2 2 3 4-1 2h-1 1v1c0 2-2 2-3 4l-3 1"/><path fill="#E9E2E4" d="M71 243v1l-1 2-1 2h-1l-1 2-1 1h-1c-2-2-2-4-1-7v-1l1-1h1l3-1 2 2"/><path fill="#E2DCDE" d="M55 237h-3c1-1 1-3 4-4 3 1 4 2 3 5l-4-1"/><path fill="#F2EDEC" d="m59 238-2-5 2-1h1l2 2v2l-2 2h-1"/><path fill="#E2DCDE" d="M50 236v-1l1-1 2-2h3v1l-4 3h-2"/><path fill="#EDF0EE" d="M52 236c1-1 2-3 4-3l-4 4v-1"/><path fill="#E8D8DD" d="M60 238c0-1 0-2 2-2l-2 2"/><path fill="#E2DCDE" d="M65 251h1l-1 2v-2m0 3-1-1h1v1"/><path fill="#E8D8DD" d="M66 242h-1l1-1v1m-1 0v1h-1l1-1"/><path fill="#F2F5F4" d="M64 243h1l-1 1v-1"/><path fill="#E8EBE9" d="M62 234c-1 0-2 0-2-2v-2c1-2 4-2 4-5l7-6c3 1 2 3 2 6l-2 1-1 1h-2c-2 1-2 5-6 5v2"/><path fill="#E2DCDE" d="m59 232-2 1v-1h2m1-2v2h-1l1-2"/><path fill="#EDF0EE" d="M57 232v1h-1v-1h1"/><path fill="#E2DCDE" d="M52 232h-1v-1h1v1"/><path fill="#EDF0EE" d="M52 231h-1 1"/><path fill="#E1F1F3" d="m63 212 1 1-1-1"/><path fill="#F2F5F4" d="M71 243c-1 0-2 0-2-2v-1c1-3 3-2 4-5v-1c0-2-2-2-3-4l1-2c4-1 8-1 12 1l1 2v1l-1 1c-1 4-4 2-6 5-3 0-4 3-6 5"/><path fill="#E2DCDE" d="M71 248h-3l1-2h2v2"/><path fill="#EDF0EE" d="M71 246h-2l2-2v2"/><path fill="#E1F1F3" d="M91 243c-1 0-3-1 0-2v2z"/><path fill="#EAFCFD" d="M91 243v-2l4 1c-1 2-2 2-4 1m8 4c-1 0 0 0 0 0m-4-5"/><path fill="#E2DCDE" d="M66 251v-2h2c0 1 0 2-2 2"/><path fill="#EADBDF" d="M157 238h-21c0-3 4-4 5-7 5-3 10-3 15-2 2 0 2 1 3 2s-1 2 1 4l-2 2-1 1"/><path fill="#F4FAF6" d="M125 231h-2c-3 1-6-2-9 1l-2-1c-2-1-3-1-5 1l-1-2c-1-5 0-11 1-17 1-2 4-1 6-2l2-1c1-3 3-5 6-5l1-2h3c2 4 1 9 2 14v3a12 12 0 0 0-1 2v5l-1 4"/><path fill="#E1F1F3" d="m108 213-2 17H89l-1-1v-12c5-6 11-6 18-5l2 1"/><path fill="#EAFCFD" d="M89 229v1h-2l-2 1h-2c-1-3-3-2-5-2h-7l-2-1v-1l1-1h1c2-2 1-4 0-7v-1l1-3v-1c3-4 7-3 11-3l3-1h2c2 2 5 4 1 7l1 10-1 2"/><path fill="#F2F5F4" d="M85 231c0-1 0-2 2-1 0 1 0 2-2 3v-2m0 2-2 1v-1h2z"/><path fill="#E2DCDE" d="M112 231c1 0 2-1 2 1l-2-1"/><path fill="#EED2D9" d="m132 231 1 3-1 3c-7 0-7-1-4-6l2-1 2 1"/><path fill="#F0DFE2" d="m132 231-2-1-1-1c-2-1-2 1-4 2v-4l1-1c2-1 3-3 6-3 2 2 2 4 2 7l-2 1"/><path fill="#F6EAEB" d="m129 229 1 1-2 1 1-2"/><path fill="#F2F8F7" d="M134 230c-2-2-1-4-2-7l-1-2v-5l1-2c6-4 12-3 13 3v8c0 3-1 4-4 6l-7-1"/><path fill="#E8D8DD" d="m132 237 1-3c0 1 2 2-1 3"/><path fill="#F4FAF6" d="m71 181 1-5 1-1h2l3-1c5 2 11 1 16 2l5 1 1 1c-2 4-2 7-6 9l-1-1h-1 1l1 1-2 4-2 4c-6 2-11 0-17 0-1 0-2 0-3-2h-2v-1l2-3 1-8"/><path fill="#E1F1F3" d="M73 195c4 0 8-2 12 0l5-1v1c0 5 1 10-2 15l-1 1-2 2c-4 0-8-2-13 1-1-6 0-12 1-19m-1 20-1 3c-2-1-1-2 1-3"/><path fill="#F4FAF6" d="M68 193v1-1"/><path fill="#E2DCDE" d="M70 189c1 2-1 2-2 3 0-1 0-2 2-3"/><path fill="#EED2D9" d="m74 175-2 1h-3l-5 1 1-8 6-1 1 1 1 3-1 1h1c1 0 2 1 1 2"/><path fill="#E2DCDE" d="M56 71h2-2"/><path fill="#EAFCFD" d="M71 90V76l3-4 1-1h5c6 0 12 2 19 1 0 3-3 5-5 7s-4 5-4 10l-1 1c-6 3-12 2-18 0"/><path fill="#E8D8DD" d="m66 62 1-1 2-1 2 2 4 3c1 1 1 3-1 4l-3 2c-2 2-5 2-6 0-3-2-2-5-1-8l2-1"/><path fill="#E2DCDE" d="M75 72h-1v-2h2l-1 2m-16-4c1 0 1 0 0 0 0 1 0 1 0 0"/><path fill="#EDF0EE" d="m66 62-2 1v-1h2"/><path fill="#E8D8DD" d="M232 63c3 2 4 0 6-2 0 4 3 3 6 3 1 4-3 5-5 8l-1 1h-2l-1 1-2 1-1-1v-1c-4-3-4-6 0-10"/><path fill="#EDF0EE" d="M238 72c1-3 5-4 6-8 2-2 4-1 6 0v1l-2 2-2 2-2 3c-2 2-3 3-6 2v-2"/><path fill="#E2DCDE" d="M250 65v-1h1l-1 1"/><path fill="#EAFCFD" d="m238 74 6-2 2-1 9 1v18h-10l-2 2-2 2-3-2c-1-4-2-7-1-11l-1-3 2-4"/><path fill="#E2DCDE" d="m246 71-2 1c0-1 0-2 2-3v2m2-4 2-2c0 1 0 2-2 2m-2 2 2-2c0 1 0 2-2 2"/><path fill="#F2F8F7" d="M75 65c-1-1-4 1-4-3l9 2-1 2-4-1"/><path fill="#E2DCDE" d="m79 65 1-1h1v2l-1 1c-1 1-1 3-4 3-1-3 1-4 3-5"/><path fill="#EDF0EE" d="m69 60-2 1c0-2 1-3 4-4v3h-2"/><path fill="#F2F8F7" d="m70 60 1-1v3c-1 0-2 0-2-2h1m17 4h-2 2"/><path fill="#EDF0EE" d="M81 66v-2h1l-1 2"/><path fill="#F2F8F7" d="m71 54-1-1 1 1"/><path fill="#F4FAF6" d="m116 71 5-1c0 2 2 1 3 1 1 2 3 2 2 5v11a8 8 0 0 1 0 2l-2 1c-5 1-9-1-14 2-3-1-4-3-4-6v-9l1-3c1-6 5-3 9-3"/><path fill="#E1F1F3" d="M107 74v2c-3 5-8 9-12 13-1 2-4 2-6 0-2-8 6-11 10-17 3 0 5-1 8 2"/><path fill="#EDF0EE" d="m76 70 4-3v4l-5 1 1-2"/><path fill="#F4FAF6" d="M110 67h-1 1"/><path fill="#EDF0EE" d="m80 67 1-1-1 1"/><path fill="#E2DCDE" d="M196 239h-2c-1-2-2-1-3-1-2 0-4 1-5-2-1-2 1-3 3-5l6-2h8l9 1c2 2 5 3 4 5-1 3-3 4-6 3l-13 1h-1"/><path fill="#E9E2E4" d="m181 237-2 1h-5c-1-2 3-5-1-7l1-2h8l2 2h2l1 2-3 3-1 1h-2"/><path fill="#F8F1F0" d="M174 238c2 1 3-2 5 0 0 1-1 2-3 2l-2-1v-1"/><path fill="#E8D8DD" d="m184 236 2-3 1-1c1-1 1-2 2 0l-3 4h-2"/><path fill="#F8F1F0" d="m181 237 2-1-1 2-1-1"/><path fill="#E8D8DD" d="m182 238 1-2h1c0 1 0 2-2 2"/><path fill="#EADBDF" d="M241 232c-4 0-1 4-3 6v2l-1 2v1h-3a6 6 0 0 0-1 1v1a3 3 0 0 1-1 1l-2-1c0-6-4-7-9-8l1-1v-1l1-1 2-2 2-1 3-3 1-1 3-2h3c0 2-1 3 2 4 1 0 2 1 2 3"/><path fill="#F2F5F4" d="M210 238c2 0 4-1 5-3 1-1-2-2-3-4v-1h5l2 3-1 5-6 1h-1l-1-1"/><path fill="#E2DCDE" d="M218 238v-5l1-1 2-2h5l-1 3-1 1-2 2-1 1-3 1m12 7h2v2h-2v-2"/><path fill="#DBE8EA" d="M211 239h1l-1 2v-2"/><path fill="#F2F5F4" d="M230 247h2l-2 1v-1"/><path fill="#F4FAF6" d="M196 239h1-1"/><path fill="#E9E2E4" d="M182 268c0-1 0-2 2-2l-2 2m2-2 1-2-1 2"/><path fill="#F2F5F4" d="m236 250 1-4v5l-1-1m1-8 1-2-1 2"/><path fill="#E2DCDE" d="m236 250 1 1-1 1v-2"/><path fill="#F2F5F4" d="M237 246v-1 1"/><path fill="#E2DCDE" d="M249 237h1-1m-1 1 1-1-1 1"/><path fill="#F2F5F4" d="M232 247v-2l1-1c1 1 1 2-1 3m3-5 1 1-2 1 1-2"/><path fill="#F2F8F7" d="m139 71 5 1c2 5 0 11 1 17-6 5-6 5-13-1l-1-3c1-5-1-9 2-14h6"/><path fill="#E9E2E4" d="m133 71-1 13-1 1-1 1-3 3-2-1V77l1-1c2-1 3-2 4-5h3"/><path fill="#EED2D9" d="M131 71h-1c-2 0-4 0-4-3 0-2 1-3 3-3 3 1 3 3 2 6"/><path fill="#DAE6E9" d="M202 194c4 2 5-2 8-3 0 4 2 6 7 4 1 0 2 0 1 1 0 2-1 2-3 3l-2-1 1 1v12l-1 2c-2 2-3 2-6 2l-13-1c-2-1-2-3-2-5l1-7v-6l3-2 3-1h1l2 1"/><path fill="#E1F1F3" d="M213 211c-1-4-2-8 1-12v-1c1 0 4 0 3-3 4-1 7-2 12 0l1 1 1 1v12c0 1-3 1-1 3v1l-3 2c-3-2-7-3-11-2-1 1-2-1-3-2"/><path fill="#EADBDF" d="m213 176-1 1c-2 2-4 2-7 2-1 0-1-3-3-1h-7c-2-2-6 0-8-2-1-3 1-4 3-6l5-3a9 9 0 0 1 2 0l8-1 3 1 8 2v1c0 1 0 0 0 0h1c2 3-1 4-4 6"/><path fill="#E8EBE9" d="M195 178c2-2 4 0 7-1v1l-1 1-1 2-1 1 1-1a87 87 0 0 0 2-2l2-1 8-1c-2 2 0 6-4 8h-1v1-1h1c0 4-4 3-6 6l-1 1h-1l-3 3-3 1h-2v-3c1-3 2-6 1-10-1-1 0-3 2-5"/><path fill="#E2DCDE" d="M230 210v-13l-1-1v-1l2-2c2-1 3 0 5 2l2 1v17l-1 1c-1 3-4 4-7 2v-6"/><path fill="#E9E2E4" d="M213 176c1-2 4-3 4-6 2-4 5-1 9-1 1 3 2-1 4 0v4l-4 3h-13m37-4-1 1h-1l-1 1-3 2-6-1v-1l1-2 2-1c2-2 5-1 9-2v3"/><path fill="#E8D8DD" d="M238 175v1c0 1 0 2-2 3-2 0-3 3-6 2 1-4 0-5-4-5l3-3c3 0 6 0 9 2"/><path fill="#F6EAEB" d="m236 195-5-2v-1l1-2 1-1c2-1 3 0 4 2l-1 4"/><path fill="#E8EBE9" d="M262 186v1l-1 1-1 1-1 1h-1c0-2-2-3-1-5 2-1 3 0 5 1"/><path fill="#E9E2E4" d="M230 181c2 0 3-4 6-2l-1 1-1 1a11 11 0 0 0-1 1 9 9 0 0 0-1 1h-1l-1-2"/><path fill="#E2DCDE" d="m237 191-4-2 3-3 1 5m7-15c0-1 1-2 3-2v1l-3 1"/><path fill="#E8EBE9" d="M200 194v-2l2-1v3h-2m58-2-1-1 1-1v2"/><path fill="#E8D8DD" d="M231 183h1c0 1 0 2-1 1v-1"/><path fill="#E2DCDE" d="m232 190-1 2c-1-1 0-1 1-2"/><path fill="#DAE6E9" d="m210 191 1-2v1l-1 1"/><path fill="#E8EBE9" d="m257 185-1-1h1v1m3-4-1 1v-1h1"/><path fill="#E2DCDE" d="M236 186h1-1"/><path fill="#E8D8DD" d="m235 180 1-1-1 1m-1 1 1-1-1 1m14-6h1-1"/><path fill="#E2DCDE" d="m233 189-1 1 1-1"/><path fill="#E8D8DD" d="m233 182 1-1-1 1"/><path fill="#E8EBE9" d="M267 182h-1l1-1v1"/><path fill="#E8D8DD" d="m232 183 1-1-1 1"/><path fill="#DBE8EA" d="m254 196-1-1 1 1"/><path fill="#F2EDEC" d="M238 144h18l-1 12-3 1h-1c-4-2-8 1-13 1-4-4-1-9 0-14"/><path fill="#F2F8F7" d="M226 169c-3 2-6-1-9 1h-1l-8-2c2-3 3-6 3-10l2-1h15l2 4v2c-1 2-1 5-4 6"/><path fill="#EADBDF" d="M230 163v-1l-1-6c0-4-2-8-1-12l2-2c3-2 3-5 6-5 1 2 0 5 2 7 0 4-2 9 0 14-3 0-4 4-8 5"/><path fill="#EED2D9" d="M238 175c-3 0-6 1-9-2l1-4c4-1 7-1 11 2l-1 1-1 2-1 1"/><path fill="#E2DCDE" d="M250 171v-2l1 2h-1"/><path fill="#F2EDEC" d="M252 157h-1 1"/><path fill="#E2DCDE" d="m247 174 1-1-1 1"/><path fill="#E8EBE9" d="M155 250z"/><path fill="#F0DFE2" d="m157 238 1-1v1h-1m1-1c3-1 0-4 1-6h2v1l1-1 4-1h5c0 3 0 5-2 7l-5 1-6-1"/><path fill="#EED2D9" d="m168 237 2-7c1-1 2 0 3 1 5 1 3 4 1 7v1h-5l-1-1v-1"/><path fill="#E9E2E4" d="M168 237v1h-4c0-2 2-2 4-1"/><path fill="#F4FAF6" d="M180 261c0 1 0 0 0 0"/><path fill="#E9E2E4" d="M230 216c3 1 4-2 7-2 2 2 1 3 0 6v1l-1 2v1l-4 2-2-1c-3-3-2-6 0-9"/><path fill="#EDF0EE" d="M237 225h-2l1-2h1v2"/><path fill="#E2DCDE" d="M237 223h-1v-2h1v2"/><path fill="#EADBDF" d="m244 231-1 1 1-1m-1 1-1 1 1-1"/><path fill="#F2F5F4" d="M237 221h-1l1-1v1"/><path fill="#F4FAF6" d="M258 192v-2h1l-1 2m3-4 1-1-1 1m-1 1 1-1-1 1m-1 1 1-1-1 1"/><path fill="#E2DCDE" d="m253 233-1 1 1-1m-1 1v1l-1-1h1"/><path fill="#E1F1F3" d="M244 90c0-3 2-2 4-2l7 2c1 5 1 10-4 14l-1 3h-1l-1 1c-2-1-5 1-8-2-1-1-2 0-2-2v-1l-1-1v-4l1-2 1-1 1 1c-1-2 0-2 1-3l1-2 2-1"/><path fill="#F4FAF6" d="m266 108-2 2c0-1 0-2 2-2"/><path fill="#E8EBE9" d="M271 108c-1 1-1 2-2 0h2"/><path fill="#F4FAF6" d="m271 112 1 2-1-1v-1"/><path fill="#F2F5F4" d="M257 120v-2l1-1c2-1 4 0 3 3l-2 2c-2 0 0-2-2-2"/><path fill="#FDFBF0" d="M272 121c-1 0 0 0 0 0"/><path fill="#F4FAF6" d="M264 119c1 0 0 0 0 0"/><path fill="#E2DCDE" d="M238 96v7c-1 2 2 1 2 3h-1a4 4 0 0 0-1 1l-1 2-1 1-1 1-2 1-2-1c-2-2-2-4-3-7 1-5 0-10 2-14 2-3 5-2 8 0v6"/><path fill="#EED2D9" d="M240 127c-2 1-2 3-3 6v1c-2 3-4 1-7 1l-3-2-1-2 1-2 1-1 1-1 1-1a6 6 0 0 1 1-1l5-1 1 1 3 2"/><path fill="#F2EDEC" d="M234 120v1l-2 1c-4-2-3-5-2-8l4-3 1-2h3c-2 2 0 4-1 7l-1 2-2 2"/><path fill="#E2DCDE" d="M231 121h4c0 3-2 4-4 5h-2c-1-2 0-4 2-5"/><path fill="#E8D8DD" d="m231 126 4-5h1v3c-1 1-2 2-5 2"/><path fill="#F8F1F0" d="M238 109h-3c0-1 1-2 3-2v2"/><path fill="#E2DCDE" d="M234 120c0-1 0-2 2-2l-2 2m2-2 1-2-1 2"/><path fill="#E8D8DD" d="M236 121h1-1m1 4-1-1 1 1"/><path fill="#E8EBE9" d="m258 117-1 1 1-1m-1 1v1-1"/><path fill="#DBE8EA" d="m248 108 1-1-1 1"/><path fill="#E1F1F3" d="m238 107 1-1-1 1"/><path fill="#E8D8DD" d="M230 134c2-1 4 2 7 0l-1 3c-3 1-1 5-5 5l-1-8"/><path fill="#E9E2E4" d="M88 146h-1c0-3 3-2 4-4 4 1 7-2 10-1v1l1-1c1-3-1-6 1-8l4-1 2 12v12l-2 13c-5 2-10 0-15 1-3-3 0-5 2-6l1-1h-1c-2 0-3-1-4-3v-1l-1-1c0-2 0-5-4-5-2-1-1-2 0-3l3-4"/><path fill="#EADBDF" d="M107 133h-4c-1 2-4 3-6 3l-3-1c-4-2-8-2-13-3 0-3 3-3 4-6l4-2a5 5 0 0 1 1-1 7 7 0 0 1 1 0l16 1c5 0 11-1 16 2l2 5c-4 4-7 3-11 1l-1 1h-6"/><path fill="#EDF0EE" d="m96 135 7-2c-1 3 3 6-2 9-1-3-2-1-2 0-3 2-5 2-8 0v-1l2-4 3-2"/><path fill="#DAE6E9" d="m93 137-2 4c-1-1-1-1 2-4m3-2c0 1-1 2-3 2l1-2h2"/><path fill="#F2F8F7" d="m95 163-4 6c-2 2-5 1-9 2l-1-1c-4 0-7 1-10-1v-1a33 33 0 0 0-1-6l1-1c3-2 5-5 10-3l1-1 1-1h1c1 2 2 2 5 2l2 1c0 3 2 3 4 4"/><path fill="#E9E2E4" d="M84 156h-1s1-2 1 0m-2 1-1 1 1-1"/><path fill="#F4FAF6" d="M89 124c0 2-2 2-4 2h-8l-1 1-4-1h-1l-2-4 1-1 1-1v-6l-1-1 1-6h1l1-1h4c6-1 11 1 17 1 3 3 1 4 0 5-3 3-3 4 1 5 1 4-3 5-6 7"/><path fill="#F0DFE2" d="M72 126c1-2 2 0 4 0v2l-1 1-2 1-2 1 1-5"/><path fill="#E8D8DD" d="m71 131 2-1c0 1 0 2-2 2v-1m2-1 2-1-2 1m3-2v-2h1l-1 2"/><path fill="#F2EDEC" d="m71 161-1 1 1-1"/><path fill="#E9E2E4" d="m69 122 2 4c-1 0-2 2-3-1l-1-1c0-1 0-2 2-2"/><path fill="#E2DCDE" d="M67 118h-2l1-1c1-1 1 0 1 1m3-5 1 1h-2l1-1"/><path fill="#E9E2E4" d="m70 121-1 1 1-1m1-1-1 1 1-1m-4 5h-1l1-1v1"/><path fill="#F0DFE2" d="M67 125v-1l1 1h-1"/><path fill="#E1F1F3" d="M74 107h-2l-1-17h18l1 3-1 3c-3 5-8 7-13 11h-2"/><path fill="#F4FAF6" d="M67 109h-1 1"/><path fill="#E9E2E4" d="M238 74a42 42 0 0 1-1 4l-2 4-1 2-1 1h-3c-2-3 1-6 0-10l2-1h1c1 1 1 0 2-1l2-1h1v2"/><path fill="#E8D8DD" d="M227 70v1-1m-58 20c1-2 3-4 6-5 2 2 3 5 1 9l2 6v3a7 7 0 0 1 0 1l-1 2-1 5a6 6 0 0 1 0 1l-1 1-5 2-3-6v-4c0-5 0-10 2-15"/><path fill="#E8EBE9" d="M194 91h2c2 3 0 7 0 10-1 2-2 3-1 6l-1 2h-12l-1-2-1-5v-2l1-1c3-2 5 2 7 0l1-1c0-2-2-3-1-5l1-1c2 0 3 3 5-1"/><path fill="#FBF6F4" d="m176 94-1-9 1-1v-3c3 2 1 7 5 9 1 2-1 2-2 3l-1 1h-2"/><path fill="#E8EBE9" d="m179 93 2-3 4 1c-1 2-2 5-6 2"/><path fill="#E9E2E4" d="M188 93h-2c1-2 1-3 3-2v1a12 12 0 0 0-1 1m-10 7h3c-1 1-1 2-2 1l-1-1m3-1v-1l1 1h-1z"/><path fill="#E8EBE9" d="m188 99 1-1-1 1m-10-5 1-1-1 1"/><path fill="#DAE6E9" d="M194 107c-3-4 2-7 1-10l1-6c2-2 4-2 6-2l1-2h4c1 2 5-1 5 4 2 3 2 6 2 9l-1 2v4c-1 2-2 3-4 3h-1l-14-2"/><path fill="#E1F1F3" d="M213 101c0-3-2-6-1-10l17-2h2c-2 5 0 10-2 16 1 2 0 3-2 4l-14-1-1-2 1-4v-1"/><path fill="#EDF0EE" d="M231 89h-2l1-2 2-2 1-1 4-4h1c-1 4 1 7 1 11l-2-1c-2-2-4 0-6-1"/><path fill="#E2DCDE" d="M232 85c0 1 0 2-2 2v-2h2"/><path fill="#EAFCFD" d="m204 88-2 1c-1-1-3-3-1-4 2-2 3-1 4 2l-1 1m3-1h-1 1m0-4c0-1 0 0 0 0m-8-3c0-1 0 0 0 0"/><path fill="#E9E2E4" d="m155 88 4 2c2 2-1 5 1 8v3l-2 7v1l-14-1c-4-4-1-8-1-12-1-2-1-5 1-6 4-2 7-3 11-2"/><path fill="#F2EDEC" d="m155 88-10 2-1-1V72l14-1c-1 2-2 5-5 5l-1 2c2 3 0 5-1 7 2 1 2-1 4-2 0 2 3 3 0 5"/><path fill="#EDF0EE" d="M158 108c-1-2-1-4 1-6 5 1 3-4 5-6l-5 2c-3-2 0-5 0-8h10l-1 16v1c-3 3-6 3-10 1"/><path fill="#F0DFE2" d="M162 70v1-1"/><path fill="#E8D8DD" d="m176 84-1 1 1-1"/><path fill="#F2F5F4" d="M66 242v-1a16 16 0 0 1 3-2v2l-3 1"/><path fill="#E2DCDE" d="m69 228 2 1-1 1-1-2"/><path fill="#F2EDEC" d="M62 234v-2l1 1-1 1"/><path fill="#E2DCDE" d="m70 226-1 1h-1l2-1"/><path fill="#F2F5F4" d="m72 235 1-1v1a28 28 0 0 0-1 0m0 0"/><path fill="#EDF0EE" d="m69 246-1 2 1-2m-1 3h-2l2-1v1"/><path fill="#E2DCDE" d="M71 226h-1 1"/><path fill="#E9E2E4" d="M69 241v-2l1 1-1 1"/><path fill="#E2DCDE" d="M85 233h-2v-2h2v2"/><path fill="#E8D8DD" d="m76 232 1-1v1a5 5 0 0 1-1 0m0 0v1-1"/><path fill="#E2DCDE" d="M83 233v1l-1-1h1"/><path fill="#E8D8DD" d="M73 235v-1 1"/><path fill="#F2EDEC" d="M144 219v-1l2-5c4-2 7-2 10-1l3 3c1 5 0 10-2 15l-16 1c0-2 4-3 3-6v-6"/><path fill="#F2F8F7" d="m157 230 1-15c-2-2 0-3 2-4s5 0 8 1l3 3v4l-1 4v2c0 3-2 4-4 6l-4 1h-1l-2-1-2-1"/><path fill="#E8D8DD" d="m133 214-1 2c-1 2-2 3-5 2-2-3-2-6-2-9l-1-6-1-1 1-7 2-3c2-2 3-3 5-3 4 1 3 4 3 6 0 6 1 12-2 18l-1 1h2"/><path fill="#E8EBE9" d="m125 195-1 7a6 6 0 0 1-1 1l-1 2-1 2c-4-1-3 2-5 4l-2 1c-2 2-4 0-6 1h-1l-1-2 2-3a41 41 0 0 1 2-4h1l1-1h1l-1-1c1-3 3-4 5-6l2-1 2-1 4 1"/><path fill="#F2EDEC" d="m127 218 5-2v5l-6 6h-1v-6l1-1a23 23 0 0 0 1-2"/><path fill="#E9E2E4" d="m114 212 2-1-2 1m8-7 1-2-1 2m1-2 1-1v1h-1"/><path fill="#E8EBE9" d="m126 220-1 1 1-1"/><path fill="#DAE6E9" d="M107 210v3h-5c-5-1-9 1-13 4 3-2 0-4-1-7a142 142 0 0 1 2-15c4-2 8-2 12-2 4 1 6 5 6 9l1 5v1l-2 2"/><path fill="#DBE8EA" d="m89 229 1-2-1 2"/><path fill="#DAE6E9" d="M85 213c0-1 0-2 2-2l-2 2"/><path fill="#E2DCDE" d="m126 227 6-6v2c-2 1-3 4-6 4"/><path fill="#E8EBE9" d="M131 214c3-6 2-12 2-19 3-3 7-2 10-2l2 1v7c-1 4 0 8 2 13-1 1 0 3-3 4-1-5-4-6-11-4h-2m13 5c-1 2 2 4 0 6-2-2-1-4 0-6"/><path fill="#EADBDF" d="M81 169h25l3 1v5l-1 3h-5l-1 1-2 1-1-2-16-2c-2 0-4 0-5-2v-2l1-1 2-2"/><path fill="#F2F5F4" d="M109 207c-2 0-2-2-2-3 0-4-1-6-4-8-1-2-2-2-3-1-3 2-6-1-10 0v-4h5l2-3 2-1 1-1 2-2 2-1h-1c0-2 1-3 3-2 2 2 2 4 2 6 0 3 1 5 3 6l2 2-1 1-1 1 1-1 2-2c2-1 4-1 4 2l-5 6-2 2-1 2-1 1"/><path fill="#E8EBE9" d="m103 184-3 3-1 1c-1 1-3 2-3 4h-1l-5-1 3-5c4 0 4-4 6-7h2l1-1 1-1h4c1 1 1 2-1 4-1 0-2 1-2 3h-1"/><path fill="#F0DFE2" d="m80 171-1 1c-1 1-4-1-4 3h-1c0-1 0-2-2-2l-1-4h9v2"/><path fill="#E2DCDE" d="M75 175c0-3 1-4 4-3l-1 2-3 1"/><path fill="#E8EBE9" d="m92 186 1-1v1h-1m7-8 1 1h-1a11 11 0 0 1 0-1"/><path fill="#E2DCDE" d="M70 193s0-1 0 0"/><path fill="#E8EBE9" d="m92 186-1 1 1-1m-1 1"/><path fill="#DBE8EA" d="M76 107c0-3 1-5 4-4 2 0 3-1 4-3l4-4 1-2a26 26 0 0 0 0-5c3 1 5 0 8-3l10-10v11c0 2 1 3 3 4l-1 2-1 1c-1 3-2 5 0 8l1 2 1 2-2 3h-7l-7-1c-6 1-12-1-18-1"/><path fill="#EDF0EE" d="m79 65-3 5h-2l1-5h4"/><path fill="#F8F1F0" d="M235 73c0 1 0 2-2 1l2-1m2-1-2 1 2-1"/><path fill="#EAFCFD" d="M239 67v1-1"/><path fill="#DBE8EA" d="m237 90 2 1c0 1 0 2 2 2l-1 3h-2c-2-1-1-3-1-6"/><path fill="#F2F5F4" d="M238 80h-1c-1 1-2 3-4 3 0-2 2-3 4-5l1 2"/><path fill="#DBE8EA" d="m244 90-2 1 2-1"/><path fill="#E8D8DD" d="M70 60h-1 1"/><path fill="#E8EBE9" d="M108 103c-6-3-2-6 0-10l1-1 1-1c4-3 9-2 14-1l1 4v1l-1 1h1l1 1v8l-3 3c-4 2-8-1-11 1l-3-3v-1l-1-2"/><path fill="#E8D8DD" d="M124 95v-5l1-1 1-1c1-1 3-1 3-3l1-1h2v4c3 5 3 12 3 18l-4 4-1 4-2 1h-1l-3-2-1-2 2-6v-9l-1-1"/><path fill="#E8EBE9" d="m126 88-1 1v-1h1"/><path fill="#E8D8DD" d="m126 76-1 1 1-1"/><path fill="#F4FAF6" d="m193 208 1 6c3 5 1 10 1 16l-6 2h-3l-2-1h-1c-2-2-6-1-9-2v-3l1-6v-8l1-1 3-1c6 3 10 0 14-2"/><path fill="#E1F1F3" d="M195 230c-2-5-1-10-1-16 4-2 9-1 13-1l6-1v4l-1 3c2 4 1 7 0 11v1c-3-1-6 0-9-2s0-1 0-1v-1l-1 1-2 2h-5"/><path fill="#DBE8EA" d="M203 228v1l-3 1c0-2 1-3 3-3v1"/><path fill="#F4FAF6" d="M189 237c0-1 0 0 0 0"/><path fill="#EADBDF" d="m175 226-1 3-1 2-3-1c0-3 2-4 5-4"/><path fill="#F8F1F0" d="M183 231h1-1m3 1h1l-1 1v-1"/><path fill="#EAFCFD" d="M212 217a43 43 0 0 0 1-6c2 0 3 2 5 1 4-2 7 3 12 1v15l-2 3h-7l-2 1h-3c0-2-2-2-4-2v-4c1-3-1-5-2-7l2-2"/><path fill="#E2DCDE" d="M230 228v-1l2-2 4-2-1 2-3 3h-2"/><path fill="#F2F5F4" d="M226 231h2c0 1-1 2-3 2l1-2"/><path fill="#EDF0EE" d="m232 228 3-3c0 2-1 3-3 3"/><path fill="#E2DCDE" d="m235 242-1 2h-1c0-1 0-2 2-2"/><path fill="#F2F5F4" d="m222 236 2-2c0 1 0 2-2 2"/><path fill="#E2DCDE" d="m233 244-1 1 1-1"/><path fill="#F2F5F4" d="m221 237 1-1-1 1"/><path fill="#E2DCDE" d="M216 232h2v1l-2-1"/><path fill="#F2F5F4" d="M218 231h3l-2 1-1-1m0 2v-1h1l-1 1"/><path fill="#E8EBE9" d="M134 107a645 645 0 0 1 0-18c3 4 6 2 10 0l1 1c-2 5-1 11-1 17-3 3-7 3-10 0"/><path fill="#E8D8DD" d="M129 85c-1 0-2 0-1-1h2l-1 1z"/><path fill="#EDF0EE" d="M180 211h-4v-1l2-3h1c1-1 0 0 0 0l-2-2-1-1v-7c4-4 9-5 12-2v1c0-3 1-3 3-2l1 2h2v5l-1 1h-2l-1 1a9 9 0 0 0-2 1l-1 1-2 2c-1 1-2 3-5 4"/><path fill="#E8EBE9" d="m192 202 2-1-1 7c-3 4-7 7-13 3l5-5 1-1 2-2 4-1"/><path fill="#F4FAF6" d="M200 192v1l-3 2c0-2 1-3 3-3m0 2h2-2m14 4v1l-1-1h1"/><path fill="#EAFCFD" d="M230 210v2h-1c-1-1 0-1 1-2"/><path fill="#DAE6E9" d="M217 204c0-1 0 0 0 0"/><path fill="#F4FAF6" d="m229 196 1 1-1-1"/><path fill="#FDFBF0" d="M187 196v-2c-3 1-8-1-10 4-2 0-2-2-3-3a5 5 0 0 1 0-1v-3c1-5-1-10 2-15 4-2 7-1 11 0 2 2 6-2 8 2v8c2 3-1 6-3 10h-1c-1 0-1-3-3 0h-1"/><path fill="#FBF6F4" d="m195 168-4 2-8 1c-8 0-10-3-8-11 6-5 13-4 20-1v9"/><path fill="#F0DFE2" d="M176 160c-1 7 1 10 9 10h6l-4 6c-3 2-7 0-11 0-1-4-4-6-7-8-2-3-2-5 0-8s4-3 7-2v2"/><path fill="#E8EBE9" d="M195 168c-2-3-1-5-1-9v-1c4-2 7-2 11-1 3 3 0 5-2 7l-2 2-4 2h-2"/><path fill="#F2F5F4" d="m197 168 3-3 1-1c2-1 4-3 5-6h2c3 3 3 4-3 9l-8 1"/><path fill="#DBE8EA" d="M205 167c0-2 2-3 3-4 2-2 1-3 0-5 1-1 2-2 3 0 1 4 2 7-3 10l-3-1"/><path fill="#F4FAF6" d="m204 178-2 1v-2c1 0 2-1 2 1m-2 13-2 1c0-1 0-3 2-1m5-6v-1l1 1h-1m-5-6-1 1 1-1m-1 1-1 1 1-1m-2 2 1-1-1 1m0 4c-1 0 0 0 0 0m8-1-1 1 1-1m-1 1-1 1 1-1"/><path fill="#F2F5F4" d="M238 174c0-1 0-2 2-2l-1 2h-1"/><path fill="#E8D8DD" d="M238 174h1l-1 1v-1"/><path fill="#F2F5F4" d="M250 152c-1 0 0 0 0 0m2 5h-1 1"/><path fill="#E9E2E4" d="M211 158h-17c-4-4-1-9 0-14l1-1h15l3 3v12h-2"/><path fill="#F2EDEC" d="M213 158c-2-4 0-8-1-12l2-2c5-1 10-2 15 0l1 12-2 2h-15"/><path fill="#F8F1F0" d="m228 158 2-2c-1 2 2 4 0 6l-2-4"/><path fill="#F2F8F7" d="M229 144a588 588 0 0 1-17 1c-2-4-2-7-1-11l2-2h14c1 0 2 0 3 2 0 3 2 5 1 8l-2 2"/><path fill="#F2EDEC" d="M175 226c-2 0-3 3-5 4l-4 1 3-6v-2l1-4h6l-1 7"/><path fill="#F6EAEB" d="M161 232h1s-1 2-1 0"/><path fill="#F2F5F4" d="m232 225-2 2v-2h2"/><path fill="#DBE8EA" d="M238 102v-4c2 1 0 2 0 4m0 1v-1 1m2-7"/><path fill="#F4FAF6" d="M213 107h15l1-2 3 6a2 2 0 0 1-1 1v9l-2 5-1 1-5 1h-4c-3-1-7 1-9-3l-1-8a7 7 0 0 1 0-2l1-2 3-6"/><path fill="#F8F1F0" d="M231 114v-2l1-1h2l-3 3m4-5-1 2 1-2"/><path fill="#F6EAEB" d="m227 132-3 1-1-1 1-1v-1l1-1 2 1v2"/><path fill="#E8D8DD" d="M228 126h2v1l-1 1h-1v-2"/><path fill="#F6EAEB" d="M228 128h1-1m1 0 1-1-1 1m-1 1-1 1 1-1m-120 28c-2-4-1-8-1-13 6-1 12-2 19 0v13c-5 3-13 3-18 0"/><path fill="#FBF6F4" d="M125 144h-18c2-3-2-7 0-11l6-1c0-2 2-3 2-2 2 6 6 0 9 2h1l1 1 2 5v2l-1 1-2 3m-17 13c5 2 11 0 17 1l2 4c-1 2 0 5-2 7-4 2-9 1-13 2l-2-1-4-1c1-4 0-8 2-12"/><path fill="#F2EDEC" d="M88 150c-1 0-1 0 0 0 0-1 0-1 0 0m0-4"/><path fill="#F2F8F7" d="M91 159z"/><path fill="#FDFBF0" d="m123 111 1 2 2 2v1l1 5v1c-1 2-1 4-4 4l-16-1c-3-4-1-8-1-12v-3l1-1a52 52 0 0 0 2-3c1 1 2 3 4 2 3-2 6 0 10 0v3"/><path fill="#EED2D9" d="M123 126c2 0 2-2 3-4l2-1h2l3 2c0 3 3 2 5 3 2 2 3 0 4-1a5 5 0 0 1 1-1c4-1 8 0 12 1h2l2 1c1 3-1 5-2 7-4 3-8 1-13 2l-5-1c-2 0-4 0-5 3-2 1-4 3-7 3-2-2-1-4-2-7v-1h-1l-1-6"/><path fill="#E8EBE9" d="M107 109v16a123 123 0 0 1-17-1h-1c1-3 5-3 6-7l3-2 2-2 1-1 2-2 2-1h2"/><path fill="#F4FAF6" d="M90 124h1-1"/><path fill="#E9E2E4" d="M90 163h-1 1"/><path fill="#E2DCDE" d="M80 171v-2h1l-1 2"/><path fill="#E8EBE9" d="M94 108c2-3 4-1 7 0v3l-1 1-3 2a10 10 0 0 1-2 3c-2 0-4 1-5-1s1-3 2-4 3-2 2-4"/><path fill="#DBE8EA" d="M74 107h2-2"/><path fill="#EAFCFD" d="m89 94-1 2 1-2m-5-2c0 1 0 0 0 0"/><path fill="#E2DCDE" d="m233 83 4-3c0 2-1 3-4 4v-1m0 1-1 1 1-1"/><path fill="#FBF6F4" d="M159 126h-2c-1-6-2-12 1-18l10-1c2 2 1 5 2 8v3c0 9-2 10-11 8"/><path fill="#F0DFE2" d="M159 126h7c2 0 3-1 3-4v-6l1-1a98 98 0 0 1 4-3h2l1 1v5l-1 1 1 2c0 2 2 3 4 4 3 0 3 2 1 4s-3 3-5 3c-5-5-5-5-8 2h-10l-3-1 3-7"/><path fill="#F8F1F0" d="M176 112h-1l1-6 2-1 1 1 1 1c0 3-1 5-4 5"/><path fill="#F8F1F0" d="m178 101 3-1c1 2 2 4 0 6h-2l-2-2v-1l1-2"/><path fill="#E9E2E4" d="M177 104c1 0 2 0 2 2h-3l1-2"/><path fill="#F4FAF6" d="M178 100v1l-1 1c-1-1-1-2 1-2"/><path fill="#E9E2E4" d="m177 102 1-1-1 2v-1"/><path fill="#F8F1F0" d="M175 112h-1 1"/><path fill="#FBF6F4" d="M168 107v-1 1"/><path fill="#FDFBF0" d="M176 112c2-1 3-2 3-5h3c1 1 1 2 3 2 3-2 5-1 9 0 3-1 2 1 2 2v12l-1 2c-1 2-2 2-4 2s-3 0-4 2l-1 1c-2 1-4 3-5-1 0-1 3-3-1-3-3 0-4-2-4-6v-8"/><path fill="#EDF0EE" d="M196 120c-4-2-2-6-2-9 0 0 2-1 0-2v-2c5-2 9 0 14 1v1l1-1c1 0 3 0 3-2l1 1a47 47 0 0 1-2 7l-1 1v2l-2 1-1 1a208 208 0 0 0-7 7c-2 0-4 0-5-2l-1-1c1-1 2-1 2-3"/><path fill="#F4FAF6" d="m188 99 1-1c1 0 2 0 1 1h-2m4-3 1-1h1a7 7 0 0 1-2 1m-7 7v1-1m-4-4h1l-1 1v-1m5 2c1 0 0 0 0 0m2-8 1-1-1 1m-6 14h-1v-1l1 1"/><path fill="#E9E2E4" d="m209 108-1 1v-1h1"/><path fill="#E1F1F3" d="m204 88 1-1-1 1m9 14v-1 1z"/><path fill="#DAE6E9" d="M213 102v-1l1 1h-1m2-8c-1 0 0 0 0 0"/><path fill="#F6EAEB" d="m158 108-1 18-1 1-13-2c-1-6-2-12 1-18l14 1"/><path fill="#DBE8EA" d="m159 98 3-3c1-1 2-3 4-1 1 2-1 3-1 4l-1 2c0 3-2 4-5 2v-4"/><path fill="#E9E2E4" d="M147 214c-6-5-2-12-3-19 1-2 4-2 6-2h7l2 2c0 6 0 12-3 18-3 0-6-2-9 1"/><path fill="#EDF0EE" d="m156 213 3-18c2-4 5-2 8-2h2c2 7 0 13-1 19h-8c-2 1-2 1-2 3-1 0-2 0-2-2"/><path fill="#E8EBE9" d="M150 217h-1l1-1v1"/><path fill="#E8D8DD" d="M168 212c-1-6 1-11 1-18l2-1 1 1 3-1 2 5-1 1 1 2v4l-1 5v2c-1 2-2 5-6 4l-2-4"/><path fill="#F6EAEB" d="M170 216c3 0 3-3 6-4v6l-4 3-2-2v-3"/><path fill="#E8D8DD" d="M169 223v2-2"/><path fill="#FDFBF0" d="m106 181 1-4 1-2h16c3 2 2 5 2 7l1 6v4l-2 3h-4l-2 1h-1c0-3-2-1-4-1l-2-1c-4 0-5-2-5-5l-1-8"/><path fill="#FBF6F4" d="m144 194-11 1c-2-2 1-4-2-6-2-3 1-6-1-10l2-1c1-2 3-2 5-3l8 1 1 2c-2 3-1 7-1 11l-1 5"/><path fill="#F0DFE2" d="M131 179c3 3 0 6 0 10l-4 3v-1l-1-1c-2-4 0-9-2-14 3-1 4-1 5 2l2 1"/><path fill="#E8EBE9" d="m130 215-1 1h-1a7 7 0 0 1 2-1m0 0 1-1-1 1"/><path fill="#E9E2E4" d="m111 204 2-2v2h-2"/><path fill="#F2F8F7" d="m107 210 2-2c0 1 0 2-2 2"/><path fill="#E9E2E4" d="m119 196 2-1-2 1"/><path fill="#F2F8F7" d="M113 204v-1l1 1a5 5 0 0 1-1 0"/><path fill="#E9E2E4" d="m110 206 1-2-1 2"/><path fill="#F6EAEB" d="m144 194-1-11c0-3 1-4 3-6 3-2 7-1 11-2 3 6 3 12 0 19-4 2-8 0-13 1v-1"/><path fill="#F0DFE2" d="M124 176c-5 1-10 3-16-1-1-2 1-3 1-5l1-1h15c1 3 0 4-1 7"/><path fill="#F4FAF6" d="M99 179h2c-1 0-1 2-2 0m4-2-1 1 1-1"/><path fill="#E9E2E4" d="m112 194 2 1-2 1v-2m-3 5v1-1m-9-12s0 1 0 0m0 1h-1 1m-5 4h1-1m8-8h1-1m8 13 1-1-1 1m0 0"/><path fill="#F2F5F4" d="M100 188h-1l1-1v1"/><path fill="#F4FAF6" d="m100 111 1-3h2l1 2-2 2-2-1"/><path fill="#E8EBE9" d="m104 110-1-2h2v1l-1 1"/><path fill="#F4FAF6" d="M108 103c1 0 2 0 1 2l-1-2m1-11-1 1 1-1m1-1-1 1 1-1"/><path fill="#E8EBE9" d="M103 106c-1 0 0 0 0 0"/><path fill="#F4FAF6" d="M105 109v-1l1 1h-1"/><path fill="#FBF6F4" d="M123 111v-3l2-3c-1 2 3 5-2 6"/><path fill="#F4FAF6" d="M112 100v1-1m0 0 1-1v1h-1"/><path fill="#F2F5F4" d="m121 99-1 1 1-1m-5 5 1-1-1 1m-1 1 1-1-1 1m9-10 1 1h-1v-1"/><path fill="#F4FAF6" d="M118 94c0-1 0 0 0 0"/><path fill="#FDFBF0" d="M120 107c0-1 0 0 0 0"/><path fill="#FBF6F4" d="M144 107c-2 6 0 12-1 18l-5 2c-4 1-5-4-9-6v-2l2-3c1-2 0-4-1-6 0-2 2-2 4-3h10"/><path fill="#F6EAEB" d="m126 121-1-5 2-1 2-1 2 2-1 3-1 1-1 1h-2"/><path fill="#EADBDF" d="M131 116c-1 0-2 0-2-2l1-4c4 1 3 4 2 7l-1-1"/><path fill="#FBF6F4" d="m125 115-1-2 3 1-2 1"/><path fill="#EADBDF" d="m125 115 2-1v1l-2 1v-1"/><path fill="#E9E2E4" d="m129 85 1-1-1 1"/><path fill="#E8D8DD" d="M172 221c1-1 2-3 4-3v1l-4 2"/><path fill="#DBE8EA" d="M212 217c0 1 0 2-2 2l2-2m-4 6s-2-1 0-1v1"/><path fill="#EAFCFD" d="M208 223v-1 1c1 0 0 0 0 0"/><path fill="#DAE6E9" d="M205 218c0-1 0 0 0 0"/><path fill="#EAFCFD" d="M203 228v-1h1l-1 1"/><path fill="#E2DCDE" d="M219 232h-1v-1l1 1"/><path fill="#FDFBF0" d="M176 210c-1-2 0-3 1-5l2 1v1l-3 3"/><path fill="#F4FAF6" d="M192 202c-1 1-2 3-4 1l1-1 2-1 1 1"/><path fill="#FDFBF0" d="M177 203v-2 2"/><path fill="#E9E2E4" d="m186 205-1 1 1-1m5-4-2 1 2-1m-9 2c-1 0 0 0 0 0m3-4"/><path fill="#F4FAF6" d="M179 207v-1 1"/><path fill="#E9E2E4" d="M187 196h1-1"/><path fill="#E8EBE9" d="M191 196h1-1"/><path fill="#FDFBF0" d="m176 199 1-1-1 1"/><path fill="#F0DFE2" d="m158 176-12 1c-3 0-6 1-9-1-1-2-2 0-4 0-1-4-3-7-8-7l1-7c2-2 3-5 7-3 0 8 0 9 11 9h14c3 2 7-1 10 0l2 2c-1 5 2 5 6 6l-1 16v1l-4 2c0-1 0-2-2-1-3-2-1-4-2-7v-5c0-3-1-4-4-4-2 0-3 0-5-2"/><path fill="#E8D8DD" d="M175 193v-1 1"/><path fill="#F6EAEB" d="M194 144c1 4-2 9 0 14v1c-6-1-12-4-18 1v-1c-2-5-1-10-1-15 7-1 12-2 19 0"/><path fill="#FBF6F4" d="M169 169c-3-1-7 2-11 0-3-3-3-6-1-10l1-2c4-1 8-1 11 2l1 1c-2 2-1 5-1 8v1"/><path fill="#EED2D9" d="M170 160h-1c-2-5-2-10-1-15l1-2 7-2v18c-2 0-4-2-6 1m-1 9v-1c4 1 8 2 7 8l-3 1c-4-1-5-3-4-8"/><path fill="#DAE6E9" d="m201 164-1 1 1-1"/><path fill="#FBF6F4" d="M176 144v-3c-2-2-1-4-1-7l2-2 4-3c1 4 3-1 5 0l8 4c2 3 1 7 1 11h-19"/><path fill="#EDF0EE" d="M195 144c-1-3-2-7-1-11 6-2 12-1 18 0v13l-2-2c-5 2-9-1-15 0"/><path fill="#E9E2E4" d="M212 146v-1h2l-2 1"/><path fill="#E8D8DD" d="M212 133h-18c-3-1-6 0-8-4l4-3c2 0 3 0 5-2l5 1c3-3 6 0 10-1 2 3 6 1 9 3-1 2-2 4-5 5l-2 1"/><path fill="#F0DFE2" d="M214 132c1-2 2-4 5-5 1 0 2-3 4 0 0 1 2 1 2 3l-1 1-2 2c-2 0-5 1-8-1"/><path fill="#E8D8DD" d="m222 133 2-2v2h-2"/><path fill="#E8EBE9" d="M210 124c-3 3-6 0-10 1 1-4 4-5 7-7l1-1 1-1h1c0 2 3 5 0 8"/><path fill="#F8F1F0" d="m224 130-1-3c2 0 3-2 5-1v2l-3 2h-1"/><path fill="#E2DCDE" d="M231 112v1l-1-1h1m1-1-1 1 1-1"/><path fill="#E9E2E4" d="m210 115 1-1-1 1"/><path fill="#E8D8DD" d="M225 130c0-1 1-2 3-2v1l-1 1h-2m-1 0h1l-1 1v-1"/><path fill="#EED2D9" d="M133 159c-3-1-4 3-7 3l-1-4v-13c1-2 2-5 6-5 3 0 3 3 3 5v11l-1 3"/><path fill="#F0DFE2" d="M131 141c-3-1-3 3-6 4v-1l1-4h1c2-1 3-3 6-3 1 2 0 3-2 4"/><path fill="#EADBDF" d="M125 132v1-1m-12 0"/><path fill="#EED2D9" d="M127 140h-1 1"/><path fill="#EADBDF" d="m110 169-1 1 1-1"/><path fill="#E8D8DD" d="M126 121h2c0 1-1 2-2 1v-1"/><path fill="#F4FAF6" d="M107 111v-1 1c1 0 0 0 0 0"/><path fill="#F6EAEB" d="M133 157v-12c1-2 2-2 4-2 5 1 6-2 6-7l1-2c4-2 8 1 12-1h2c2 3 0 6-2 9a12 12 0 0 1 0 1l-2 2h-3c-5 0-6 0-6 6l-1 5c-3 4-7 4-11 1"/><path fill="#FBF6F4" d="M144 134v5c-1 3-2 7-7 5l-4 1c-2-1 1-3-2-4l2-4c-1-4 2-4 5-4l6 1"/><path fill="#F6EAEB" d="M138 127c0-3 3-2 5-2-1 3-2 4-5 2"/><path fill="#E8D8DD" d="m128 121 1-1v1h-1"/><path fill="#F0DFE2" d="m156 127 1-1-1 1"/><path fill="#F4FAF6" d="M95 117c0-1 0-2 2-3l1 1c0 2-1 3-3 2m5-4c1 2 0 3-2 3 0-1 0-2 2-3"/><path fill="#FDFBF0" d="M103 119h-1 1m-3 2v1-1"/><path fill="#F4FAF6" d="m102 112-1 1 1-1zm2-2 1-1-1 1m-7 4c0-1 0-2 2-2l-2 2zm2-2 1-1-1 1"/><path fill="#E8D8DD" d="m170 115-1 1 1-1"/><path fill="#F8F1F0" d="M155 143c1-3 3-6 3-10h11l1 1 1 1-1 8-1 1c-3 3-7 2-11 2l-3-3"/><path fill="#EED2D9" d="m177 132-1 1c-1 2-3 3-6 1l-1-1v-4c0-3 1-3 3-3s3 0 3 2l2 4"/><path fill="#F8F1F0" d="M176 114v2-2m0 4v1-1m0 1v1-1"/><path fill="#E8EBE9" d="M181 106v1h-2v-1h2"/><path fill="#FBF6F4" d="M190 126c0 2-1 3-4 3 1-2 0-4 4-3"/><path fill="#E9E2E4" d="M196 120c2 2 0 2-2 3l2-3"/><path fill="#F4FAF6" d="M203 114c-1 1-1 3-4 3 1-3 2-5 6-5l-2 2"/><path fill="#E9E2E4" d="m203 114 2-2c0 1 0 2-2 2m5 3-1 1 1-1m1-1-1 1 1-1m-10 3c-1 0 0 0 0 0"/><path fill="#FBF6F4" d="m158 176 5 1c4-1 6 0 6 5v12l-10 1-2-1c2-6 0-12 1-18"/><path fill="#F0DFE2" d="M171 195v1-1"/><path fill="#E8D8DD" d="m126 190 1 1-1-1"/><path fill="#F6EAEB" d="M133 176c1 0 2-3 4 0l-5 2h-1c-1-2 0-2 2-2"/><path fill="#F0DFE2" d="m131 179 1-1-1 1"/><path fill="#EED2D9" d="M133 176c-1 0-2 0-2 2l-2 1c-1-1-2-4-5-3-2-2 1-4 1-7 6-2 8 0 8 7"/><path fill="#F6EAEB" d="m129 179 2-1v1h-2"/><path fill="#E8D8DD" d="M130 187c0 1 0 0 0 0"/><path fill="#E8EBE9" d="m99 112 1-1 2 1-1 1-3 3-1-2 2-2"/><path fill="#E8D8DD" d="m131 116 1 1-2 2 1-3m-2 4 1-1-1 1"/><path fill="#F6EAEB" d="M158 158v11h-14c-3-3-1-7 0-10 4-3 9-2 14-1"/><path fill="#FBF6F4" d="M144 158v11h-5c-7 0-9-4-6-10v-2c3 0 6 2 10-1l1 1v1"/><path fill="#EED2D9" d="M149 171c1 2 2-1 3 0 0 2-3 3-4 4l-1-1c-1-2 0-3 2-3"/><path fill="#F0DFE2" d="M143 158v-2l1-6c-1-6 1-7 10-6l1-1 3 2c2 3 1 7 1 12l-1 1c-4 1-9-1-14 1a10 10 0 0 0-1-1"/><path fill="#F6EAEB" d="M159 157c-2-4 0-7-1-12l11-1v16c-2-3-6-2-10-3"/><path fill="#F0DFE2" d="m170 134 6-1v8c-2 0-2 5-6 2-3-3-1-6 0-9"/><path fill="#F2F8F7" d="M203 141c0-2 0-4 2-4l1 1c1 2-1 2-3 3m7-3c0-1 0 0 0 0m-7 3z"/><path fill="#F4FAF6" d="M207 120c0 1 0 0 0 0"/><path fill="#F8F1F0" d="m155 143-1 1 1-1"/><path fill="#F0DFE2" d="m169 133 1 1-1-1"/><path fill="#F6EAEB" d="m143 158 1 1-1-1"/></svg>