<svg xmlns="http://www.w3.org/2000/svg" width="340" height="266"><path fill="#EBE6E8" d="m148 18 12 10 9 8 10-7c24-22 49-30 82-29 23 1 45 14 61 30 13 15 19 33 18 53v4c0 39-18 73-44 102l-1 2c-11 12-23 22-36 32l-2 1c-25 20-60 44-93 42-32-4-64-27-88-47l-2-1c-11-10-23-20-33-32l-3-3c-15-19-28-41-34-64l-1-2-3-33v-4c0-11 1-21 7-31l1-2C19 26 37 11 60 4c30-9 62-5 88 14"/><path fill="#F4D8E1" d="m148 18 12 10 9 8 10-7c24-22 49-30 82-29 23 1 45 14 61 30 13 15 19 34 18 54v3c0 8 0 15-2 23l-3 1v-4c3-26 3-50-14-73-6-7-14-16-24-18l-5 1c-2 4-2 6-1 10a99 99 0 0 1 0 5l-4 2-1-4V18c-4-2-4-2-9-1l-8-2 1-3 4-1h3l5 1 4-2c-9-4-18-6-28-6V2l-33 3v11l-5 1V7l-2 1-3 1-3 1-4 1 1 5-7 1c-7 1-12 5-16 10v5c-3 2-4 2-8 2l-4 5h2l7-1 4 4c-3 2-5 2-8 2h-14l-1-5h2l-5-6-6 1-1-1v-3c0-3-1-4-3-6-7-6-7-6-16-7h-4v-6l-3-1-3-1-4-1-4-3-9-1h-3L94 3h-4l-9-1v8c4 2 7 2 12 2h12l-1 4c-5 1-10 2-15 0l-2 1-5-1c-2 12-2 12 1 23h10l-2 5-10-1 1 22-3 2-3-2v-7l-1-3 1-5 1-3v-2l-7-1H55v12l-1 3v7l-5 1V44H38l-8 1-6-2 1-4h18l6-1V18c-6-2-6-2-10-1-8 6-18 13-23 22v4l-2 1-1 2-2 3c-3 3-4 6-5 10v2c-2 6-3 13-3 20v3l2 25 1 7 4-1v-8l3-3 2 1v10l12 1h21l1-10V86l-1-6 3-3h2l10 1 3-1h3l1 3-3 3-10-1-4 6 1 5a107 107 0 0 1 0 5v17l12 2-1-3 4-1 3 3 4-1v-7l-1-5 1-5 1-3v-2h3l1 7v15l16 1h6l2 2-1 3-6 1h-6l-1-1a75 75 0 0 0-5 0h-4l-1 8v15l3-1 8 1v-16l11-1c3 6 2 11 1 17l15-1 1 15v24h19l6 1h7l2-2a176 176 0 0 0-1-5l1-2-1-8 1-10v-6c-5-1-12-2-17 0l-6-1-1-3 3-3h14l2 1 9-1 3 1 8-1 8 1h4v-20l-1-3a185 185 0 0 0-8 0h-7l-1-2 3-3h13l1-6c0-3 0-3 2-5l1-1 2 1v10l10 1 2-11 10 1c2 3 1 6 1 9h11v-8l2-2h3l-1 4 1 6c4 2 9 1 13 0l4 1h4l6 1 6-2V98l2-5 3 1v12l1 5v10l-1 3 1 3c0 4 0 7-2 11l-3-1v-10l-1-5c-3-2-6-1-10-1v8l-1 8-4 1h-3l-4-1v-14c-4-3-7-2-12-1l1 3-1 12-3 2-1-4v-12c-3-2-6-2-9-2l-14 1-1-1a75 75 0 0 0-5 0h-4c-2 4-2 6-1 10v13h11l-2 5h-8v4l-2 6 1 3c1 4 1 6-1 10h-4v-23h-21c-2 5-2 5-1 10v10l-1 10 2 4 3-1 14 1 7-1c2 3 2 6 2 10l1 8-1 4v6l-5 1v-23h-14l-8-1v4l-1 2 1 5v10l-1 2-2 1-3-3 1-11-1-5 1-2c-3-3-4-3-8-3l-2 1a130 130 0 0 1-6 0h-4l-8-1h-6v23l-4 2-1-15v-9h-3l-5-1h-3c0-3 0-3 2-5h2c3 1 3 1 7-1v-31l-11-1H86l-5-1v13l-3-1-1 3-2-1v-2l1-3v-3l-1-5H55l-1 7v15l-5 1v-14l-1-9H26l1-6 2 1 4-1 5 1h11v-18l-1-4-15-1H19l-9 1v4l4 1 1 9c1 15 15 31 24 42l4 7 3 1 4 4c3 5 3 5 8 8h7c4 0 4 0 6 2a93 93 0 0 1-1 4l1 3v4l8 5 1 2c3 3 5 3 9 3l4 1v3l-2 1 24 16v-10l5 1v13l6 2 3 1a447 447 0 0 0 6-1h11l3 1h3l2-2v-16l-1-4c-7-2-13-1-20 0l-2-1 1-5h11l10-1h3l4 4-2 3 1 5-1 11 2 6 3-1h8l6 1 3-1a100 100 0 0 1 5 0l1 2c1 2 1 2 3 2l13 1h3l6-4a249 249 0 0 1 5-2l32-20 2 1v2a127 127 0 0 1-7 5l-2 1c-55 35-55 35-83 29-30-9-58-26-82-46l-2-1c-11-10-23-20-33-32l-3-3c-15-19-28-41-34-64l-1-2-3-33v-4c0-11 1-21 7-31l1-2C19 26 37 11 60 4c30-9 62-5 88 14"/><path fill="#F1E4E3" d="m264 3 7 1 2 1 13 4v3h-8l-2 1-6-1v3l4 1h3l4-1 6 2v16l3-2-1-10 2-5c4-2 7-1 11 1l9 7 2 1c15 13 24 31 25 51v2h-2l-5 1c-2-2-2-2-2-6v-2l-1-5 1-1v-9h-3v14l-1 3 1 4c-4 2-7 2-11 2l-3-1a100 100 0 0 0-5 0h-3l-7 1a90 90 0 0 1-6-1l-1-12-1-4 1-3-1-6 1-5v-8h-27V12l-2-2 3-7"/><path fill="#EFDBDF" d="M285 116h9l7 2a155 155 0 0 0 5-2 97 97 0 0 1 7 0l1 5h-23v19l2 4h23l2-1a100 100 0 0 1 5 0c2-5 2-8 1-13l2-1 8-7c-4 25-21 48-38 67l-1 2-28 26-2-1 5-6 2-1 9-9c3-3 4-5 5-10l-1-3-2 1-3-1-4 1-7-1-2 1-3-1-3 1-3-2 2-4 3 1 9-1 12 1c2-4 2-7 2-11v-22l-11-1h-12v4l1 4v2c0 5 0 9-2 13l-3-1v-15l-1-7h-23l1-5h13l8-1 11 1a84 84 0 0 0 6 0h12v-21c-6-2-7-2-12-1l-5-2 1-3c5-2 10-1 15-1"/><path fill="#EBE7E7" d="M299 81c11 2 11 2 21 0l6 2-1 2v14l1 10-1 4 1 3-1 5 6-1v7l-1 2h-3l-2 2 1 6-1 5c-2 2-2 2-5 2h-3l-4 1-1-1a64 64 0 0 0-11 1h-9c-2-4-2-7-2-11l-1-8 2-5 22-1-1-3-10 1c-3 1-4 0-7-1a89 89 0 0 0-5 0l1-13-1-9V84c3-3 5-3 9-3"/><path fill="#E1EBEC" d="M133 187c5 0 10 1 14-1l7 2 1 3-1 2 1 2-1 9v14l1 3-21 1h-9l-5-1c-2-3-1-5-1-9v-12l1-13h13"/><path fill="#DBEAED" d="M187 186h8l3 1 13-1c4 0 6 0 10 2v7l-1 6v12l1 2v6l-20 1h-10l-5-1c-2-3-1-7-1-10v-2a723 723 0 0 1 0-12v-6l2-5"/><path fill="#DCEAED" d="M121 81h2c8 2 8 2 15 0l7 1h8c2 7 2 13 1 19l1 8-1 4v2l-1 2h-7l-2 1a738 738 0 0 1-4-1h-6l-7-1-1 2-7-2v-14a970 970 0 0 0 0-4 942 942 0 0 1 0-7v-2c0-3 0-5 2-8"/><path fill="#EBEFE9" d="M120 43h33l2 2-1 2 1 3-1 4a98 98 0 0 0 0 5v3l1 6v9c-3 2-5 2-9 1h-26V68l-1-13 1-12"/><path fill="#E0EFF3" d="M81 148h33c2 2 2 2 2 5v29c-5 2-8 2-13 1H81l-1-10v-15l1-10"/><path fill="#DCEAED" d="m187 81 6 1h24l4 2v32h-12c-2-3-1-6-1-10l-10-1v11l-12 1c-2-11-2-11 0-16l-2-9 1-3v-4l2-4"/><path fill="#E0EFF3" d="M233 81c11 2 11 2 21 0l5 2c1 4 1 6-1 10l-1 2h-4l-17-1v11h8l5-1 3 1 2-1 4 1c2 3 2 3 2 7l-1 4c-5 1-8 2-13 1h-15l-6-1c-2-3-2-4-2-7l1-18v-5l2-4 7-1"/><path fill="#EFDADF" d="M76 3h5v7c4 2 7 2 12 2h12l-1 4c-5 1-10 2-15 0l-2 1-5-1c-2 12-2 12 1 23h10l-2 5-10-1 1 22-3 2-3-2v-7l-1-3 1-5 1-3v-2l-7-1H55v12l-1 3v7l-5 1V44H38l-8 1-6-2 1-4h18l6-1 1-6h2l1-5h1v12h14l8-1V17h-9l-6-1-1-3c7-2 7-2 10-1l5-1 1-8"/><path fill="#F5F1F0" d="M159 148h22l1 9v2a2159 2159 0 0 1 0 7v16c-4 2-6 2-11 1l-11 1c-3-3-3-4-3-8l1-3v-11l-1-9z"/><path fill="#E9E1E3" d="m82 15 3 1 7-1 1 1h10l5-1 4 1 2 1h2v11l-1 11-21 1H81c-1-8-2-16 0-24z"/><path fill="#DCEAED" d="M299 81c11 2 11 2 21 0l6 2-1 2v20c-21 2-21 2-31 0h-3l-1-21c3-3 5-3 9-3"/><path fill="#F0F0F3" d="M285 65c2 4 2 6 2 10l-1 3-15 1v3l10-1 6 2v10l-6 2-1-1a75 75 0 0 0-5 0h-4v22l-7 1c-2-3-2-4-2-7l1-2-1-3 1-6-1-10 2-8-1-5V66h19l3-1"/><path fill="#F8E9EA" d="m264 3 7 1 2 1 13 4v3h-8l-2 1-6-1v3l4 1h3l4-1 6 2v17l-1 5-15 1h-8V12l-2-2 3-7"/><path fill="#F8E7E7" d="m76 3 1 6-5 4-6-1-5 1v3h15l1 7v16h-5l-2 1-16-1-1-13-1-5 1-3v-4l-1-4c7-4 15-7 24-7"/><path fill="#EBEFE9" d="M291 148h30c-3 8-8 15-13 22l-1 2a200 200 0 0 1-3 3 66 66 0 0 0-2 4l-4 4h-8a5174 5174 0 0 1 0-14v-14l1-7"/><path fill="#E0F0F4" d="M314 43a365 365 0 0 1 5 0h3l4 2-1 2 1 3-1 4a93 93 0 0 0 0 5v3l1 6-1 5 1 4c-4 2-7 2-11 2l-3-1a100 100 0 0 0-5 0h-3l-7 1a90 90 0 0 1-6-1V66h21l1-9v-7l1-7"/><path fill="#E5F6F8" d="M89 81a339 339 0 0 1 9 1h13l4-1 1 14v21c-4 2-6 2-11 1-2-4-2-5-2-10v-3l1-5-1-3 1-1c-10-2-10-2-19 0l-4-1V82h3l5-1"/><path fill="#ECEFEA" d="m212 42 7 1 2 8-1 14 1 5v3l-1 5h-12V56h-5l-5-1-6 1-6-1V44h14l11-1z"/><path fill="#EEF4EE" d="M23 43h3l5 1 4-1a107 107 0 0 1 6 0h2l6 1 1 19v2c0 9 0 9-2 13-3 2-6 1-10 0V66a76 76 0 0 0-1-5 99 99 0 0 1 0-5h-9l-1-1a574 574 0 0 0-12 0V44l8-1"/><path fill="#E6E5E8" d="M95 127h8c3 6 2 11 1 17l15-1 1 15v24h12l-2 5h-10v23l-4 2-1-15v-9h-3l-5-1h-3c0-3 0-3 2-5h2c3 1 3 1 7-1v-31l-10-1-1-2-3-3h-9a1890 1890 0 0 1 0-8v-8l3-1"/><path fill="#F8E8E9" d="M164 225h17l1 15v8c-6 2-6 2-9 1h-9l-4 1c-3-3-3-4-3-8l1-4v-7l-1-5 7-1"/><path fill="#F8EAEC" d="M54 120h10l8 1 4-1 1 15v9H54l-1-13-1-5 2-6"/><path fill="#E0F0F2" d="m246 187 2 14v9h-23l-1 3v-9l-1-7c0-4 0-7 2-10 7-2 14-1 21 0"/><path fill="#D8E5E7" d="M93 148h19l4 2c1 7 1 14-2 21h-7l-8 1-6-1c-2-8-2-15 0-23"/><path fill="#DCEAEC" d="M137 54h5l1 15v8l-7 1h-16V55h7l10-1"/><path fill="#E0F0F2" d="M93 43h17l5 1c2 11 2 23 0 34h-11l-1-12v-3l1-5-3-3h-7l-2-1 1-11"/><path fill="#EFD7DC" d="m157 221 3 4-2 2 1 5-1 11 2 6 3-1h8l6 1 3-1a100 100 0 0 1 5 0l1 12-5 1v-7h-4l-3-1-9 1-1-1h-6c-17 2-17 2-25 0l-4-4 13-1h4l3 1h3l2-2v-16l-1-4c-7-2-13-1-20 0l-2-1 1-5h11c5 0 10-2 14 0"/><path fill="#EFF0F2" d="m268 187 2-1 3 1h11l2-1c1 4 1 7-1 11-3 2-6 2-10 2h-5v2c1 9 1 9-2 13l-5 1-1-7 1-7v-5l-1-2v-7h6"/><path fill="#EEECEF" d="m66 186 2 1 9 1v26c-4 0-5-2-8-4l1-2-1-5 1-3c-3-2-7-1-10-1l-5-1c-2-3-2-6-2-9 2-5 8-3 13-3"/><path fill="#FBD2E3" d="M333 122c1 4 0 6-1 10l-1 2c-8 21-20 39-35 55l-1 2-28 26-2-1 17-17 7-8 5-5 16-20 1-2c10-14 10-14 14-30l-1-4 2-1 7-7"/><path fill="#EBEFEA" d="M291 148h30l-6 12h-2l-19 1h-2l-2-4v-5l1-4"/><path fill="#EDEEE9" d="m258 2 2 9c-5 3-9 2-14 1l-13 1-5-1-2 1-2-2 1-6c11-4 22-3 33-3"/><path fill="#F0F1F3" d="M180 81c2 4 2 6 2 10l-1 3h-15l-2 7h-5l-2-9v-2l2-8h18l3-1"/><path fill="#ECD7DD" d="m259 93 4 1v12l1 5v10l-1 3 1 3c0 4 0 7-2 11l-3-1v-10l-1-5-7-1h-15v-4c5-1 11-2 16 0l6-2V98l1-5"/><path fill="#F1F1F4" d="M164 187c9 1 9 1 17-1l1 12c-5 2-8 2-13 1l-9 1-3-3 1-7-1-3h7"/><path fill="#F9F1EC" d="M187 120h10v11a285 285 0 0 0 1 13h-12l-1-11-1-7 3-6"/><path fill="#F9F1EB" d="M275 148h8l4 2-1 10-8 1h-11l-4-1c-2-8-2-8 0-11 4-2 7-2 12-1"/><path fill="#F9F0EB" d="m301 121 2 2-1 6 1 9v5c-4 2-7 2-11 2-2-4-2-7-2-11l-1-8 2-5h10"/><path fill="#F1F1F2" d="M324 121c3 4 2 7 1 12l1 3-1 6c-2 2-2 2-5 2h-3l-4 1v-23c4-2 7-3 11-1"/><path fill="#F1F2F4" d="M61 82h9l4-1 3 3-1 10H53c-1-8-1-8 1-12h7"/><path fill="#F9F0EB" d="M259 17v22l-8 1h-4V21c0-3 0-3 2-5 4-2 5-1 10 1"/><path fill="#F8F0EB" d="M143 225h6l5 2 1 8v13c-3 2-5 2-8 2-3-1-4-2-6-5l1-11 1-5v-2z"/><path fill="#F0F1F4" d="m271 171 8-1 7 2c1 7 1 7-1 11l-4 1-3-1a91 91 0 0 0-5 0h-2l-4 1-4-1-1-4 1-3v-3l1-2h7"/><path fill="#F9F0EA" d="M48 121c3 4 2 8 2 12v2l-1 9H38l-1-13v-2l1-8h10"/><path fill="#F8F1EB" d="M264 43h17l5 1v11l-11 1h-8c-2 0-3-1-5-3l1-2-1-3 2-5"/><path fill="#F1F2F3" d="M159 66h22c2 3 1 6 1 9-2 3-3 3-6 4l-3-1-10 1h-3c-3-3-3-4-3-8z"/><path fill="#D9E5E8" d="m200 55 8-1 1 15v8c-8 2-8 2-13 1V55h4"/><path fill="#F7EBE4" d="M82 120h10l1 12v4l-1 8-4 1h-3l-4-1-1-6v-8c0-7 0-7 2-10"/><path fill="#F1F2F3" d="m61 65 15 1v11c-7 2-7 2-10 1h-6l-3 1h-2c-2-5-2-8-2-13l8-1"/><path fill="#D8E5E8" d="m101 54 4 4-1 5v15h-8l-4-1V66l-1-11c3-2 7-1 10-1"/><path fill="#F8EBE5" d="m82 15 3 1 7-1 1 16v8l-12 1c-1-8-2-16 0-24z"/><path fill="#F9F0EB" d="m196 226 2 4a180 180 0 0 1-1 6l1 5v7c-4 2-7 2-12 1-1-5-2-11 0-16v-7h10M50 17v22H38l-1-16v-3l1-4c3-1 3-1 12 1"/><path fill="#F8F1EB" d="M54 43h20l4 2a75 75 0 0 1-1 5 99 99 0 0 0 0 5c-7 1-16 2-23 0V43"/><path fill="#F1F2F4" d="M55 170h2l19 1 1 7v4c-4 2-7 2-11 1h-8l-4-1c-2-3-1-6-1-9z"/><path fill="#F1F1F4" d="m128 121 2 1h2v13c0 4 0 6-2 9h-10l-1-13-1-5 2-5h8"/><path fill="#D8E5E7" d="M93 93c9 0 9 0 12 2l-1 2 1 3a553 553 0 0 1-1 4v13H94l-2-8v-8l1-8"/><path fill="#F1F1F3" d="M220 225v21l-10 4-2-4v-15l-1-5 13-1"/><path fill="#F9F1EC" d="m159 102 2 2c7 1 14 2 20 0l1 8v4c-8 1-17 2-24-1l1-13"/><path fill="#F8ECE5" d="M54 148h22v12H66a163 163 0 0 0-7 0h-6v-8l1-4"/><path fill="#E1F0F3" d="m335 81 3 1-1 20-1 3c0 5-1 9-4 13l-5-2 1-3v-10c1-5 2-11 0-16l1-5h2l4-1"/><path fill="#E9E5E8" d="M181 160c2 4 0 7-1 11l-15 1h-4l-3-3v-9c7-2 16-1 23 0"/><path fill="#E9E6E8" d="M198 121h11l-1 3v5l1 10v6h-5l-3-1-4-1v-2l-1-11 2-9"/><path fill="#F8ECE5" d="m159 209 9 1h7l3-1h3l1 12h-23a431 431 0 0 1-1-4v-3l1-5"/><path fill="#EAE5E8" d="M158 55h23l1 7-1 2v2l-13 1h-8c-3-4-2-6-2-12"/><path fill="#E9E5E7" d="M282 55h4v10l-8 2h-7c-6 0-6 0-8-2V55h19"/><path fill="#E9E6E8" d="m196 225 11 1 2 9v7a751 751 0 0 1 0 6l-10 1c-2-4-2-7-2-11l-1-3 1-3-1-7"/><path fill="#F1F2F4" d="M130 226c2 4 2 7 1 12l1 11h-8l-4-3c-1-6-2-14 0-20h10"/><path fill="#E9E5E8" d="M72 160h4l1 11H54l-1-11c13-2 13-2 19 0"/><path fill="#F1F2F4" d="m112 16 2 1h2v11l-1 11h-11c-1-5-1-9 2-14v-2h-2l-1-5c3-3 4-3 9-2"/><path fill="#F8ECE5" d="M77 106v10h-8l-2-2-1 3h-8l-4-1c-2-3-1-6-1-9l1-2 9-1h8l6 2"/><path fill="#E8E5E8" d="M62 55h10c3 0 3 1 5 3v8c-15 2-15 2-20 0h-3l-1-9c3-3 5-2 9-2"/><path fill="#E8ECEF" d="M95 127h8c3 6 2 11 1 17h10l1 5h-10l-2-4-11-1a1890 1890 0 0 1 0-8v-8l3-1"/><path fill="#EDEBEE" d="m235 224 3 1h11c-1 4-4 5-7 7l-3 2-3 2-3 2-8 5-2-1 1-2-1-14h5l3-1 4-1"/><path fill="#E1EFF3" d="M11 83v2l-1 8v3c0 6 0 10 2 15l-1 5-3 1-3-3a493 493 0 0 1-1-7l-1-3-1-22c4-1 6-1 9 1"/><path fill="#F9E2E4" d="m152 120 7 1v7l14-1c2 4 2 5 1 10h-15l-1 4v-3l-4-2v-9c0-3 0-5-2-7"/><path fill="#F9F0EA" d="M168 253h9l4-1 1 10-7 1h-15c-2-4-2-6-1-10h9"/><path fill="#EEECEE" d="m91 225 2 1 13-1c4 0 6 0 9 2 2 5 1 10 0 15l-10-5-3-2-2-2-3-1a2415 2415 0 0 1-7-5z"/><path fill="#E8ECEF" d="m306 32 3-1c9 0 9 0 12 2l3 4-1 3h-23l-9-1-1-5c5-3 10-2 16-2"/><path fill="#E9E1E3" d="m132 22 3 1 7-1c2 11 2 11 0 17l-4 1h-5c-3-3-2-5-3-8v-4l2-6m144 71c4 0 7 0 10 2l-1 10-8 1h-7V94c2-2 4-1 6-1m-78-71 11 2v16l-4-1a90 90 0 0 0-6 1c-2-4-2-7-2-11v-3l1-4"/><path fill="#EAFCFD" d="M329 47c7 8 9 21 9 31h-2l-5 1c-2-2-2-2-2-6v-2l-1-5 1-1v-7l-1-5 1-2-1-3z"/><path fill="#E9FBFC" d="m9 49 2 1v22l-1 5-7 2-1-3c1-9 3-19 7-27"/><path fill="#F3D5DC" d="m282 12 8-1v11l1 5a99 99 0 0 1 0 5l-4 2-1-4V18c-4-2-4-2-9-1l-8-2 1-3h12"/><path fill="#F9DFE1" d="m279 127 1 10-1 3v3l-10 1v-11l1-5 9-1"/><path fill="#E9FCFD" d="M127 186h4l1 12c-6 2-6 2-9 1l-2 1-2-4v-5l1-4 7-1"/><path fill="#FCFBED" d="m250 105 4-1 4 1c2 3 2 3 2 7l-1 4c-8 2-8 2-12 1v-9l-1-3h4"/><path fill="#F2FBF6" d="M225 43a365 365 0 0 1 5 0h3l4 2-1 2 1 3v5h-12V43m13 8 1 2-2-1z"/><path fill="#F4FBF6" d="m151 171 2 1h2l-1 2 1 8c-3 2-4 2-7 2l-2-1-2 1c-3-3-3-4-3-8l2-5h8"/><path fill="#E9FBFC" d="m209 63 5 4 1-2 6 2-1 11h-12l1-15"/><path fill="#F4FBF6" d="m82 186 3 1 7-1 1 12c-4 2-7 2-12 1l-1-10z"/><path fill="#FDFBEE" d="M143 148a365 365 0 0 1 5 0h3l4 2v9c-5 2-8 2-13 1-1-5-1-8 1-12"/><path fill="#F3FBF5" d="m299 82 2 1h2l-1 11h-8l-2 1-2-4v-5l2-4h7"/><path fill="#E9FCFC" d="M237 83v10c-4 2-5 2-9 1l-2 1-2-4v-5l2-4c4-2 7 0 11 1"/><path fill="#F4FBF5" d="M247 66h8c3 0 3 0 5 2a180 180 0 0 1-1 6l1 3c-3 2-4 2-7 2l-2-1-2 1c-3-3-3-4-3-8l1-5"/><path fill="#E9FCFD" d="m217 187 4 1v10c-5 2-6 2-11 1l-2-1a585 585 0 0 1 0-4v-3l1-4h8"/><path fill="#F3FAF5" d="m41 170 3 1 5-1 1 12-6 2-10-11 1-2h2l4-1"/><path fill="#E9FCFD" d="m326 83-1 2 1 8c-2 2-4 1-6 2h-3l-4-2v-9l3-3 10 2"/><path fill="#FDFBED" d="M81 43h8c3 0 3 0 5 2a75 75 0 0 1-1 5 99 99 0 0 0 0 5l-12 1V43"/><path fill="#E9E1E3" d="m302 18 11 7 1 2 4 3-1 3h-15z"/><path fill="#F4FBF6" d="M219 210c2 2 1 4 2 6v5l-13 1v-5l-1-7h12m-32-24h10l1 12c-2 2-4 2-6 2l-3-1-4-1a280 280 0 0 1 0-4v-3l2-5"/><path fill="#F3FBF6" d="m248 170 2 1 4-1 4 1c2 3 1 6 1 9l1 2-4 2-3-1-2 1-4-2a920 920 0 0 1 0-5v-3l1-4"/><path fill="#E9FCFD" d="m109 171 6-1 1 12c-4 2-7 2-12 1v-12h5"/><path fill="#F4FBF6" d="M104 148a365 365 0 0 1 5 0h3l4 2-1 10h-12v-7l1-5"/><path fill="#F3FAF5" d="M219 43c2 4 2 7 1 12l-10 1c-2-4-2-6-2-10l-1-2c4-2 7-2 12-1"/><path fill="#F3FBF6" d="M314 43a365 365 0 0 1 5 0h3l4 2-1 2 1 2-1 6-12 1 1-13"/><path fill="#F3FBF4" d="M225 105h8c2 0 3 1 5 3l-1 1v7h-12l-2-5 2-6"/><path fill="#E9FCFD" d="M121 81h4l3 1 4 2v9c-5 2-8 2-13 1a351 351 0 0 1 0-5v-3l2-5"/><path fill="#F2FCF6" d="m46 82 4 1v10c-4 2-7 2-12 1-2-6-2-6-1-10 2-4 5-3 9-2"/><path fill="#F3FBF5" d="m187 65 6 1 4-1 1 10-5 4-7-1V66z"/><path fill="#FCFBED" d="m151 209 4 4-1 5 1 3-13 1v-5l-1-7c3-2 7-1 10-1"/><path fill="#E9FCFD" d="M235 187c3 3 2 7 2 11h-12l-2-5 2-6h10m-106-16 2-1 1 8v4c-5 2-8 2-13 1a365 365 0 0 1 0-5v-3l2-4h8"/><path fill="#F3FBF5" d="M209 148a365 365 0 0 1 5 0h3l4 2v9c-4 2-5 2-9 1l-2 1-2-4v-5l1-4"/><path fill="#F4FBF5" d="m121 104 6 1 4-1 1 12-3 1-2-1-1 2-7-2a280 280 0 0 1 0-4v-3l2-5"/><path fill="#FDFCED" d="m301 105 2 4v7l-5 1h-3l-5-1a293 293 0 0 1 0-4v-3l2-4c3-2 6-1 9 0m-219-1h10l1 12-12 1-1-10z"/><path fill="#F3FBF6" d="M143 82h10l2 11c-4 2-5 2-9 1l-2 1c-3-3-3-4-3-8l2-5"/><path fill="#FDFBED" d="M248 43a365 365 0 0 1 5 0h3l4 2a75 75 0 0 1-1 5 99 99 0 0 0 0 5l-8 1h-4l-1-3 1-2-1-3 2-5"/><path fill="#F4FBF7" d="M127 209h4l1 12-5 1h-3l-4-1c-2-3-1-6-1-9 2-3 5-3 8-3"/><path fill="#F4FBF6" d="M111 209h4l1 12h-12l-1-9c2-3 5-3 8-3"/><path fill="#F3FAF6" d="m153 187 2 4-1 2a76 76 0 0 0 1 5l-13 1c-1-5-1-8 1-12h10"/><path fill="#EAFCFD" d="m113 187 2-1 1 12-13 1a365 365 0 0 1 0-5v-3l2-4h8"/><path fill="#F4FBF6" d="m192 170 3 1h2l1 7v4c-4 2-7 2-12 1l-1-12 7-1"/><path fill="#E9FCFD" d="m220 170 1 8v4l-13 1a365 365 0 0 1 0-5v-3l2-4 10-1"/><path fill="#FCFCED" d="M291 148a365 365 0 0 1 5 0h3l4 2-1 10-5 1h-5l-2-4v-5l1-4"/><path fill="#FDFCEE" d="M196 147c2 4 2 6 2 10l-1 3h-11v-12h7l3-1"/><path fill="#F4FBF6" d="M221 106v10h-12l-1-8-1-3c5-2 9 0 14 1m-205-2 3 1 7-1 1 12-12 1v-12z"/><path fill="#FDFCEE" d="m195 105 2-1 1 12-12 1v-12h9"/><path fill="#FDFBEE" d="m153 105 2 4v5l-4 4-5-1-2-1-3-4 2-7h10"/><path fill="#F4FBF6" d="M104 105h11l1 11c-3 2-4 2-8 2-3-1-3-1-5-4l1-9"/><path fill="#FDFCEC" d="M41 104h8l1 8v4l-12 1v-12l3-1"/><path fill="#D9E5E8" d="M243 93h4l1 12h-12V94l7-1"/><path fill="#F3FBF5" d="m253 81 6 2c1 4 1 6-1 10l-1 2h-7l-3-3V82h2l4-1"/><path fill="#E9FCFD" d="M14 66h12l1 7v5H15l-1-12"/><path fill="#FDFCEE" d="M291 43a365 365 0 0 1 5 0h3l4 2-1 10h-11V43"/><path fill="#F4FBF5" d="M115 44v11h-11v-3l-2-8h13"/><path fill="#D8E5E8" d="m247 198 1 12h-12c-2-3-1-6-1-10 4-3 7-2 12-2"/><path fill="#FDFCED" d="M81 148h11v12H81v-12"/><path fill="#E9FCFD" d="M209 82a365 365 0 0 1 5 0h3l4 2-1 10h-8l-2 1-2-4v-5l1-4M16 81l11 2-1 10c-3 2-6 2-9 2l-2-1V82zm208-15h8c3 0 3 0 5 2v9c-4 2-5 2-9 1l-2 1c-2-2-2-2-2-5v-6z"/><path fill="#F4FBF5" d="M89 65h3l1 13-5 1h-3l-4-1-1-7 1-2v-2h3l5-2"/><path fill="#E9FCFD" d="M114 65c2 3 2 4 2 8l-1 3v2h-11V66h7l3-1"/><path fill="#EBEEE9" d="M289 53h2v2h11v12h-10l-3-5 1-6z"/><path fill="#FDFBED" d="M143 43a365 365 0 0 1 5 0h3l4 2-1 2 1 2-1 6-10 1c-2-4-2-7-2-11z"/><path fill="#FCFCED" d="M253 209h5l1 10-3 3h-9l-1-12 7-1"/><path fill="#D7E5E7" d="M243 159h4l1 12-12 1v-12l7-1"/><path fill="#EBEFEA" d="m258 91 2 2a127 127 0 0 1-1 6 194 194 0 0 0 0 7l-3-1-5 1-4-2V94h10z"/><path fill="#F4FBF5" d="m187 81 6 1 4-1 1 10-3 3h-9V82z"/><path fill="#F3FBF7" d="M143 66a365 365 0 0 1 5 0h3l4 2v9c-4 2-6 2-11 1l-2-1a585 585 0 0 1 0-4v-3l1-4"/><path fill="#D8E5E8" d="m303 54 6 1 4-1 1 12-12 1-1-10z"/><path fill="#FDFCED" d="M193 209h4l1 12-5 1h-3l-4-1c-2-3-1-6-1-9 2-3 5-3 8-3"/><path fill="#F4FCF6" d="m82 170 3 1 7-1 1 12-12 1-1-10zm38-22h11v3l1 3-1 6h-11v-12"/><path fill="#FDFCED" d="M38 148a365 365 0 0 1 5 0h3l4 2-1 10H38v-12"/><path fill="#F4FBF5" d="M314 105h10c2 4 2 4 1 8l1 3c-5 1-9 1-14-1z"/><path fill="#F4FBF6" d="M89 81h3v12c-7 2-7 2-11 1V82h3l5-1"/><path fill="#F3FCF5" d="M291 66a365 365 0 0 1 5 0h3l4 2v9c-4 2-7 2-12 1V66"/><path fill="#F3FBF7" d="M120 43h6l5 1v11h-11V43"/><path fill="#F3FCF6" d="M27 44v11H15V44h12"/><path fill="#FDFCEE" d="M248 148h10v12l-4 1h-5c-3-3-3-4-3-8l2-5"/><path fill="#E0F0F3" d="M198 66h11v11c-8 2-8 2-13 1l1-2v-5l1-5"/><path fill="#E9FCFD" d="M130 65c2 4 2 6 2 10l-3 3h-9V66h3l7-1"/><path fill="#FDFCED" d="m198 44-1 11h-11V44h12M38 43h6l5 1v11H38V43"/><path fill="#EAE1E4" d="M36 18c2 2 2 2 2 5v9H21c4-6 9-10 15-14"/><path fill="#FDFCED" d="M88 209h4l1 12c-5 1-8 1-12-1v-10l7-1"/><path fill="#EEE5DF" d="m119 143 1 18v10l-5 1v-20l-1-8 5-1"/><path fill="#EBEFEA" d="M104 105v12H94c-2-4-2-6-2-10 4-4 7-3 12-2m80-13h14l-1 3 1 7-4 4-5-1-2-1h-2l1-2-2-10"/><path fill="#E0EFF3" d="M314 55h11v5l1 10h-2l-2-3h-7c-2-3-2-6-2-10z"/><path fill="#ECEFEA" d="M198 148h11v11l-8 1h-4v-8l1-4M27 105h11v12H28c-2-4-2-6-2-10z"/><path fill="#E0F0F3" d="M93 66h11v12h-8l-4-1a585 585 0 0 1 0-4v-3l1-4"/><path fill="#ECEFEA" d="M93 210h11v10l2 1-1 2-3-1h-8c-2-3-2-6-2-10z"/><path fill="#E9FCFD" d="M324 66v3l2 8c-2 2-3 2-6 2l-3-1-2-1-2-1v-8c4-4 6-3 11-2"/><path fill="#E0F0F3" d="M237 171h10l1 11-12 1a248 248 0 0 1-1-4v-3l2-5"/><path fill="#E0F0F2" d="M236 160v12h-4l-7-1-1-11c4-2 8-1 12 0"/><path fill="#DFF0F4" d="M105 93h10v12l-10 1-2-4 1-3-1-3z"/><path fill="#EBEFEA" d="M248 55h11v11h-11l-1-9z"/><path fill="#EBEFEB" d="m258 196 2 4v5l-4 5-9-1v-10h11z"/><path fill="#EBEFEA" d="M184 158h2v2h11v11h-11v-3l-2-10m53-10h11l-1 6 1 5-12 1c-1-5-1-7 1-12"/><path fill="#ECEFEA" d="M132 105h11l-1 8 4 4-4 1-9-1c-2-3-2-6-2-10z"/><path fill="#EBEFEA" d="m39 93 3 1 5-1 2 1v10l-11 1-1-9z"/><path fill="#EBEEEA" d="M154 94v12h-4l-7-1-1-3v-8h12"/><path fill="#EAEFEB" d="m82 198 3 1 8-1-1 2 1 9-7 1h-5a920 920 0 0 1 0-5v-3l1-4"/><path fill="#DFF0F2" d="M105 198h10l1 4v3l-2 5h-10a248 248 0 0 1-1-4v-3l2-5"/><path fill="#E0F0F2" d="M198 187h11v11h-11c-2-2-1-5-1-7l1-4"/><path fill="#EBEFEA" d="M93 148h6l5 2-1 10H92l1-12"/><path fill="#E0F0F3" d="M310 82h4l-1 3 1 8-12 1V84c3-2 4-2 8-2"/><path fill="#EBEFEA" d="m185 52 1 3h10l2 7-3 5h-4l-3-1h-2l-1-2 1-2-2-9z"/><path fill="#E0F0F2" d="M15 55h10c2 6 2 6 1 10l-1 2h-7l-3-1a110 110 0 0 1 0-6v-3z"/><path fill="#EBEFEA" d="M93 43h7l3 3 1 10-9-2h-3l1-11"/><path fill="#ECEFEA" d="m132 148 3 1 8-1-1 3 1 8-7 1h-5v-3l-1-6z"/><path fill="#DFEFF3" d="M237 66h10v6l1 5-8 1h-5z"/><path fill="#DFF0F3" d="M120 55h11c1 8 1 8-1 11l-5 1h-4a558 558 0 0 1-1-5l-1-3 1-4"/><path fill="#EBEFE9" d="M142 211v9l-1 2h-8c-2-3-2-6-2-10l3-3 8 2"/><path fill="#F3FCF7" d="m235 210 1 8 1 3h-12v-11h10"/><path fill="#ECEFEB" d="M187 198h9l2 6-1 2 1 3-12 1c-1-5-1-8 1-12"/><path fill="#DFF0F2" d="M132 187h11l-1 3 1 8h-11l-1-9z"/><path fill="#DFF0F3" d="M103 160h12c1 5 0 7-1 11-4 2-7 0-11-1l1-2-1-8"/><path fill="#E0EFF2" d="M220 94v12l-11-1v-3a178 178 0 0 0 0-4l-1-4c4-2 8-1 12 0"/><path fill="#E0F0F3" d="m127 94 2-1 2 1v10c-5 2-6 2-11 1l-1-11h8"/><path fill="#E0F0F2" d="M220 160v10l-10 2-2-4 1-3-1-5c4-2 8-1 12 0"/><path fill="#E0F0F3" d="M120 160h11v10c-4 2-4 2-8 1h-3a491 491 0 0 1-1-4v-3l1-4"/><path fill="#E1EFF2" d="m16 93 2 1 4-1h2c3 3 3 5 3 9l-4 4-8-1a248 248 0 0 1-1-4v-3l2-5"/><path fill="#EBEFE9" d="m303 43 3 1 5-1 3 2v9c-4 3-7 2-12 1v-8l1-4"/><path fill="#F4FBF6" d="M291 171a365 365 0 0 1 5 0h3l4 2-3 9c-3 2-6 1-10 1v-8l1-4"/><path fill="#EBEFEA" d="m88 55 4 1 1 8c-4 3-8 3-13 3l1-2v-5a78 78 0 0 1 0-4c2-2 5-1 7-1"/><path fill="#DFEFF2" d="M209 55h11v12c-7 1-7 1-11-2V55"/><path fill="#FDFAEC" d="M247 2h11l2 9c-4 2-6 2-11 2-3-3-3-4-3-8z"/><path fill="#EBEFEA" d="m198 210 10 1 1 7-2 4h-8l-2-4v-4l1-4"/><path fill="#ECF0EA" d="m89 159 4 6-2 6H80l1-11h3l5-1"/><path fill="#DAE6E9" d="M303 159h10c0 4 0 5-2 7l-2 2-1 2-1 2a691 691 0 0 1-4 5c-3-12-3-12 0-18"/><path fill="#EBEFE9" d="M302 94v12h-4l-7-1-1-11h12"/><path fill="#E9E1E4" d="M95 127h8c2 4 2 6 1 10l-12 1v-10l3-1"/><path fill="#ECEFEA" d="m242 105 5 1c2 3 1 6 0 10l-9 1v-2h-2l1-8c2-2 2-2 5-2"/><path fill="#FDFBEC" d="M81 2h11c1 7 1 7-1 10-4 1-7 2-10 0V2"/><path fill="#EBEFEA" d="m241 43 2 1 2-1 3 3-1 3 1 3-4 4-7-1-2-4 1-2-1-3c3-3 3-3 6-3m-3 8-1 2h2z"/><path fill="#E9FBFD" d="m335 81 3 1v7l-1 5-6 1c-3-3-3-4-3-8l1-5h2l4-1"/><path fill="#D9E4E6" d="M27 159h10l1 12-5 1a675 675 0 0 1-4-5l-2-3-1-3z"/><path fill="#EFD5D9" d="m220 116 6 1v2l-1 8c0 5 0 8-3 12l-2-1z"/><path fill="#EAFCFD" d="m11 83-1 11H8l-5 1-1-13c6-1 6-1 9 1"/><path fill="#F4FAF6" d="m236 4 1 8h-9l-2 1-2-2 1-6 4-1 3-1 4 1"/><path fill="#F5FAF5" d="M104 3c9 1 9 1 12 3v5c-5 2-8 2-13 1z"/><path fill="#F0F7FA" d="m235 226 2 5-1 2-4 1-7 1-2-9h12"/><path fill="#EEDADC" d="m259 182 3 1 8-1c4 0 7 1 11 3l-1 2h-11l-2 1-3-1-3 1-3-2z"/><path fill="#FAF7F2" d="M250 136h8c2 5 2 5 1 8h-12v-7l3-1"/><path fill="#FADEE1" d="M174 232c1 4 0 7-1 11l-8-1v-9l9-1"/><path fill="#F2F7F9" d="M166 188v10l-6 2-3-3 1-7-1-3c3-2 6 0 9 1"/><path fill="#FAF7F3" d="M189 120h8l1 8-5 1h-3l-4-1-1-5c1-3 1-3 4-3"/><path fill="#F1F7FB" d="M237 122v5c-5 2-8 2-13 1l-1-7c9-2 9-2 14 1"/><path fill="#FADEDF" d="m271 22 8 1c2 3 1 6 0 9l-9 1c-1-4 0-7 1-11"/><path fill="#E2EFF2" d="M329 47c3 3 4 7 6 12v2c2 5 2 5 1 7l-7-3v-7l-1-5 1-2-1-3z"/><path fill="#ECE2E0" d="m220 210 4 1 1 10h8l2 4-10 1v-2c-1-3-1-3-5-4z"/><path fill="#FAF7F1" d="M269 147c2 4 2 6 2 10l-4 4-4-1c-2-8-2-8 0-11l6-2"/><path fill="#FADDE0" d="m69 127 1 10H60l-1-9c3-2 6-1 10-1"/><path fill="#FAF7F2" d="M285 104c3 4 2 7 2 12l-7 1-2-12zm-89-75c2 3 2 6 2 10l-5 1h-3l-4-1-1-5c4-2 6-3 10-3z"/><path fill="#FAF7F1" d="M142 32h8c3 0 3 0 5 2l-1 5-12 1z"/><path fill="#EBECF0" d="M93 16h11v7h2l1 3-3 2-1-4-11-2z"/><path fill="#F1F8FA" d="M209 136c7 0 7 0 11 2l1 1-1 5-10 1-2-7z"/><path fill="#FAF7F1" d="m258 121 2 5-3 3-8-1-2 1 1-8h10"/><path fill="#F1F8FA" d="M111 120h4v8h-11v-7l7-1"/><path fill="#FAF7F1" d="m280 43 6 1v11l-7 1c-1-8-1-8 1-13"/><path fill="#FBF7F4" d="M82 120h10v8l-4 1h-3l-4-1-1-5z"/><path fill="#F1F8FB" d="m233 16 2 1h2l-1 6-8 2-4-4 1-5h8"/><path fill="#F1F8FA" d="m280 170 6 2c1 7 1 7-1 11l-4 1-2-1c-1-5-1-8 1-13"/><path fill="#F0F8FB" d="m322 136 3 2-2 6h-6l-4 1-1-8c3-2 7-1 10-1"/><path fill="#FAF8F1" d="M143 136h6l5 2v6l-5 1h-7z"/><path fill="#F0F8FB" d="m235 137 2 5-3 3h-5l-2-1h-2v-7h10"/><path fill="#FBF7F2" d="M267 105h3l1 11-7 1c-2-3-2-4-2-8 1-4 1-4 5-4"/><path fill="#F1F8FA" d="M287 83v10l-6 2-3-3v-5l1-2v-2h8"/><path fill="#F1F8FB" d="M263 66h6c2 2 2 2 2 5 0 4 0 4-2 7l-4 1-2-1V66m-30-34 2 1h2c0 5 0 5-3 6h-9v-7h8"/><path fill="#FBF7F3" d="M159 148h6l1 7v5l-6 1c-3-3-3-4-3-8l2-5"/><path fill="#FCF7F3" d="m82 136 2 1 8-1v8l-4 1h-3l-4-1-1-5 2-3"/><path fill="#FBF8F2" d="m50 138-1 6H38v-7c4-2 8 0 12 1"/><path fill="#FAF7F1" d="m301 121 2 2-1 5h-11v-7h10m-148 0 2 4-1 3h-12l1-7h10"/><path fill="#F1F8FB" d="m16 120 3 1 7-1v8H15l-1-5z"/><path fill="#FAF8F2" d="m159 43 7 1v11l-6 1-3-6v-2l2-5"/><path fill="#F1F8FB" d="M121 31c4-1 7 1 11 2v6h-12l-1-5z"/><path fill="#FBF8F3" d="M91 31c2 3 2 3 2 8l-12 1-1-6c2-2 3-2 7-3h2z"/><path fill="#FBF7F2" d="m82 15 3 1 7-1 1 8-5 1h-3l-4-1v-7z"/><path fill="#F1F8FB" d="m217 32 2 1h2l-1 6h-11v-7h8"/><path fill="#FAF8F2" d="m196 226 2 4-1 3h-11v-7h10"/><path fill="#F1F8FA" d="m280 186 2 1 4-1c1 4 1 7-1 11-2 2-3 2-6 2v-8l1-3z"/><path fill="#F1F9FA" d="m116 138-1 6h-11v-7c4-2 8 0 12 1"/><path fill="#EAECF0" d="M301 120h14l1 2h-3l1 3-4 4-8-2z"/><path fill="#F1F8FB" d="m59 82 2 1-1 10-7 1c-1-5-1-8 1-12h5"/><path fill="#FBF8F2" d="M259 17v6l-12 1c0-6 0-6 2-8 4-2 6 0 10 1"/><path fill="#FBF7F2" d="m43 15 3 1h2l2 1-1 6c-5 1-8 1-12-1l1-5 5-2"/><path fill="#FAF9F3" d="M180 209c3 4 2 7 2 12h-7l-1-3v-7z"/><path fill="#F0F9FB" d="m128 137 2 1h2l-2 6h-10v-7h8"/><path fill="#E9ECF0" d="M27 121h11v7c-4 2-8 1-12 0z"/><path fill="#FAF8F4" d="m159 102 2 2h4v12l-2 1-5-2 1-13"/><path fill="#F2F8FB" d="m159 82 7 1-1 10-5 2c-3-3-3-4-3-8l2-5"/><path fill="#F1F9FC" d="M209 16h8l4 2-1 5h-11l-2-4z"/><path fill="#FBF7F2" d="M143 225h6l5 2-1 6-4 1h-5l-2-2 1-7"/><path fill="#F1F8FB" d="m59 187 3 4-2 8-6-3v-9h5"/><path fill="#FBF8F3" d="M70 148h6l1 4v3l-1 5-7 1a888 888 0 0 1 0-5v-3l1-5"/><path fill="#F2F8FC" d="m128 16 2 1h2l-1 6h-11l-1-5c3-3 4-3 9-2"/><path fill="#FBF7F3" d="m301 16 1 4v3h-11l-1-5c4-4 6-3 11-2"/><path fill="#EAE1E3" d="M277 198h4c0 3 0 3-2 5l-3 3-3 2-2 2c-2-4-2-7-1-11l7-1"/><path fill="#F1F9FC" d="M70 171h6l1 7v4l-5 1-3-2v-6l1-4"/><path fill="#F0F9FC" d="M175 66h6c2 3 1 6 1 9l-3 3-5-2c-1-7-1-7 1-10"/><path fill="#F0F9FB" d="m112 16 2 1h2l-2 6h-10l-1-5c3-3 4-3 9-2"/><path fill="#FAF7EB" d="m187 252 6 1h11c-3 3-6 4-10 5l-3 1-5 1-1-5z"/><path fill="#E9ECEF" d="m235 120 13 1-1 6c-3 2-3 2-7 2-3-2-3-2-4-6z"/><path fill="#F0FAFB" d="M70 66h6v11l-5 1c-2-3-2-6-2-10z"/><path fill="#E8ECEE" d="M280 55h6v10l-4 2-3-1c-1-8-1-8 1-11"/><path fill="#F9F0F1" d="m58 25 3 1-1 2-1 2 1 2v5l-1 3-5-1c-1-4-1-7 1-11l3-3"/><path fill="#FCF8F2" d="M159 209h6l1 12h-7a431 431 0 0 1-1-4v-3l1-5"/><path fill="#E9E1E4" d="M59 198a365 365 0 0 1 5 0h3l4 2a93 93 0 0 1-1 4l1 3-3 2-10-9z"/><path fill="#F1F9FC" d="M73 187h3l1 7v4h-7c-2-3-1-6-1-10l4-1"/><path fill="#F1F9FB" d="M180 170c2 3 2 4 2 8v4c-4 1-5 1-8-1v-9z"/><path fill="#EAECF0" d="M130 120h2l7 1h4v6l-12 1v-2l-1-6"/><path fill="#FBF9F3" d="m73 104 4 2v10l-5 1-3-3 1-9z"/><path fill="#FCF9F3" d="M54 105h6l1 7v4l-5 1-3-3 1-9"/><path fill="#FAF9F4" d="m301 32 2 2-1 5h-11l-1-5c4-3 6-2 11-2"/><path fill="#F1F7FA" d="M209 241h11v5l-10 4-2-2 1-7"/><path fill="#EAECF0" d="m196 225 11 1 2 5-4 2h-4l-4-1a109 109 0 0 1-1-7"/><path fill="#F2F8FA" d="m114 226 2 4h-2l-1 3-2-1-1 2-6-1v-7h10"/><path fill="#FCF9F1" d="M54 148h6v11l-4 1h-3v-8l1-4"/><path fill="#E9ECEF" d="M76 94v11h-6l-1-11h7"/><path fill="#E9ECF0" d="M175 55h6l1 7-1 2v2l-5 1c-2-3-2-6-2-10z"/><path fill="#FBF9F3" d="M54 43h6c2 5 0 8-1 13l-5-1V43"/><path fill="#E8EDEF" d="m93 32 2 1 6-1h3v8h-8l-4-2 1-6"/><path fill="#FBF7ED" d="M136 253h17l2 2-1 5-18-6z"/><path fill="#F0F7FA" d="m120 241 11 1 1 5v2h-6l-2-1-2-1-2-1z"/><path fill="#F4F8F4" d="M328 105h8l-1 5v3c-1 3-1 3-4 5l-4-3 1-3v-7"/><path fill="#E9ECEF" d="M174 94h7c2 4 0 7-1 11l-4 1-2-4v-6z"/><path fill="#E9ECF0" d="m70 55 6 1 1 10-6 1c-2-3-2-6-2-10z"/><path fill="#EAECF0" d="M132 242h9l1 2 3 5-3 1-1-1h-8l-2-4z"/><path fill="#E9ECEF" d="M179 160h2c2 4 0 7-1 11l-4 1c-2-3-2-6-2-10 2-2 2-2 5-2"/><path fill="#EEE2E7" d="m224 138 2 5 10 1v4h-11l-2-4h-3v-5l4-1"/><path fill="#E9ECEF" d="M132 32h10v7l-4 1h-5l-2-2 1-6m105 0h10v7h-12z"/><path fill="#E8ECF0" d="M198 121h11l-2 7-10-1z"/><path fill="#E9ECF0" d="m280 93 6 2-1 10h-5l-1-11z"/><path fill="#E9ECEF" d="M202 32h7v8l-2-1-8 1-2-6 3-1 2 1zm84 128v12l-7-2v-8c3-2 3-2 7-2m-105 38 1 4v3l-2 5h-5l-1-9c2-3 3-3 7-3"/><path fill="#E8ECF1" d="M303 137c8 0 8 0 10 2l1 1-2 4h-10z"/><path fill="#E5EFF3" d="m9 49 2 1v16l-6 1c-2-4 0-7 1-11l1-2 2-5"/><path fill="#E8ECEF" d="M53 160h6c2 3 2 4 2 8l-1 3h-6z"/><path fill="#F1F7FA" d="M312 32h7l5 5-1 3h-10l-1-8"/><path fill="#FBF7F2" d="M164 252c2 4 2 6 2 10l-4 1h-2c-2-4-2-6-1-10z"/><path fill="#FBF6F0" d="m264 3 6 1 1 5-4 4-4-1-2-2 3-7"/><path fill="#F5F9F5" d="M9 104c2 4 3 7 2 12l-3 1-2-1-1-6-1-3v-2z"/><path fill="#E7D5DE" d="m105 222-1 4-5 1h-5l-2-2 1-4c5-1 8 0 12 1"/><path fill="#F1F8FA" d="M25 31c2 3 2 3 2 8l-10 1-1-2c4-6 4-6 7-7z"/><path fill="#F4FAF4" d="M314 148h7l-6 12-2-1c-1-4-1-7 1-11"/><path fill="#E7D5DD" d="M50 159h3l1 12-5 1a312 312 0 0 1-1-5v-3l2-5"/><path fill="#DFDADE" d="M116 93h3l1 12-5 1v-9l1-4"/><path fill="#E0D9DE" d="M198 182h8l4 2-1 3-12 1-1-3z"/><path fill="#F9F3F3" d="M280 136c5 1 5 1 7 3l-1 5-7 1-1-6z"/><path fill="#E0D9DD" d="M116 159h3l1 12-5 1v-9l1-4"/><path fill="#DFDADF" d="M93 77h10l2 5-9 1h-4l-1-3z"/><path fill="#DFD9DD" d="M32 77h3l4 2-1 3-8 1h-4l-1-5 7-1"/><path fill="#DFDADE" d="m11 54 4 2v10l-5 1v-9l1-4"/><path fill="#FBF8F2" d="m76 3 1 6-3 3-5-2V4l7-1"/><path fill="#DFDADD" d="m116 197 3 1 1 5v7l-4 2-1-14z"/><path fill="#DED9DD" d="M132 182h10l1 5-12 1-1-3z"/><path fill="#E6D5DE" d="M243 143h4l1 5-13 1 1-5 7-1"/><path fill="#E6D5DC" d="m208 116 1 5-8 1h-4v-5c4-2 7-2 11-1m-26-23h3c1 4 2 7 1 12l-5 1v-9l1-4"/><path fill="#E6D6DD" d="m182 54 4 2v10l-5 1v-9l1-4"/><path fill="#E7D4DC" d="M93 11c5 0 8-1 12 2l-1 3-12 1-1-3z"/><path fill="#E6D5DD" d="M132 221h10l2 4-5 1-3 1-5-1z"/><path fill="#E6D4DC" d="M154 93h4c1 5 1 8-1 13h-3l-1-8 1-3z"/><path fill="#DFD8DD" d="M303 77a365 365 0 0 1 5 0h3l4 2-1 3c-5 1-8 1-13-1z"/><path fill="#E6D4DD" d="M50 54h3l1 12-5 1v-9l1-4"/><path fill="#E7D4DD" d="M302 39h11l1 2-6 4a100 100 0 0 1-6-1l-1-3z"/><path fill="#FAF4F5" d="M178 225h3l1 7-6 2c-2-2-2-2-2-5 0-4 0-4 4-4"/><path fill="#E7D5DC" d="m247 221 1 5h-12l-1-3c4-3 7-2 12-2"/><path fill="#E7D4DC" d="M287 159h3l1 12-5 1v-9l1-4"/><path fill="#E6D4DC" d="m198 143 10 1 1 4-12 1-1-3z"/><path fill="#E6D5DC" d="M98 116h3l4 2-1 3-12 1c0-6 0-6 6-6"/><path fill="#DED9DD" d="m210 78-1 4-8 1h-4l-1-3c4-4 9-3 14-2"/><path fill="#DED9DF" d="M328 54c3 4 2 7 2 12l-4 2c-2-3-2-5-2-9l1-2v-2z"/><path fill="#DFD7DE" d="M221 54h3l1 12-5 1v-9l1-4"/><path fill="#E7D4DD" d="m263 197 1 5v3l-1 5h-4v-12l4-1"/><path fill="#EFE4E6" d="m50 183 1 4h3v8l-1-2-2-1c-3-1-4-3-6-6l-2-1 3-3 4 1"/><path fill="#DFD9DC" d="M93 182a365 365 0 0 1 5 0h3l4 2-1 3-8 1h-4z"/><path fill="#E7E5E9" d="m223 180 3 1 10 2-1 4h-10l-1-4h-2z"/><path fill="#EDE2EA" d="M50 171h4v10l2 1-1 2-5-2v-11"/><path fill="#E7D4DD" d="M77 159h3l1 7v5l-2 1-3-2z"/><path fill="#E6D4DC" d="M154 159h4l1 5v7l-5 1v-13"/><path fill="#F4F9F4" d="M23 148h3l1 9v3h-2l-6-11 4-1"/><path fill="#FAF3F7" d="m280 120 7 2-1 6h-7v-7z"/><path fill="#DDD9DE" d="M325 93h4l1 12-3 1-2-1V93"/><path fill="#E0D7DC" d="M221 93h3l1 12-5 1v-9l1-4"/><path fill="#EDE1E8" d="M287 82h4v11l-6 2 1-2v-6l1-5"/><path fill="#DFD8DD" d="M132 77h10l1 5h-6l-2 1h-2l-3-3z"/><path fill="#E6D5DD" d="M262 54c3 4 2 7 2 12l-3 1-3-3v-7l4-3"/><path fill="#E6D5DF" d="M198 248a365 365 0 0 1 5 0h3l4 2-5 4h-8z"/><path fill="#DED9DD" d="M243 182h4l1 5h-12v-4l7-1"/><path fill="#E7D4DD" d="M259 159h4c1 5 1 8-1 13l-3-1a431 431 0 0 1-1-4v-3l1-5"/><path fill="#E6D4DC" d="M289 93c3 4 2 7 1 12l-4 1-1-7v-2l4-4"/><path fill="#E0D9DC" d="M116 54h3v13h-4v-9l1-4"/><path fill="#F9F4F5" d="M264 32h6v7l-7 1 1-8"/><path fill="#EEE2E9" d="m105 11 3 1 8-1-1 6h-4l-7-1 1-5"/><path fill="#DED8DD" d="M223 198c2 3 2 5 2 8l-1 4-2 1-2-1v-9l3-3"/><path fill="#E6D4DD" d="m27 143 2 1 4-1 5 2v3l-12 1z"/><path fill="#F9F5F7" d="m70 136 6 1 1 7h-7a177 177 0 0 1-1-7z"/><path fill="#EFD7D9" d="M116 127h3l1 10-4 2c-2-3-2-4-2-8l2-4"/><path fill="#E8E6EA" d="m221 66 4 1v10l-5 1v-8l1-4"/><path fill="#ECE1E7" d="M104 39h11v5h-11z"/><path fill="#F1E0DF" d="M38 39h11v5H39v-2l-2-1z"/><path fill="#FAF4F8" d="m180 241 2 7-6 2-2-6 1-2z"/><path fill="#EFD7D9" d="m115 232 5 1v8l-5 2z"/><path fill="#EDE0E8" d="m258 171 5 1c1 4 1 7-1 11h-2v-2l-2-1z"/><path fill="#ECE0E8" d="M220 116v6l-12-2v-3l12-1"/><path fill="#FAF4F5" d="m166 227-2 6h-6l-1-7c3-2 6 0 9 1"/><path fill="#ECE1E7" d="M209 221h11v4l-11 1z"/><path fill="#ECDEE5" d="M107 221h9c3 0 3 0 5 2l-1 3c-4 1-5 0-9-1l-3-1-2-1z"/><path fill="#EEE2EA" d="M103 144h11l1 5h-10z"/><path fill="#ECE1E7" d="M209 144h11v5h-10l-2-3z"/><path fill="#F9F5F7" d="M54 137h6l1 7h-7v-7"/><path fill="#F9F4F8" d="M263 121h6l2 2-2 5h-6v-7"/><path fill="#E8D3DB" d="M77 93h3l1 7v5h-4V93"/><path fill="#EEE1E8" d="M182 82h4v7l-1 4-4 1v-8l1-4"/><path fill="#F9F4F5" d="m287 33-1 6-7 1v-7h8"/><path fill="#F9F5F7" d="m57 15 4 2v6h-7l-1-5 4-3"/><path fill="#F3D2D8" d="M166 221h8l2 4-7 1h-4z"/><path fill="#ECE1E8" d="M182 187h4v11l-3 1c-2-3-2-6-2-10z"/><path fill="#ECE2E7" d="M287 171h4v11l-3 1c-2-4-2-7-2-11z"/><path fill="#F9F5F7" d="M76 120v8h-6l-1-6 7-2"/><path fill="#EFE0DF" d="M155 43h4l-1 2 1 9-5 1v-3l-1-3 2-6"/><path fill="#EEE0E0" d="M287 43h4v7l-1 4-4 1a920 920 0 0 1 0-5v-3l1-4"/><path fill="#EAEEF2" d="m139 16 4 2 2 1 4 4h-8l-3-4v-2z"/><path fill="#F0E0E1" d="m151 249 3 3-1 2h-9l-2-3c2-4 5-3 9-2"/><path fill="#ECE1E9" d="m105 116 6 1h5l-2 4h-10l1-5"/><path fill="#EDE0E8" d="M50 82h4l-1 3 1 8-5 1v-8l1-4"/><path fill="#FAF5F8" d="M70 32h6l1 7h-7v-7"/><path fill="#EFD6D7" d="M221 22h3l1 10-4 2-1-3v-6l1-3"/><path fill="#EDE0E8" d="M236 12v3l2 2h-2l-3-1h-8v-3c4-3 6-2 11-1"/><path fill="#FAF4F6" d="M159 242h6l1 6-6 2-2-2 1-6"/><path fill="#F0DFE0" d="M155 148h4l-1 3 1 8-4 1c-1-4-2-8 0-12"/><path fill="#F8F5F5" d="M179 137h2v7l-6-1-1-4c2-2 2-2 5-2"/><path fill="#FAF5F7" d="M159 121h6l1 4-2 3h-5v-7"/><path fill="#EDDCDA" d="m155 115 3 1 1 5c-5 2-9-1-14-3l2-2 2 1 6-2"/><path fill="#F9F4F7" d="m285 16 2 1-1 6-7 1v-6l6-2"/><path fill="#F8E9E9" d="M270 137h3l2 2-2 3h3l1-5h2v6l-10 1z"/><path fill="#ECE2E7" d="M16 116h8v2l2 1-3 3-8-1z"/><path fill="#F0E0DF" d="m82 11 2 1h9c-2 3-2 4-5 5l-7-1z"/><path fill="#F4D1D9" d="m279 143 1 5-10 1 1-5 8-1"/><path fill="#F3D1D8" d="M50 127h3c1 4 1 7-1 11h-3a758 758 0 0 1 0-5v-3l1-3"/><path fill="#F5E6E4" d="M66 113h3l1 2 5 1h2v4l-6 2-1-2-5-6z"/><path fill="#EEE0DF" d="m258 207 1 3 4 1 1 5-5 3-1-1v-7l-1-3z"/><path fill="#F3D1D8" d="M155 127h3v9l-1 2-3-2v-8zm11-11h8l-1 5h-8l-1-2z"/><path fill="#EDE4DF" d="m324 105 5 1v8l-2 2-3-3 1-5z"/><path fill="#F5F5F5" d="M220 7v5h-8l-4 1v-2a563 563 0 0 1 4-2l3-1 5-1"/><path fill="#F1E0DF" d="M263 106v10l-5-1 1-8 4-1"/><path fill="#F9F2F4" d="m179 32 3 1-1 6-7 1-2-2 3-3 2-2z"/><path fill="#F9F4F3" d="m159 32 7 5v2h-7v-7"/><path fill="#EEDFDE" d="m76 208 3 1 2-1v11l-2-1v-2h-3z"/><path fill="#ECE2E8" d="m323 144-1 4-7 1-2-3c4-4 5-3 10-2"/><path fill="#F4D0D7" d="m68 12 2 1v3h-9l-1-3c5-2 5-2 8-1"/><path fill="#F5F9F6" d="m119 7 11 3-1 3h-3l-6-1z"/><path fill="#F1E1DF" d="M182 253h4v7l-5 1 1-8"/><path fill="#F1E0E1" d="M155 253h4v9l-5-1 1-8"/><path fill="#ECE0E6" d="M18 144h9l-1 4h-8z"/><path fill="#F4D0D7" d="M63 144h6l1 2-3 3-6-1-1-3 3-1"/><path fill="#F0DCE3" d="M70 39h7v4l-7 1-1-3z"/><path fill="#FAF5F1" d="m278 7 7 1 2 3-6 2-2-1-1-5"/><path fill="#F0DDE2" d="M280 116h7l-1 6-7-1z"/><path fill="#EFD6D9" d="M11 127h3l1 12-4-7v-2l-1-2z"/><path fill="#F1DDE3" d="m152 120 7 1v6l-5 1v-3l-2-5"/><path fill="#F2DEE4" d="M264 116h8l-2 1a78 78 0 0 0-2 5l-5-2z"/><path fill="#F5D0D7" d="M184 232c2 3 2 5 2 9l-4 1v-9z"/><path fill="#F1D5D9" d="m329 127-2 10h-2l-1-7 5-3"/><path fill="#F3DCE5" d="m152 225 6 2 1 5-4 2z"/><path fill="#E5D1D7" d="m221 181 5 2-1 4-3 1-4-4z"/><path fill="#F3DCE4" d="M258 16h6l-1 6-4 1z"/><path fill="#F0CBD4" d="m160 250-1 3-5 1-2-5c5-1 5-1 8 1"/><path fill="#EBCED2" d="m221 220 4 2 1 3-4 2-2-1a100 100 0 0 1 0-5z"/><path fill="#F2E1E1" d="M248 221h6l1 2-6 4v-2h-2z"/><path fill="#EFE1E5" d="m164 182 2 1-1 4-3 1-4-3c3-3 3-3 6-3"/><path fill="#F1CAD3" d="m287 116 5 1-1 4-4 2-2-4z"/><path fill="#F1C9D5" d="m49 116 6 1-1 4-3 1-3-3z"/><path fill="#ECCCD6" d="m220 116 6 1-1 4-5 1z"/><path fill="#EBCED5" d="m259 77 6 1-1 4-3 1-4-4z"/><path fill="#E8E5EA" d="m7 77 3 3v2l-7 1 1-5z"/><path fill="#E7D4DE" d="M131 12c4 0 6 1 8 4l-8 1-1-3z"/><path fill="#F2C9D5" d="m155 220 4 2 1 3-4 2-2-1a100 100 0 0 1 0-5z"/><path fill="#ECCDD5" d="m160 183-1 4-3 1-2-1v-3l-2-1h8"/><path fill="#EFE2E6" d="m271 78-1 5h-5l-2-3c3-2 4-2 8-2"/><path fill="#E6D0D5" d="m14 77 2 5-6 1-1-5 5-1"/><path fill="#F1C9D4" d="m182 38 4 2 1 3-6 1-1-5z"/><path fill="#EBCCD2" d="m220 11 6 1-1 4-5 1v-6"/><path fill="#F0E4E1" d="m224 5 1 6-3 1-2-1-1-5z"/><path fill="#EFE1E2" d="m220 226 4 1 1 5-5 1z"/><path fill="#F1C9D2" d="M182 143h3l1 5-5 1-1-3z"/><path fill="#F2C7D3" d="m155 143 5 1-1 4-5 1-1-3z"/><path fill="#F1E2E0" d="M86 116h7v4l-7 1 1-3z"/><path fill="#ECCBD2" d="m221 38 4 2v4h-5l-1-5z"/><path fill="#EECCD3" d="m116 38 4 2 1 3-6 1a100 100 0 0 1 0-5z"/><path fill="#EEE2E5" d="M221 16h4c-1 5-1 5-3 7h-2z"/><path fill="#F2C9D4" d="M257 12h8l-1 4-3 1a181 181 0 0 1-4-4z"/><path fill="#FAF7F2" d="m61 8-2 4-5-1-1-2c3-2 5-2 8-1"/><path fill="#F2E2E0" d="M191 221h7v4l-4 1v-2l-3-1z"/><path fill="#F9F7F2" d="M264 209h6c-1 3-2 4-5 6h-2l-1-3z"/><path fill="#ECE2EB" d="m76 190 4 2-1 5h2l-1 2-4-2z"/><path fill="#EBCBD4" d="m287 182 5 1-1 4-5 1a100 100 0 0 1 0-5z"/><path fill="#E5D0D7" d="M115 182h4l1 5-5 1v-6"/><path fill="#EBCBD1" d="m50 182 5 1-1 4-5 1a100 100 0 0 1 0-5z"/><path fill="#F2C8D4" d="m77 143 4 2 1 3-6 1-1-5z"/><path fill="#ECCBD3" d="m119 143 1 5-5 1-1-5 5-1"/><path fill="#EDE0E6" d="m221 121 3 1 1 5-5 1z"/><path fill="#F1DCE4" d="M182 121h4c-1 5-1 5-3 7h-2z"/><path fill="#ECCBD3" d="m185 77 1 5-5 1-1-5 5-1"/><path fill="#EFC8D4" d="m287 38 4 2-1 4h-4l-1-5z"/><path fill="#F1C8D4" d="M155 38h3l1 5-5 1-1-3z"/><path fill="#F1C8D2" d="M182 248h3l1 5-5 1-1-3z"/><path fill="#F2DEE5" d="m180 248 2 1-2 4-4 1-1-4 5-2"/><path fill="#F0DAE0" d="m154 242 4 2 1 4-5 1z"/><path fill="#F0E9EB" d="M223 217h2v4h4v4l-4 1z"/><path fill="#EBCCD4" d="m116 221 5 1-1 4-3 1-2-2 1-4"/><path fill="#ECCBD3" d="M182 182h3l1 5-5 1-1-3z"/><path fill="#F1C7D1" d="M287 143h3l1 5-5 1-1-3z"/><path fill="#F1C8D3" d="m262 143 2 4-4 2-2-1 1-4z"/><path fill="#EBCBD2" d="M221 143h3l1 5-5 1-1-3z"/><path fill="#F3DDE6" d="m163 144 2 1v3l-5 1-2-3 5-2"/><path fill="#F2DAE3" d="m259 137 4 2-1 5h-3z"/><path fill="#F0DDE2" d="M291 121c-1 5-1 5-3 7h-2v-5l5-2"/><path fill="#ECCCD3" d="M325 116h4l1 5-3 1-3-3z"/><path fill="#EBCBD2" d="m116 116 4 1v4l-5 1-1-3z"/><path fill="#EBCAD1" d="M287 77h3l1 5-5 1-1-3z"/><path fill="#E4CFD3" d="M221 77h3l1 5-5 1-1-3z"/><path fill="#E7E8EB" d="m128 77 3 1v3l2 2h-7l2-6"/><path fill="#E3D0D3" d="M116 77h3l1 5-5 1-1-3z"/><path fill="#ECCBD3" d="M50 77h3l1 5-5 1-1-3z"/><path fill="#F6E8EA" d="M52 21h2v2h4l-1 4-3 2z"/><path fill="#FAF7F2" d="M142 18c4 1 5 2 7 5l-5 1-2-6"/><path fill="#EBCBD1" d="M116 11h3l1 5-5 1-1-3z"/><path fill="#EDCBD3" d="M259 182h4l1 5-3 1-3-2z"/><path fill="#F2C7D3" d="m259 116 5 1v4h-5zm-77 0h3l1 5-5 1z"/><path fill="#F1C7D2" d="m77 116 5 1-1 4-5 1z"/><path fill="#ECCBD1" d="m11 116 5 1-1 4-3 1-2-5z"/><path fill="#EACAD2" d="m157 77 2 4-4 2-2-3 4-3"/><path fill="#F5F4F3" d="m329 47 4 8-2 1-3-3 1-2-1-3z"/><path fill="#E7D4DE" d="m206 12 3 1v3h-9l6-4"/><path fill="#F1E1E2" d="M86 221h7v4l-4 1z"/><path fill="#F0C8D3" d="m184 221 3 2-1 3-3 1-2-2 1-3z"/><path fill="#F1C7D1" d="m50 143 4 2-2 4h-3l-1-3z"/><path fill="#EDCBD4" d="M77 77h4v5l-5-1z"/><path fill="#F3C6D2" d="m262 38 2 3-3 3h-2l-1-3 4-3"/><path fill="#F2C6D2" d="m77 38 4 2-1 4-2 1-2-2 1-5"/><path fill="#F2C7D3" d="m52 11 2 4-4 2-2-3 4-3"/><path fill="#F0C6D0" d="m289 11 2 4-5 2v-5z"/><path fill="#F0DFE1" d="M143 118h6v3h-6z"/><path fill="#E6CED3" d="m328 77 2 4-3 2-2-1v-4z"/><path fill="#F2C6D1" d="m49 39 5 1-2 4h-3l-1-3z"/><path fill="#EDCAD2" d="m77 182 5 1-1 4h-4l-1-3z"/><path fill="#F1C6D1" d="m157 116 2 4-3 2-2-1v-4z"/><path fill="#F0E9E7" d="m144 77 6 6h-6l-2-4z"/><path fill="#F2EAEE" d="m313 27 4 2 1 4-5-2z"/><path fill="#EDEAEE" d="m302 18 5 2v3h-5z"/><path fill="#FBF7F3" d="M197 18v5h-6l6-5"/><path fill="#F0DAE2" d="M73 116h4v4l-5 1z"/><path fill="#EEE5E7" d="m280 77 6 1v5h-3z"/><path fill="#F2E1E1" d="m48 11 2 1-1 5h-5l4-6"/><path fill="#F4C6D2" d="m77 11 4 1v4l-5-1z"/><path fill="#F5E7E3" d="m258 212 3 3h3l-4 4-2-1z"/><path fill="#FBF8F4" d="m75 209 2 4-2 2-3-3v-2z"/><path fill="#EDDDE4" d="M6 116h5v6l-4-2-1-4"/><path fill="#EAEBEE" d="m36 18 2 2-6 4v-3l4-3"/></svg>